<svg width="19" height="17" viewBox="0 0 19 17" fill="none" xmlns="http://www.w3.org/2000/svg">
<path d="M18.2 10.4V2.7C18.2 1.8 17.5 1.1 16.6 1.1H14.5V0.5C14.5 0.2 14.3 0 14 0C13.7 0 13.5 0.2 13.5 0.5V1.1H9.8V0.5C9.8 0.2 9.6 0 9.3 0C9 0 8.8 0.2 8.8 0.5V1.1H5.2V0.5C5.2 0.2 5 0 4.7 0C4.4 0 4.2 0.2 4.2 0.5V1.1H1.6C0.7 1.1 0 1.8 0 2.7V12.7C0 13.6 0.7 14.3 1.6 14.3H10C10.8 15.7 12.2 16.6 13.9 16.6C16.4 16.6 18.4 14.6 18.4 12.1C18.5 11.5 18.4 10.9 18.2 10.4ZM14.5 8.7C16 8.9 17.1 10.1 17.3 11.5H14.5V8.7ZM1.6 13.2C1.3 13.2 1.1 13 1.1 12.7V2.7C1.1 2.4 1.3 2.2 1.6 2.2H4.1V2.89999C4.1 3.19999 4.3 3.39999 4.6 3.39999C4.9 3.39999 5.1 3.19999 5.1 2.89999V2.2H8.6V2.89999C8.6 3.19999 8.8 3.39999 9.1 3.39999C9.4 3.39999 9.6 3.19999 9.6 2.89999V2.2H13.1V2.89999C13.1 3.19999 13.3 3.39999 13.6 3.39999C13.9 3.39999 14.1 3.19999 14.1 2.89999V2.2H16.2C16.5 2.2 16.7 2.4 16.7 2.7V8.8C15.9 8 14.8 7.6 13.6 7.6C11.1 7.6 9.1 9.6 9.1 12.1C9.1 12.5 9.1 12.9 9.2 13.2H1.6ZM14 15.5C12.1 15.5 10.6 14 10.6 12.1C10.6 10.4 11.9 9 13.5 8.7V12.1C13.5 12.4 13.7 12.6 14 12.6H17.4C17.1 14.3 15.7 15.5 14 15.5Z" fill="#808080"/>
<path d="M3.7999 5.69995H2.8999C2.5999 5.69995 2.3999 5.89995 2.3999 6.19995C2.3999 6.49995 2.5999 6.69995 2.8999 6.69995H3.7999C4.0999 6.69995 4.2999 6.49995 4.2999 6.19995C4.2999 5.89995 4.0999 5.69995 3.7999 5.69995Z" fill="#808080"/>
<path d="M6.9001 5.69995H6.1001C5.8001 5.69995 5.6001 5.89995 5.6001 6.19995C5.6001 6.49995 5.8001 6.69995 6.1001 6.69995H7.0001C7.3001 6.69995 7.5001 6.49995 7.5001 6.19995C7.5001 5.89995 7.2001 5.69995 6.9001 5.69995Z" fill="#808080"/>
<path d="M6.9001 8H6.1001C5.8001 8 5.6001 8.2 5.6001 8.5C5.6001 8.8 5.8001 9 6.1001 9H7.0001C7.3001 9 7.5001 8.8 7.5001 8.5C7.5001 8.2 7.2001 8 6.9001 8Z" fill="#808080"/>
<path d="M3.7999 8H2.8999C2.5999 8 2.3999 8.2 2.3999 8.5C2.3999 8.8 2.5999 9 2.8999 9H3.7999C4.0999 9 4.2999 8.8 4.2999 8.5C4.2999 8.2 4.0999 8 3.7999 8Z" fill="#808080"/>
<path d="M3.7999 10.3H2.8999C2.5999 10.3 2.3999 10.5 2.3999 10.8C2.3999 11.1 2.5999 11.3 2.8999 11.3H3.7999C4.0999 11.3 4.2999 11.1 4.2999 10.8C4.2999 10.6 4.0999 10.3 3.7999 10.3Z" fill="#808080"/>
<path d="M6.9001 10.3H6.1001C5.8001 10.3 5.6001 10.5 5.6001 10.8C5.6001 11.1 5.8001 11.3 6.1001 11.3H7.0001C7.3001 11.3 7.5001 11.1 7.5001 10.8C7.5001 10.6 7.2001 10.3 6.9001 10.3Z" fill="#808080"/>
</svg>
