<svg width="24" height="25" viewBox="0 0 24 25" fill="none" xmlns="http://www.w3.org/2000/svg">
<path d="M7.91914 18.9192C6.41914 18.9192 5.11914 20.2192 5.11914 21.7192C5.11914 23.2192 6.41914 24.5192 7.91914 24.5192C9.41914 24.5192 10.7191 23.2192 10.7191 21.7192C10.7191 20.2192 9.51914 18.9192 7.91914 18.9192ZM7.91914 22.8192C7.31914 22.8192 6.81915 22.3192 6.81915 21.7192C6.81915 21.1192 7.31914 20.6192 7.91914 20.6192C8.51914 20.6192 9.01915 21.1192 9.01915 21.7192C9.01915 22.3192 8.51914 22.8192 7.91914 22.8192Z" fill="#FF5B15"/>
<path d="M18.1191 18.9192C16.6191 18.9192 15.3191 20.2192 15.3191 21.7192C15.3191 23.2192 16.6191 24.5192 18.1191 24.5192C19.6191 24.5192 20.9191 23.2192 20.9191 21.7192C20.9191 20.2192 19.6191 18.9192 18.1191 18.9192ZM18.1191 22.8192C17.5191 22.8192 17.0191 22.3192 17.0191 21.7192C17.0191 21.1192 17.5191 20.6192 18.1191 20.6192C18.7191 20.6192 19.2191 21.1192 19.2191 21.7192C19.2191 22.3192 18.7191 22.8192 18.1191 22.8192Z" fill="#FF5B15"/>
<path d="M6.71916 18.0192H20.0192C20.5192 18.0192 20.9192 17.6192 20.9192 17.1192C20.9192 16.6192 20.5192 16.2192 20.0192 16.2192H7.41915L4.91915 1.21916C4.81915 0.81916 4.61916 0.61916 4.21916 0.51916L1.01916 0.0191602C0.51916 -0.0808398 0.11916 0.21916 0.0191603 0.71916C-0.0808397 1.21916 0.219157 1.61916 0.719157 1.71916L3.41915 2.21916L5.91915 17.4192C5.91915 17.7192 6.31916 18.0192 6.71916 18.0192Z" fill="#FF5B15"/>
<path d="M22.9191 5.51914C22.7191 5.31914 22.5191 5.11914 22.2191 5.11914H4.81909V6.81914H21.0191L19.2191 12.3191H5.91908V14.0191H19.8191C20.2191 14.0191 20.5191 13.8191 20.6191 13.4191L22.9191 6.21914C23.2191 6.11914 23.1191 5.81914 22.9191 5.51914Z" fill="#FF5B15"/>
</svg>
