<svg width="12" height="12" viewBox="0 0 12 12" fill="none" xmlns="http://www.w3.org/2000/svg">
<path d="M10.3 3.875H8.5V0.775C8.5 0.475 8.4 0.275 8.1 0.075C7.8 -0.025 7.6 -0.025 7.3 0.075L0.8 3.575C0.3 3.875 0 4.275 0 4.875V5.075V10.175C0 10.775 0.5 11.175 1 11.175H10.2C10.8 11.175 11.2 10.675 11.2 10.175V4.875C11.3 4.275 10.8 3.875 10.3 3.875ZM7.6 0.675C7.7 0.675 7.7 0.675 7.6 0.675C7.7 0.675 7.7 0.675 7.7 0.775V3.875H1.7L7.6 0.675ZM10.6 10.275C10.6 10.475 10.5 10.575 10.3 10.575H1C0.8 10.575 0.7 10.475 0.7 10.275V5.075V4.875C0.7 4.675 0.8 4.575 1 4.575H10.2C10.4 4.575 10.5 4.675 10.5 4.875V10.275H10.6Z" fill="#808080"/>
<path d="M9.2 8.275C8.8 8.275 8.5 7.975 8.5 7.575C8.5 7.175 8.8 6.875 9.2 6.875C9.6 6.875 9.9 7.175 9.9 7.575C9.9 7.975 9.5 8.275 9.2 8.275Z" fill="#808080"/>
</svg>
