<svg width="26" height="20" viewBox="0 0 26 20" fill="none" xmlns="http://www.w3.org/2000/svg">
<path d="M24.0999 18.8H7.19991C6.49991 18.8 5.8999 18.2 5.8999 17.5C5.8999 16.8 6.49991 16.2 7.19991 16.2H24.0999C24.7999 16.2 25.3999 16.8 25.3999 17.5C25.2999 18.2 24.7999 18.8 24.0999 18.8Z" fill="#FF5B15"/>
<path d="M24.0999 10.8H7.19991C6.49991 10.8 5.8999 10.2 5.8999 9.50001C5.8999 8.80001 6.49991 8.20001 7.19991 8.20001H24.0999C24.7999 8.20001 25.3999 8.80001 25.3999 9.50001C25.2999 10.3 24.7999 10.8 24.0999 10.8Z" fill="#FF5B15"/>
<path d="M24.0999 2.89999H7.19991C6.39991 2.89999 5.8999 2.29999 5.8999 1.59999C5.8999 0.899988 6.49991 0.299988 7.19991 0.299988H24.0999C24.7999 0.299988 25.3999 0.899988 25.3999 1.59999C25.3999 2.29999 24.7999 2.89999 24.0999 2.89999Z" fill="#FF5B15"/>
<path d="M1.7 3.4C2.63889 3.4 3.4 2.63888 3.4 1.7C3.4 0.761116 2.63889 0 1.7 0C0.76112 0 0 0.761116 0 1.7C0 2.63888 0.76112 3.4 1.7 3.4Z" fill="#FF5B15"/>
<path d="M1.7 11.3C2.63889 11.3 3.4 10.5389 3.4 9.60002C3.4 8.66114 2.63889 7.90002 1.7 7.90002C0.76112 7.90002 0 8.66114 0 9.60002C0 10.5389 0.76112 11.3 1.7 11.3Z" fill="#FF5B15"/>
<path d="M1.7 19.1C2.63889 19.1 3.4 18.3389 3.4 17.4C3.4 16.4611 2.63889 15.7 1.7 15.7C0.76112 15.7 0 16.4611 0 17.4C0 18.3389 0.76112 19.1 1.7 19.1Z" fill="#FF5B15"/>
</svg>
