<svg width="14" height="13" viewBox="0 0 14 13" fill="none" xmlns="http://www.w3.org/2000/svg">
<path d="M0.5 7H6.4C6.6 7.9 7.4 8.5 8.3 8.5C9.2 8.5 10 7.9 10.2 7H12.8C13.1 7 13.3 6.8 13.3 6.5C13.3 6.2 13.1 6 12.8 6H10.2C10 5.1 9.2 4.5 8.3 4.5C7.4 4.5 6.6 5.1 6.4 6H0.5C0.2 6.1 0 6.3 0 6.6C0 6.8 0.2 7 0.5 7ZM8.3 5.5C8.9 5.5 9.3 6 9.3 6.5C9.3 7.1 8.8 7.5 8.3 7.5C7.7 7.5 7.3 7 7.3 6.5C7.3 6 7.7 5.5 8.3 5.5Z" fill="#333333"/>
<path d="M0.5 11.5H3.4C3.6 12.4 4.4 13 5.3 13C6.2 13 7 12.4 7.2 11.5H12.9C13.2 11.5 13.4 11.3 13.4 11C13.4 10.7 13.2 10.5 12.9 10.5H7.2C7 9.6 6.2 9 5.3 9C4.4 9 3.6 9.6 3.4 10.5H0.5C0.2 10.5 0 10.7 0 11C0 11.3 0.2 11.5 0.5 11.5ZM5.2 10C5.8 10 6.2 10.5 6.2 11C6.2 11.6 5.7 12 5.2 12C4.6 12 4.2 11.5 4.2 11C4.2 10.5 4.7 10 5.2 10Z" fill="#333333"/>
<path d="M0.5 2.5H3.4C3.6 3.4 4.4 4 5.3 4C6.2 4 7 3.4 7.2 2.5H12.9C13.2 2.5 13.4 2.3 13.4 2C13.4 1.7 13.2 1.5 12.9 1.5H7.2C7 0.6 6.2 0 5.3 0C4.4 0 3.6 0.6 3.4 1.5H0.5C0.2 1.6 0 1.8 0 2.1C0 2.3 0.2 2.5 0.5 2.5ZM5.2 1C5.8 1 6.2 1.5 6.2 2C6.2 2.6 5.7 3 5.2 3C4.6 3 4.2 2.5 4.2 2C4.2 1.5 4.7 1 5.2 1Z" fill="#333333"/>
</svg>
