<svg width="16" height="16" viewBox="0 0 16 16" fill="none" xmlns="http://www.w3.org/2000/svg">
<path d="M8 16C12.4183 16 16 12.4183 16 8C16 3.58172 12.4183 0 8 0C3.58172 0 0 3.58172 0 8C0 12.4183 3.58172 16 8 16Z" fill="#84A60E"/>
<path d="M12.2001 4.99999C12.1001 4.89999 11.9001 4.89999 11.7001 4.99999L6.4001 10.3L4.3001 8.19999C4.2001 8.09999 4.0001 8.09999 3.8001 8.19999C3.7001 8.29999 3.7001 8.49999 3.8001 8.69999L6.2001 11C6.3001 11.1 6.5001 11.1 6.7001 11L12.3001 5.39999C12.3001 5.29999 12.3001 5.09999 12.2001 4.99999Z" fill="white"/>
</svg>
