<svg width="25" height="25" viewBox="0 0 25 25" fill="none" xmlns="http://www.w3.org/2000/svg">
<path d="M20.5 0H4.5C2 0 0 2 0 4.5V20.5C0 23 2 25 4.5 25H20.5C23 25 25 23 25 20.5V4.5C25 2 23 0 20.5 0ZM23.2 20.5C23.2 22 22 23.2 20.5 23.2H4.5C3 23.2 1.8 22 1.8 20.5V4.5C1.8 3 3 1.8 4.5 1.8H20.5C22 1.8 23.2 3 23.2 4.5V20.5Z" fill="#FF5B15"/>
<path d="M16.9001 11.6H13.3001V8.00001C13.3001 7.50001 12.9001 7.10001 12.4001 7.10001C11.9001 7.10001 11.6001 7.50001 11.6001 8.00001V11.6H8.0001C7.5001 11.6 7.1001 12 7.1001 12.5C7.1001 13 7.5001 13.4 8.0001 13.4H11.6001V17C11.6001 17.5 12.0001 17.9 12.5001 17.9C13.0001 17.9 13.4001 17.5 13.4001 17V13.4H17.0001C17.5001 13.4 17.9001 13 17.9001 12.5C17.8001 12 17.4001 11.6 16.9001 11.6Z" fill="#FF5B15"/>
</svg>
