<svg width="16" height="19" viewBox="0 0 16 19" fill="none" xmlns="http://www.w3.org/2000/svg">
<path fill-rule="evenodd" clip-rule="evenodd" d="M2.1 0C6.6 0 11.1 0 15.5 0C15.5 0.1 15.5 0.200003 15.5 0.300003C15.5 7.4 15.5 11.4 15.5 18.5C15.5 18.6 15.5 18.7 15.5 18.8C11 18.8 6.5 18.8 2.1 18.8C2 18.8 1.8 18.7 1.7 18.7C0.7 18.4 0 17.5 0 16.3C0 12.3 0 11.4 0 7.4C0 5.8 0 4.20001 0 2.60001C0 1.40001 0.6 0.500005 1.7 0.200005C1.9 0.100005 2 0 2.1 0ZM12.7 12C12.6 11.9 12.5 11.9 12.5 11.9C11.8 11.5 11.2 11.2 10.5 10.8C10.4 10.7 10.2 10.7 10.1 10.8C9.4 11.2 8.8 11.6 8.1 11.9C8 11.9 8 12 7.9 12C7.9 9.6 7.9 7.2 7.9 4.8C7.8 4.8 7.7 4.8 7.6 4.8C6.3 4.8 4.9 4.8 3.6 4.8C2.9 4.8 2.1 4.9 1.4 4.5C1.4 4.6 1.4 4.60001 1.4 4.60001C1.4 5.10001 1.4 5.7 1.4 6.2C1.4 10.6 1.4 11.8 1.4 16.1C1.4 16.3 1.4 16.5 1.5 16.7C1.7 17.2 2.1 17.3 2.6 17.3C6.4 17.3 10.3 17.3 14.1 17.3C14.2 17.3 14.2 17.3 14.3 17.3C14.3 12 14.3 9.9 14.3 4.7C13.8 4.7 13.2 4.7 12.7 4.7C12.7 7.2 12.7 9.6 12.7 12ZM14.3 1.3C14.2 1.3 14.2 1.3 14.1 1.3C10.3 1.3 6.5 1.3 2.6 1.3C2.5 1.3 2.4 1.3 2.3 1.3C1.6 1.4 1.1 2.1 1.4 2.8C1.6 3.3 2 3.5 2.6 3.5C6.4 3.5 10.2 3.5 14.1 3.5C14.2 3.5 14.2 3.5 14.3 3.5C14.3 2.8 14.3 2 14.3 1.3ZM9.1 9.8C9.4 9.7 9.6 9.5 9.9 9.4C10.2 9.2 10.4 9.2 10.6 9.4C10.8 9.6 11.1 9.7 11.4 9.8C11.4 8.1 11.4 6.4 11.4 4.8C10.6 4.8 9.9 4.8 9.2 4.8C9.1 6.5 9.1 8.1 9.1 9.8Z" fill="#FF5B15"/>
</svg>
