<svg width="17" height="18" viewBox="0 0 17 18" fill="none" xmlns="http://www.w3.org/2000/svg">
<g clip-path="url(#clip0)">
<path d="M5.69995 13.5C4.59995 13.5 3.69995 14.4 3.69995 15.5C3.69995 16.6 4.59995 17.5 5.69995 17.5C6.79995 17.5 7.69995 16.6 7.69995 15.5C7.69995 14.4 6.79995 13.5 5.69995 13.5ZM5.69995 16.3C5.29995 16.3 4.89995 16 4.89995 15.5C4.89995 15 5.19995 14.7 5.69995 14.7C6.09995 14.7 6.49995 15 6.49995 15.5C6.49995 16 6.09995 16.3 5.69995 16.3Z" fill="white"/>
<path d="M12.8999 13.5C11.7999 13.5 10.8999 14.4 10.8999 15.5C10.8999 16.6 11.7999 17.5 12.8999 17.5C13.9999 17.5 14.8999 16.6 14.8999 15.5C14.8999 14.4 13.9999 13.5 12.8999 13.5ZM12.8999 16.3C12.4999 16.3 12.0999 16 12.0999 15.5C12.0999 15.1 12.3999 14.7 12.8999 14.7C13.2999 14.7 13.6999 15 13.6999 15.5C13.6999 16 13.3999 16.3 12.8999 16.3Z" fill="white"/>
<path d="M4.8 12.9H14.3C14.6 12.9 14.9 12.6 14.9 12.3C14.9 12 14.6 11.7 14.3 11.7H5.3L3.6 0.9C3.6 0.6 3.4 0.4 3.1 0.4L0.7 0C0.4 0 0.1 0.2 0 0.5C0 0.8 0.2 1.2 0.5 1.2L2.4 1.5L4.2 12.3C4.2 12.7 4.5 12.9 4.8 12.9Z" fill="white"/>
<path d="M16.4 4C16.3 3.8 16.1 3.7 15.9 3.7H3.5V4.9H15.1L13.8 8.8H4.3V10H14.2C14.5 10 14.7 9.8 14.8 9.6L16.5 4.5C16.6 4.3 16.5 4.1 16.4 4Z" fill="white"/>
</g>
<defs>
<clipPath id="clip0">
<rect width="16.5" height="17.5" fill="white"/>
</clipPath>
</defs>
</svg>
