<svg width="24" height="26" viewBox="0 0 24 26" fill="none" xmlns="http://www.w3.org/2000/svg">
<path d="M8.40987 19.79C7.85608 19.79 7.31472 19.9542 6.85426 20.2618C6.39381 20.5695 6.03492 21.0068 5.823 21.5184C5.61107 22.0301 5.55563 22.5931 5.66367 23.1362C5.77171 23.6794 6.03838 24.1784 6.42996 24.5699C6.82155 24.9615 7.32046 25.2281 7.8636 25.3362C8.40675 25.4442 8.96974 25.3888 9.48137 25.1769C9.993 24.965 10.4303 24.6061 10.738 24.1456C11.0456 23.6852 11.2099 23.1438 11.2099 22.59C11.2072 21.8482 10.9114 21.1376 10.3869 20.613C9.86233 20.0885 9.15166 19.7927 8.40987 19.79ZM8.40987 23.67C8.14008 23.6441 7.88962 23.5186 7.70737 23.318C7.52512 23.1174 7.42415 22.856 7.42415 22.585C7.42415 22.3139 7.52512 22.0527 7.70737 21.8521C7.88962 21.6514 8.14008 21.5259 8.40987 21.5C8.5611 21.4855 8.7137 21.5027 8.85788 21.5507C9.00206 21.5986 9.13465 21.676 9.2471 21.7782C9.35956 21.8804 9.44941 22.005 9.5109 22.1439C9.57238 22.2829 9.60414 22.433 9.60414 22.585C9.60414 22.7369 9.57238 22.8872 9.5109 23.0261C9.44941 23.1651 9.35956 23.2896 9.2471 23.3917C9.13465 23.4939 9.00206 23.5715 8.85788 23.6194C8.7137 23.6673 8.5611 23.6846 8.40987 23.67Z" fill="#666666"/>
<path d="M18.58 19.79C18.0262 19.79 17.4849 19.9542 17.0244 20.2618C16.564 20.5695 16.2051 21.0068 15.9932 21.5184C15.7812 22.0301 15.7258 22.5931 15.8338 23.1362C15.9419 23.6794 16.2085 24.1784 16.6001 24.5699C16.9917 24.9615 17.4906 25.2281 18.0338 25.3362C18.5769 25.4442 19.1399 25.3888 19.6515 25.1769C20.1632 24.965 20.6005 24.6061 20.9081 24.1456C21.2158 23.6852 21.38 23.1438 21.38 22.59C21.38 21.8474 21.085 21.1352 20.5599 20.6101C20.0348 20.085 19.3226 19.79 18.58 19.79ZM18.58 23.67C18.3636 23.672 18.1515 23.6095 17.9707 23.4905C17.7899 23.3715 17.6487 23.2013 17.565 23.0017C17.4812 22.8021 17.4588 22.5822 17.5005 22.3699C17.5423 22.1575 17.6463 21.9624 17.7993 21.8093C17.9524 21.6563 18.1475 21.5522 18.3599 21.5105C18.5722 21.4688 18.7922 21.4912 18.9918 21.575C19.1914 21.6587 19.3615 21.7999 19.4805 21.9807C19.5995 22.1615 19.662 22.3735 19.66 22.59C19.66 22.8764 19.5462 23.1511 19.3437 23.3536C19.1412 23.5562 18.8665 23.67 18.58 23.67Z" fill="#666666"/>
<path d="M7.18005 18.9301H20.5201C20.6401 18.9431 20.7615 18.9307 20.8765 18.8936C20.9914 18.8566 21.0972 18.7957 21.1871 18.715C21.277 18.6344 21.3488 18.5357 21.398 18.4255C21.4472 18.3152 21.4727 18.1958 21.4727 18.075C21.4727 17.9543 21.4472 17.8349 21.398 17.7247C21.3488 17.6144 21.277 17.5156 21.1871 17.435C21.0972 17.3543 20.9914 17.2936 20.8765 17.2565C20.7615 17.2195 20.6401 17.207 20.5201 17.22H7.91006L5.46005 2.22003C5.43159 2.04363 5.34889 1.88047 5.22345 1.75323C5.098 1.62599 4.93603 1.54103 4.76005 1.51006L1.48005 0.939996C1.26291 0.915759 1.04469 0.975186 0.869701 1.10601C0.694712 1.23684 0.576087 1.42934 0.537899 1.64446C0.499711 1.85959 0.544834 2.08115 0.664104 2.26421C0.783374 2.44728 0.967836 2.57808 1.18005 2.63006L3.87005 3.09002L6.34005 18.2501C6.37948 18.4432 6.48483 18.6167 6.63807 18.7408C6.79131 18.8648 6.9829 18.9318 7.18005 18.9301Z" fill="#666666"/>
<path d="M23.4401 6.43994C23.3609 6.33049 23.2573 6.24107 23.1376 6.17859C23.0178 6.1161 22.8851 6.08227 22.7501 6.07996H5.33008V7.80005H21.5701L19.8101 13.28H6.56007V14.99H20.4301C20.6112 14.9892 20.7875 14.9319 20.9345 14.8262C21.0815 14.7204 21.1918 14.5715 21.2501 14.4L23.5601 7.19995C23.6029 7.07299 23.6144 6.93765 23.5935 6.8053C23.5726 6.67295 23.5199 6.54753 23.4401 6.43994Z" fill="#666666"/>
</svg>
