<svg width="27" height="20" viewBox="0 0 27 20" fill="none" xmlns="http://www.w3.org/2000/svg">
<path d="M24.8599 19.0501H7.91994C7.74436 19.0657 7.56746 19.0445 7.40048 18.988C7.2335 18.9316 7.08011 18.8409 6.95006 18.7219C6.82001 18.6029 6.71615 18.4582 6.6451 18.2969C6.57404 18.1356 6.53735 17.9613 6.53735 17.785C6.53735 17.6088 6.57404 17.4344 6.6451 17.2731C6.71615 17.1118 6.82001 16.967 6.95006 16.848C7.08011 16.729 7.2335 16.6384 7.40048 16.5819C7.56746 16.5254 7.74436 16.5044 7.91994 16.52H24.8599C25.195 16.5227 25.5155 16.6576 25.7515 16.8955C25.9875 17.1334 26.1199 17.4549 26.1199 17.79C26.1213 17.9559 26.0896 18.1203 26.0267 18.2738C25.9639 18.4273 25.8711 18.5667 25.7539 18.684C25.6366 18.8012 25.4972 18.8939 25.3437 18.9568C25.1902 19.0196 25.0258 19.0514 24.8599 19.0501Z" fill="#666666"/>
<path d="M24.8599 11.12H7.91994C7.74436 11.1356 7.56746 11.1146 7.40048 11.0581C7.2335 11.0016 7.08011 10.911 6.95006 10.792C6.82001 10.673 6.71615 10.5282 6.6451 10.3669C6.57404 10.2056 6.53735 10.0312 6.53735 9.85497C6.53735 9.6787 6.57404 9.50432 6.6451 9.343C6.71615 9.18169 6.82001 9.03694 6.95006 8.91796C7.08011 8.79897 7.2335 8.70844 7.40048 8.65196C7.56746 8.59549 7.74436 8.57433 7.91994 8.58995H24.8599C25.176 8.61808 25.4701 8.76354 25.6843 8.99767C25.8986 9.23179 26.0173 9.53763 26.0173 9.85497C26.0173 10.1723 25.8986 10.4781 25.6843 10.7123C25.4701 10.9464 25.176 11.0919 24.8599 11.12Z" fill="#666666"/>
<path d="M24.8599 3.18005H7.91994C7.74436 3.19568 7.56746 3.17452 7.40048 3.11804C7.2335 3.06157 7.08011 2.97092 6.95006 2.85193C6.82001 2.73294 6.71615 2.5882 6.6451 2.42688C6.57404 2.26557 6.53735 2.09131 6.53735 1.91504C6.53735 1.73877 6.57404 1.56439 6.6451 1.40308C6.71615 1.24176 6.82001 1.09702 6.95006 0.978029C7.08011 0.85904 7.2335 0.768388 7.40048 0.711915C7.56746 0.655443 7.74436 0.6344 7.91994 0.650026H24.8599C25.195 0.652664 25.5155 0.787628 25.7515 1.02551C25.9875 1.2634 26.1199 1.58495 26.1199 1.92005C26.1213 2.08588 26.0896 2.25034 26.0267 2.40381C25.9639 2.55728 25.8711 2.6967 25.7539 2.81397C25.6366 2.93123 25.4972 3.02394 25.3437 3.08679C25.1902 3.14964 25.0258 3.18139 24.8599 3.18005Z" fill="#666666"/>
<path d="M2.49005 3.71997C3.42894 3.71997 4.19005 2.9589 4.19005 2.02002C4.19005 1.08114 3.42894 0.319946 2.49005 0.319946C1.55117 0.319946 0.790039 1.08114 0.790039 2.02002C0.790039 2.9589 1.55117 3.71997 2.49005 3.71997Z" fill="#666666"/>
<path d="M2.49005 11.55C3.42894 11.55 4.19005 10.7889 4.19005 9.84998C4.19005 8.91109 3.42894 8.15002 2.49005 8.15002C1.55117 8.15002 0.790039 8.91109 0.790039 9.84998C0.790039 10.7889 1.55117 11.55 2.49005 11.55Z" fill="#666666"/>
<path d="M2.49005 19.39C3.42894 19.39 4.19005 18.6288 4.19005 17.6899C4.19005 16.7511 3.42894 15.99 2.49005 15.99C1.55117 15.99 0.790039 16.7511 0.790039 17.6899C0.790039 18.6288 1.55117 19.39 2.49005 19.39Z" fill="#666666"/>
</svg>
