<svg width="16" height="20" viewBox="0 0 16 20" fill="none" xmlns="http://www.w3.org/2000/svg">
<path d="M14 2.39999H10.7V1.8C10.7 0.800003 9.9 0 8.9 0H6.5C5.5 0 4.7 0.800003 4.7 1.8V2.39999H1.5C0.7 2.39999 0 3.09999 0 3.89999V6C0 6.3 0.3 6.60001 0.6 6.60001H0.9L1.4 17.4C1.4 18.4 2.2 19.1 3.2 19.1H12.3C13.3 19.1 14 18.4 14.1 17.4L14.6 6.60001H14.9C15.2 6.60001 15.5 6.3 15.5 6V3.89999C15.5 2.99999 14.8 2.39999 14 2.39999ZM5.9 1.8C5.9 1.5 6.2 1.2 6.5 1.2H8.9C9.2 1.2 9.5 1.5 9.5 1.8V2.39999H5.9V1.8ZM1.2 3.89999C1.2 3.69999 1.3 3.60001 1.5 3.60001H14C14.2 3.60001 14.3 3.69999 14.3 3.89999V5.39999C14.1 5.39999 1.9 5.39999 1.2 5.39999V3.89999ZM12.9 17.3C12.9 17.6 12.6 17.9 12.3 17.9H3.2C2.9 17.9 2.6 17.7 2.6 17.3L2.1 6.5H13.4L12.9 17.3Z" fill="#FF5B15"/>
<path d="M7.69998 16.7C7.99998 16.7 8.29998 16.4 8.29998 16.1V8.3C8.29998 8 7.99998 7.7 7.69998 7.7C7.39998 7.7 7.09998 8 7.09998 8.3V16.1C7.09998 16.4 7.39998 16.7 7.69998 16.7Z" fill="#FF5B15"/>
<path d="M10.7 16.7C11 16.7 11.3 16.4 11.3 16.1V8.3C11.3 8 11 7.7 10.7 7.7C10.4 7.7 10.1 8 10.1 8.3V16.1C10.1 16.4 10.4 16.7 10.7 16.7Z" fill="#FF5B15"/>
<path d="M4.69998 16.7C4.99998 16.7 5.29998 16.4 5.29998 16.1V8.3C5.29998 8 4.99998 7.7 4.69998 7.7C4.39998 7.7 4.09998 8 4.09998 8.3V16.1C4.09998 16.4 4.39998 16.7 4.69998 16.7Z" fill="#FF5B15"/>
</svg>
