<svg width="17" height="17" viewBox="0 0 17 17" fill="none" xmlns="http://www.w3.org/2000/svg">
<path d="M2.32498 10.725C2.62498 11.025 3.02498 11.025 3.32498 10.725C3.62498 10.425 3.62498 10.025 3.32498 9.72501L1.72498 8.22501L4.12498 5.82501C5.52498 4.42501 7.62497 3.82501 9.52497 4.22501C9.92497 4.32501 10.225 4.02501 10.325 3.72501C10.425 3.42501 10.125 3.02501 9.82498 2.92501C7.42497 2.42501 4.92498 3.12501 3.12498 4.82501L0.324976 7.62501C0.0249756 7.92501 0.0249756 8.32501 0.324976 8.62501L2.32498 10.725Z" fill="#FF5B15"/>
<path d="M16.2251 7.725L14.2251 5.725C13.9251 5.425 13.5251 5.425 13.2251 5.725C12.9251 6.025 12.9251 6.425 13.2251 6.725L14.8251 8.325L12.4251 10.725C11.0251 12.125 8.92506 12.725 7.02506 12.325C6.62506 12.225 6.32506 12.525 6.22506 12.825C6.12506 13.225 6.42506 13.525 6.72506 13.625C9.12506 14.125 11.6251 13.425 13.3251 11.625L16.1251 8.825C16.5251 8.425 16.5251 8.025 16.2251 7.725Z" fill="#FF5B15"/>
<path d="M4.92505 8.22501C4.92505 8.62501 5.22505 8.92501 5.62505 8.92501C6.02505 8.92501 6.32505 8.62501 6.32505 8.22501C6.32505 7.12501 7.22505 6.22501 8.32505 6.22501C8.72505 6.22501 9.02505 5.92501 9.02505 5.52501C9.02505 5.12501 8.72505 4.82501 8.32505 4.82501C6.42505 4.82501 4.92505 6.32501 4.92505 8.22501Z" fill="#FF5B15"/>
<path d="M10.325 8.22502C10.325 9.32502 9.425 10.225 8.325 10.225C7.925 10.225 7.625 10.525 7.625 10.925C7.625 11.325 7.925 11.625 8.325 11.625C10.225 11.625 11.725 10.125 11.725 8.22502C11.725 7.82502 11.425 7.52502 11.025 7.52502C10.625 7.52502 10.325 7.82502 10.325 8.22502Z" fill="#FF5B15"/>
<path d="M16.225 0.225C15.925 -0.075 15.525 -0.075 15.225 0.225L0.225 15.225C-0.075 15.525 -0.075 15.925 0.225 16.225C0.525 16.525 0.925 16.525 1.225 16.225L16.225 1.225C16.525 0.925 16.525 0.525 16.225 0.225Z" fill="#FF5B15"/>
</svg>
