<svg width="25" height="25" viewBox="0 0 25 25" fill="none" xmlns="http://www.w3.org/2000/svg">
<path d="M24.025 11.525L22.325 9.825L12.725 0.225C12.425 -0.075 11.825 -0.075 11.525 0.225L1.925 9.825L0.225 11.525C-0.075 11.825 -0.075 12.425 0.225 12.725C0.525 13.025 1.125 13.025 1.425 12.725L1.725 12.425V23.425C1.725 23.925 2.125 24.325 2.625 24.325H21.825C22.325 24.325 22.725 23.925 22.725 23.425V12.425L23.025 12.725C23.325 13.025 23.925 13.025 24.225 12.725C24.325 12.425 24.325 11.825 24.025 11.525ZM14.725 22.625H9.525V15.625H14.725V22.625ZM20.825 22.625H16.425V14.825C16.425 14.325 16.025 13.925 15.525 13.925H8.525C8.025 13.925 7.625 14.325 7.625 14.825V22.625H3.425V10.725L12.125 2.025L20.825 10.725V22.625Z" fill="#FF5B15"/>
</svg>
