<svg width="26" height="26" viewBox="0 0 26 26" fill="none" xmlns="http://www.w3.org/2000/svg">
<path d="M24.8099 12.58L23.0599 10.84L13.4899 1.25C13.3268 1.08696 13.1056 0.995361 12.8749 0.995361C12.6443 0.995361 12.4231 1.08696 12.2599 1.25L2.66994 10.84L0.929939 12.58C0.773343 12.7444 0.687238 12.9635 0.690006 13.1906C0.692775 13.4176 0.7842 13.6346 0.944759 13.7952C1.10532 13.9557 1.32228 14.0472 1.54933 14.0499C1.77638 14.0527 1.99552 13.9667 2.15994 13.8101L2.40994 13.5601V24.5601C2.40994 24.7908 2.5016 25.012 2.66476 25.1752C2.82791 25.3383 3.0492 25.4301 3.27994 25.4301H22.4499C22.6807 25.4301 22.902 25.3383 23.0651 25.1752C23.2283 25.012 23.3199 24.7908 23.3199 24.5601V13.5601L23.5699 13.8101C23.6509 13.8923 23.7474 13.9575 23.8539 14.0021C23.9603 14.0467 24.0745 14.0697 24.1899 14.0697C24.3053 14.0697 24.4196 14.0467 24.526 14.0021C24.6325 13.9575 24.729 13.8923 24.8099 13.8101C24.9706 13.6457 25.0605 13.4248 25.0605 13.1949C25.0605 12.9651 24.9706 12.7444 24.8099 12.58ZM15.4799 23.65H10.2599V16.65H15.4799V23.65ZM21.5799 23.65H17.2199V15.8101C17.2199 15.5793 17.1283 15.358 16.9651 15.1948C16.802 15.0317 16.5807 14.9399 16.3499 14.9399H9.34994C9.1192 14.9399 8.89791 15.0317 8.73476 15.1948C8.5716 15.358 8.47994 15.5793 8.47994 15.8101V23.65H4.15994V11.8199L12.8699 3.10999L21.5799 11.8199V23.65Z" fill="#666666"/>
</svg>
