<svg width="16" height="16" viewBox="0 0 16 16" fill="none" xmlns="http://www.w3.org/2000/svg">
<path d="M7.7 14H1.9C1.5 14 1.3 13.7 1.3 13.4V1.8C1.3 1.4 1.6 1.2 1.9 1.2H7.7C8.1 1.2 8.3 0.900006 8.3 0.600006C8.3 0.300006 8 0 7.7 0H1.9C0.8 0 0 0.900009 0 1.90001V13.5C0 14.6 0.9 15.4 1.9 15.4H7.7C8.1 15.4 8.3 15.1 8.3 14.8C8.3 14.2 8.1 14 7.7 14Z" fill="#FF5B15"/>
<path d="M15.3 6.99998L11.4 3.09998C11.1 2.79998 10.7 2.89998 10.5 3.09998C10.2 3.39998 10.3 3.79998 10.5 3.99998L13.3 6.79998H5.79995C5.39995 6.79998 5.19995 7.09999 5.19995 7.39999C5.19995 7.69999 5.49995 7.99998 5.79995 7.99998H13.3L10.5 10.8C10.2 11.1 10.2 11.5 10.5 11.7C10.6 11.8 10.8 11.9 11 11.9C11.2 11.9 11.3 11.8 11.5 11.7L15.4 7.79998C15.5 7.69998 15.6 7.49998 15.6 7.29998C15.5 7.29998 15.4 7.19998 15.3 6.99998Z" fill="#FF5B15"/>
</svg>
