<svg width="16" height="15" viewBox="0 0 16 15" fill="none" xmlns="http://www.w3.org/2000/svg">
<path d="M12.9 6.3V1.2C12.9 0.600005 12.4 0 11.7 0H1.2C0.6 0 0 0.500005 0 1.2V11.8C0 12.4 0.5 13 1.2 13H8C8.8 14.1 10.1 14.8 11.5 14.8C13.9 14.8 15.9 12.8 15.9 10.4C15.9 8.5 14.6 6.8 12.9 6.3ZM7.6 1V3.7L6.6 3.3C6.5 3.3 6.4 3.3 6.3 3.3L5.3 3.7V1H7.6ZM1.2 12C1.1 12 1 11.9 1 11.8V1.2C1 1.1 1.1 1 1.2 1H4.4V4.3C4.4 4.5 4.5 4.6 4.6 4.7C4.7 4.8 4.9 4.8 5 4.8L6.5 4.3L8 4.8C8.1 4.8 8.1 4.8 8.2 4.8C8.3 4.8 8.4 4.8 8.5 4.7C8.6 4.6 8.7 4.5 8.7 4.3V1H11.9C12 1 12.1 1.1 12.1 1.2V6C11.9 6 11.8 6 11.6 6C9.2 6 7.2 8 7.2 10.4C7.2 11 7.3 11.5 7.5 12H1.2ZM11.5 13.8C9.6 13.8 8.1 12.3 8.1 10.4C8.1 8.5 9.6 7 11.5 7C13.4 7 14.9 8.5 14.9 10.4C14.9 12.3 13.4 13.8 11.5 13.8Z" fill="#FF5B15"/>
</svg>
