<svg width="16" height="15" viewBox="0 0 16 15" fill="none" xmlns="http://www.w3.org/2000/svg">
<path d="M14.5623 7.7V0.5C14.5623 0.2 14.3623 0 14.0623 0H1.66228C1.36228 0 1.16228 0.2 1.16228 0.5V8.3C0.962278 8.3 0.762278 8.4 0.562278 8.6C-0.0377223 9 -0.237722 10 0.362278 10.6L2.46228 13.1C3.76228 14.6 5.16228 14.8 7.16228 14.8C8.96228 14.8 9.76228 14.8 11.2623 14.5L12.7623 14.1C12.9623 14.4 13.3623 14.7 13.8623 14.7H14.5623C15.2623 14.7 15.8623 14.1 15.8623 13.3V9.1C15.8623 8.4 15.2623 7.8 14.5623 7.7ZM12.4623 8.7L11.8623 8.4C10.8623 7.9 9.66228 7.9 8.66228 8.3C8.36228 8.4 7.76228 8.8 7.46228 8.8H5.26228C4.56228 8.8 3.96228 9.4 3.96228 10.1V10.4L2.46228 8.7C2.36228 8.6 2.26228 8.5 2.16228 8.4V3.8H5.96228V5.5C5.96228 5.8 6.16228 6 6.46228 6H9.36228C9.66228 6 9.86228 5.8 9.86228 5.5V3.8H13.7623V7.7C13.0623 7.8 12.6623 8.2 12.4623 8.7ZM6.86228 3.9H8.86228V5.1H6.86228V3.9ZM13.6623 2.9H9.76228V0.900002H13.6623V2.9ZM8.86228 1V3H6.86228V1H8.86228ZM5.86228 1V3H2.06228V1H5.86228ZM10.9623 13.6C9.56228 13.9 8.66228 13.9 7.06228 13.9C5.16228 13.9 4.16228 13.9 3.06228 12.5L0.962278 10C0.562278 9.5 1.26228 9 1.66228 9.4L3.16228 11.1C3.66228 11.5 4.16228 11.7 4.76228 11.7H9.06228C9.36228 11.7 9.56228 11.5 9.56228 11.2C9.56228 10.9 9.36228 10.7 9.06228 10.7H4.86228V10C4.86228 9.8 5.06228 9.6 5.26228 9.6H7.46228C7.96228 9.6 8.66228 9.2 9.06228 9C9.86228 8.6 10.7623 8.7 11.4623 9L12.4623 9.5V13L10.9623 13.6ZM14.8623 13.3C14.8623 13.6 14.6623 13.8 14.4623 13.8H13.7623C13.5623 13.8 13.3623 13.6 13.3623 13.3V9.1C13.3623 8.8 13.5623 8.6 13.7623 8.6H14.4623C14.6623 8.6 14.8623 8.8 14.8623 9.1V13.3Z" fill="#FF5B15"/>
</svg>
