<svg width="8" height="13" viewBox="0 0 8 13" fill="none" xmlns="http://www.w3.org/2000/svg">
<path fill-rule="evenodd" clip-rule="evenodd" d="M0 6.1C0 4.6 0 3.1 0 1.7C0 0.9 0.6 0.2 1.4 0C1.5 0 1.6 0 1.7 0C3.2 0 4.6 0 6.1 0C7.1 0 7.8 0.7 7.8 1.7C7.8 4.7 7.8 7.6 7.8 10.6C7.8 11.6 7.1 12.3 6.1 12.3C4.6 12.3 3.2 12.3 1.7 12.3C0.7 12.3 0 11.6 0 10.6C0 9.1 0 7.6 0 6.1ZM5.6 1.1C5.5 2.2 4.7 2.8 3.9 2.8C3.2 2.8 2.3 2.3 2.2 1.1C2 1.1 1.9 1.1 1.7 1.1C1.3 1.1 1.1 1.3 1.1 1.7C1.1 4.6 1.1 7.5 1.1 10.5C1.1 10.9 1.3 11.1 1.8 11.1C3.2 11.1 4.6 11.1 6.1 11.1C6.5 11.1 6.8 10.9 6.8 10.4C6.8 8.2 6.8 5.9 6.8 3.7C6.8 3 6.8 2.3 6.8 1.7C6.8 1.4 6.6 1.1 6.3 1.1C6 1.1 5.8 1.1 5.6 1.1ZM3.4 1.1C3.4 1.4 3.7 1.7 4 1.6C4.3 1.6 4.5 1.3 4.5 1.1C4.1 1.1 3.7 1.1 3.4 1.1Z" fill="#3E6DF3"/>
</svg>
