<svg width="18" height="15" viewBox="0 0 18 15" fill="none" xmlns="http://www.w3.org/2000/svg">
<path d="M17.8 7V3.59999C17.8 2.89999 17.6 2.3 17.1 1.7C16.7 1.2 16.1 0.799997 15.4 0.699997C13.2 0.199997 11 0 8.8 0C6.6 0 4.4 0.199997 2.2 0.699997C1.5 0.799997 1 1.2 0.5 1.7C0.2 2.2 0 2.89999 0 3.59999V7H2.5V10L2.4 10.1C1.8 10.5 1.4 11.2 1.4 12V14.2H16.6V11.9C16.6 11.2 16.2 10.5 15.6 10L15.5 9.89999V6.89999H17.8V7ZM2.5 1.7C4.6 1.2 6.7 1 8.9 1C11.1 1 13.2 1.2 15.3 1.7C16.2 1.9 16.8 2.6 16.8 3.7H13.9V2.59999H3.9V3.7H1C1 2.7 1.7 1.9 2.5 1.7ZM1 5.89999V4.7H3.9L2.8 5.89999H1ZM15.5 11.9V13H2.4V11.9C2.4 11.5 2.6 11.1 2.9 10.9L3.5 10.5V6.7L5 5.2V3.59999H12.9V5.2L14.4 6.7V10.5L15 10.9C15.3 11.1 15.5 11.5 15.5 11.9ZM15.1 5.89999L13.9 4.7H16.8V5.89999H15.1Z" fill="#FF5B15"/>
<path d="M8.89998 5C7.09998 5 5.59998 6.49999 5.59998 8.29999C5.59998 10.1 7.09998 11.6 8.89998 11.6C10.7 11.6 12.2 10.1 12.2 8.29999C12.2 6.49999 10.8 5 8.89998 5ZM8.89998 10.6C7.69998 10.6 6.59998 9.59999 6.59998 8.29999C6.59998 6.99999 7.59998 6 8.89998 6C10.2 6 11.2 6.99999 11.2 8.29999C11.2 9.49999 10.2 10.6 8.89998 10.6Z" fill="#FF5B15"/>
<path d="M8.40002 7.79999H9.40002V8.79999H8.40002V7.79999Z" fill="#FF5B15"/>
</svg>
