<svg width="21" height="26" viewBox="0 0 21 26" fill="none" xmlns="http://www.w3.org/2000/svg">
<path d="M10.4699 12.6899C11.8376 12.6918 13.1636 12.2192 14.2219 11.3527C15.2801 10.4863 16.0051 9.27962 16.2732 7.93844C16.5413 6.59726 16.336 5.20471 15.6922 3.99801C15.0483 2.79131 14.0059 1.84524 12.7426 1.32113C11.4793 0.797023 10.0733 0.727309 8.76433 1.12386C7.45537 1.52042 6.32448 2.35872 5.56444 3.49581C4.8044 4.6329 4.46225 5.99834 4.59636 7.35946C4.73047 8.72058 5.33253 9.99303 6.29988 10.9599C6.84051 11.5171 7.48922 11.958 8.20628 12.2555C8.92335 12.5529 9.69362 12.7007 10.4699 12.6899ZM7.30989 3.62997C8.04134 2.89887 9.00366 2.44396 10.0329 2.34286C11.0621 2.24175 12.0945 2.50074 12.9543 3.07552C13.814 3.65031 14.4478 4.50535 14.7478 5.49508C15.0477 6.48481 14.9951 7.54792 14.5991 8.50326C14.2031 9.4586 13.488 10.2471 12.5758 10.7343C11.6636 11.2216 10.6107 11.3775 9.59642 11.1754C8.58218 10.9733 7.66941 10.4257 7.0136 9.62606C6.35779 8.82641 5.99951 7.82418 5.99986 6.79C5.9886 6.20143 6.09916 5.61689 6.3246 5.07308C6.55004 4.52928 6.88551 4.03794 7.30989 3.62997Z" fill="#666666"/>
<path d="M20.7899 19.73C20.7533 19.2099 20.6865 18.6924 20.5899 18.1801C20.501 17.6516 20.374 17.1302 20.2099 16.62C20.0469 16.116 19.8324 15.6302 19.5699 15.1701C19.3017 14.7023 18.9646 14.2775 18.5699 13.9101C18.1646 13.5363 17.6932 13.2413 17.1799 13.0401C16.6151 12.8237 16.0147 12.7151 15.4099 12.72C15.042 12.7491 14.6923 12.8925 14.4099 13.13C14.1299 13.32 13.7899 13.5301 13.4099 13.7701C13.0074 14.0171 12.5735 14.2088 12.1199 14.34C11.0951 14.6867 9.9847 14.6867 8.9599 14.34C8.50626 14.2088 8.07235 14.0171 7.66989 13.7701L6.66989 13.13C6.38745 12.8925 6.03782 12.7491 5.66989 12.72C5.06508 12.7151 4.46472 12.8237 3.8999 13.0401C3.3878 13.2437 2.91684 13.5385 2.50989 13.9101C2.11827 14.2803 1.78153 14.7046 1.50989 15.1701C1.24737 15.6302 1.03292 16.116 0.869902 16.62C0.710535 17.1315 0.583611 17.6526 0.489897 18.1801C0.393266 18.6924 0.326475 19.2099 0.289885 19.73C0.289885 20.19 0.289885 20.7301 0.289885 21.1701C0.264629 21.7396 0.359305 22.308 0.567747 22.8385C0.776189 23.3691 1.09374 23.85 1.49988 24.25C2.34621 25.0244 3.46362 25.434 4.60989 25.39H16.4099C17.0023 25.4321 17.597 25.3526 18.1576 25.1565C18.7182 24.9605 19.2328 24.6521 19.6699 24.25C20.0796 23.8527 20.3996 23.3722 20.6083 22.841C20.817 22.3097 20.9096 21.7401 20.8799 21.1701C20.8399 20.6801 20.8199 20.19 20.7899 19.73ZM18.6699 23.25C18.3835 23.5081 18.0484 23.7065 17.6844 23.8335C17.3204 23.9606 16.9347 24.0138 16.5499 23.99H4.74988C4.36511 24.0132 3.97956 23.9598 3.61563 23.8328C3.25169 23.7058 2.91663 23.5076 2.62988 23.25C2.37165 22.9874 2.17077 22.6741 2.03995 22.3299C1.90912 21.9856 1.85122 21.6179 1.8699 21.25C1.8699 20.79 1.8699 20.3401 1.8699 19.9101C1.90474 19.4405 1.96482 18.9731 2.04989 18.51C2.13133 18.046 2.24493 17.5883 2.38989 17.14C2.5214 16.7296 2.69568 16.334 2.90988 15.96C3.09712 15.6152 3.33664 15.3016 3.6199 15.0301C3.88263 14.7769 4.19624 14.5825 4.53989 14.46C4.8999 14.3181 5.28293 14.2435 5.66989 14.24L5.94989 14.4101L6.94989 15.0601C7.45669 15.3713 8.00107 15.6165 8.56988 15.7901C9.2167 15.9966 9.89093 16.1044 10.5699 16.11C11.249 16.1059 11.9234 15.9981 12.5699 15.7901C13.1417 15.616 13.6893 15.3708 14.1999 15.0601L15.1999 14.4101L15.4799 14.24C15.8671 14.2414 16.2505 14.3161 16.6099 14.46C16.9554 14.5847 17.2719 14.7788 17.5399 15.0301C17.8198 15.3021 18.056 15.6157 18.2399 15.96C18.4573 16.3337 18.6349 16.7293 18.7699 17.14C18.9066 17.5899 19.0168 18.0473 19.0999 18.51C19.185 18.9731 19.245 19.4405 19.2799 19.9101C19.2799 20.3401 19.3299 20.79 19.3299 21.25C19.3636 21.6109 19.3224 21.9748 19.2088 22.319C19.0953 22.6632 18.9118 22.9801 18.6699 23.25Z" fill="#666666"/>
</svg>
