<svg width="17" height="21" viewBox="0 0 17 21" fill="none" xmlns="http://www.w3.org/2000/svg">
<path d="M8.4 9.8C9.8 9.8 10.9 9.3 11.9 8.4C12.9 7.4 13.3 6.3 13.3 4.9C13.3 3.5 12.8 2.4 11.9 1.4C10.9 0.4 9.8 0 8.4 0C7 0 5.9 0.5 4.9 1.4C3.9 2.4 3.5 3.5 3.5 4.9C3.5 6.3 4 7.4 4.9 8.4C5.9 9.3 7 9.8 8.4 9.8ZM5.8 2.3C6.5 1.6 7.4 1.2 8.4 1.2C9.4 1.2 10.3 1.6 11 2.3C11.7 3 12.1 3.9 12.1 4.9C12.1 5.9 11.7 6.8 11 7.5C10.3 8.2 9.4 8.6 8.4 8.6C7.4 8.6 6.5 8.2 5.8 7.5C5 6.8 4.7 6 4.7 4.9C4.7 3.8 5 3 5.8 2.3Z" fill="#FF5B15"/>
<path d="M17 15.7C17 15.3 16.9 14.9 16.8 14.4C16.7 13.9 16.6 13.5 16.5 13.1C16.4 12.7 16.2 12.3 16 11.9C15.8 11.5 15.5 11.1 15.2 10.9C14.9 10.6 14.5 10.4 14 10.2C13.6 10 13.1 9.90002 12.5 9.90002C12.3 9.90002 12.1 10 11.7 10.2C11.5 10.4 11.2 10.5 10.9 10.7C10.6 10.9 10.3 11 9.8 11.2C9.4 11.3 8.9 11.4 8.5 11.4C8.1 11.4 7.6 11.4 7.2 11.2C6.8 11.1 6.4 10.9 6.1 10.7C5.8 10.5 5.5 10.3 5.3 10.2C4.9 9.90002 4.7 9.90002 4.5 9.90002C4 9.90002 3.5 10 3 10.2C2.6 10.4 2.2 10.6 1.8 10.9C1.5 11.2 1.2 11.5 1 11.9C0.8 12.3 0.6 12.7 0.5 13.1C0.4 13.5 0.3 13.9 0.2 14.4C0.1 14.9 0.1 15.3 0 15.7C0 16.1 0 16.5 0 16.9C0 18 0.3 18.8 1 19.5C1.7 20.1 2.5 20.4 3.6 20.4H13.4C14.5 20.4 15.3 20.1 16 19.5C16.7 18.9 17 18 17 16.9C17 16.5 17 16.1 17 15.7ZM15.2 18.6C14.8 19 14.2 19.2 13.4 19.2H3.6C2.8 19.2 2.3 19 1.8 18.6C1.4 18.2 1.2 17.6 1.2 16.9C1.2 16.5 1.2 16.1 1.2 15.8C1.2 15.4 1.3 15.1 1.3 14.6C1.4 14.2 1.5 13.8 1.6 13.5C1.7 13.2 1.9 12.8 2 12.5C2.2 12.2 2.4 11.9 2.6 11.7C2.8 11.5 3.1 11.3 3.4 11.2C3.7 11.1 4 11 4.3 11C4.3 11 4.4 11.1 4.5 11.1C4.7 11.3 5 11.4 5.3 11.6C5.7 11.8 6.1 12 6.6 12.2C7.2 12.4 7.7 12.5 8.3 12.5C8.9 12.5 9.4 12.4 10 12.2C10.5 12 11 11.8 11.4 11.6C11.7 11.4 12 11.2 12.2 11.1C12.3 11 12.4 11 12.4 11C12.7 11 13.1 11.1 13.3 11.2C13.6 11.3 13.9 11.5 14.1 11.7C14.3 11.9 14.5 12.2 14.7 12.5C14.9 12.8 15 13.1 15.1 13.5C15.2 13.9 15.3 14.2 15.4 14.6C15.5 15 15.5 15.4 15.5 15.8C15.5 16.2 15.5 16.5 15.5 16.9C15.8 17.6 15.6 18.2 15.2 18.6Z" fill="#FF5B15"/>
</svg>
