<svg width="182" height="144" viewBox="0 0 182 144" fill="none" xmlns="http://www.w3.org/2000/svg">
<path d="M0 0V144H182V0H0ZM179.111 141.11H2.88889V2.89012H179.111V141.11Z" fill="#BABEC1"/>
<path d="M25.1333 67.0507H26.3611V74.565H30.9833V75.6488H25.1333V67.0507Z" fill="#BABEC1"/>
<path d="M43.6222 75.143C42.9 74.7817 42.3944 74.2037 41.9611 73.5535C41.5278 72.9032 41.3833 72.1084 41.3833 71.3136C41.3833 70.5188 41.6 69.724 41.9611 69.0738C42.3222 68.4235 42.9 67.8455 43.6222 67.4842C44.3444 67.1229 45.0667 66.9062 45.9333 66.9062C46.8 66.9062 47.5944 67.1229 48.2444 67.4842C48.9667 67.8455 49.4722 68.4235 49.9055 69.0738C50.2667 69.724 50.4833 70.5188 50.4833 71.3136C50.4833 72.1084 50.2667 72.9032 49.9055 73.5535C49.5444 74.2037 48.9667 74.7095 48.2444 75.143C47.5222 75.5043 46.8 75.721 45.9333 75.721C45.0667 75.721 44.3444 75.5043 43.6222 75.143ZM47.6667 74.2037C48.1722 73.9147 48.5333 73.5535 48.8222 73.0477C49.1111 72.5419 49.2555 71.9639 49.2555 71.3859C49.2555 70.8078 49.1111 70.2298 48.8222 69.7241C48.5333 69.2183 48.1 68.857 47.6667 68.568C47.2333 68.279 46.5833 68.1345 45.9333 68.1345C45.2833 68.1345 44.7056 68.279 44.2 68.568C43.6944 68.857 43.2611 69.2183 42.9722 69.7241C42.6833 70.2298 42.5389 70.8078 42.5389 71.3859C42.5389 71.9639 42.6833 72.5419 42.9722 73.0477C43.2611 73.5535 43.6944 73.9147 44.2 74.2037C44.7056 74.4927 45.2833 74.6372 45.9333 74.6372C46.5833 74.6372 47.1611 74.4927 47.6667 74.2037Z" fill="#BABEC1"/>
<path d="M67.6 73.4812H63.05L62.1111 75.6488H60.8111L64.7111 67.0507H65.9389L69.8389 75.6488H68.5389L67.6 73.4812ZM67.1667 72.4697L65.2889 68.279L63.4111 72.4697H67.1667Z" fill="#BABEC1"/>
<path d="M80.8889 67.0507H84.5C85.4389 67.0507 86.2333 67.2674 86.8833 67.5565C87.6056 67.9177 88.1111 68.4235 88.5444 69.0738C88.9056 69.724 89.1222 70.4466 89.1222 71.3136C89.1222 72.1806 88.9056 72.9032 88.5444 73.5535C88.1833 74.2037 87.6056 74.7095 86.8833 75.0708C86.1611 75.432 85.3667 75.5765 84.5 75.5765H80.8889V67.0507ZM84.4278 74.565C85.15 74.565 85.7278 74.4205 86.2333 74.1315C86.7389 73.8425 87.1722 73.4812 87.4611 72.9754C87.75 72.4697 87.8944 71.8916 87.8944 71.3136C87.8944 70.7356 87.75 70.0853 87.4611 69.6518C87.1722 69.146 86.7389 68.7848 86.2333 68.4957C85.7278 68.2067 85.0778 68.0622 84.4278 68.0622H82.1167V74.4927H84.4278V74.565Z" fill="#BABEC1"/>
<path d="M100.894 67.0507H102.122V75.6488H100.894V67.0507Z" fill="#BABEC1"/>
<path d="M121.911 67.0507V75.6488H120.9L115.772 69.2183V75.6488H114.544V67.0507H115.556L120.683 73.4812V67.0507H121.911Z" fill="#BABEC1"/>
<path d="M140.256 71.2413H141.411V74.565C140.978 74.9262 140.472 75.2153 139.894 75.3598C139.317 75.5765 138.739 75.6488 138.161 75.6488C137.294 75.6488 136.5 75.432 135.85 75.0708C135.128 74.7095 134.622 74.1315 134.189 73.4812C133.756 72.8309 133.611 72.0361 133.611 71.2413C133.611 70.4466 133.828 69.6518 134.189 69.0015C134.55 68.3512 135.128 67.7732 135.85 67.4119C136.572 67.0507 137.367 66.8339 138.233 66.8339C138.956 66.8339 139.533 66.9784 140.111 67.1952C140.689 67.4119 141.122 67.7732 141.556 68.2067L140.761 69.0015C140.039 68.3512 139.244 67.99 138.233 67.99C137.583 67.99 137.006 68.1345 136.5 68.4235C135.994 68.7125 135.561 69.0738 135.272 69.5795C134.983 70.0853 134.839 70.6633 134.839 71.3136C134.839 71.9639 134.983 72.4696 135.272 72.9754C135.561 73.4812 135.994 73.8425 136.5 74.1315C137.006 74.4205 137.583 74.565 138.233 74.565C139.028 74.565 139.678 74.3482 140.256 73.987V71.2413V71.2413Z" fill="#BABEC1"/>
<path d="M153.256 75.432C153.111 75.2875 153.039 75.0707 153.039 74.854C153.039 74.6372 153.111 74.4205 153.256 74.276C153.4 74.1315 153.617 74.0592 153.833 74.0592C154.05 74.0592 154.267 74.1315 154.411 74.276C154.556 74.4205 154.628 74.6372 154.628 74.854C154.628 75.0707 154.556 75.2875 154.411 75.432C154.267 75.5765 154.05 75.6488 153.833 75.6488C153.617 75.721 153.4 75.5765 153.256 75.432Z" fill="#BABEC1"/>
<path d="M165.822 75.432C165.678 75.2875 165.606 75.0707 165.606 74.854C165.606 74.6372 165.678 74.4205 165.822 74.276C165.967 74.1315 166.183 74.0592 166.4 74.0592C166.617 74.0592 166.833 74.1315 166.978 74.276C167.122 74.4205 167.194 74.6372 167.194 74.854C167.194 75.0707 167.122 75.2875 166.978 75.432C166.833 75.5765 166.617 75.6488 166.4 75.6488C166.183 75.721 166.039 75.5765 165.822 75.432Z" fill="#BABEC1"/>
</svg>
