<svg width="85" height="31" viewBox="0 0 85 31" fill="none" xmlns="http://www.w3.org/2000/svg">
<path d="M39.8999 22C39.3999 22.6 38.7999 23.1 37.9999 23.3C36.0999 23.7 34.4999 22.8 33.7999 21C33.2999 19.6 33.1999 18.2 33.6999 16.8C34.6999 14 38.2999 13.7 39.7999 15.5C39.8999 15.6 39.9999 15.7 39.9999 15.8C40.0999 15.7 39.9999 15.5 40.0999 15.4C40.1999 14.8 40.5999 14.4 41.0999 14.4C41.6999 14.4 42.0999 14.7 42.0999 15.3C42.0999 15.6 42.1999 15.9 42.1999 16.3C42.1999 18.4 42.1999 20.5 42.1999 22.5C42.1999 23 42.1999 23.5 42.0999 24.1C41.7999 25.5 41.0999 26.4 39.6999 26.8C38.1999 27.1 36.7999 27.1 35.3999 26.6C34.8999 26.4 34.3999 26.1 33.9999 25.6C33.5999 25 33.5999 24.4 33.9999 24.1C34.4999 23.7 35.0999 23.8 35.5999 24.4C36.2999 25.4 37.1999 25.6 38.2999 25.4C39.3999 25.2 39.7999 24.7 39.8999 23.6C39.9999 23.1 39.8999 22.6 39.8999 22ZM35.6999 19.1C35.6999 19.2 35.6999 19.5 35.6999 19.7C35.7999 20.8 36.4999 21.6 37.4999 21.7C38.3999 21.9 39.2999 21.4 39.6999 20.4C40.1999 19.3 40.0999 18.1 39.4999 17C39.0999 16.3 38.3999 16 37.5999 16C36.7999 16 36.1999 16.5 35.8999 17.2C35.6999 17.8 35.6999 18.4 35.6999 19.1Z" fill="#262563"/>
<path d="M78 15.7C79.1 14.5 80.3 14.1 81.8 14.5C83 14.8 83.8 15.8 83.8 17.3C83.9 19 83.8 20.8 83.8 22.5C83.8 23.2 83.4 23.6 82.8 23.7C82.1 23.7 81.7 23.4 81.6 22.7C81.6 22 81.6 21.2 81.6 20.5C81.6 19.6 81.6 18.7 81.6 17.8C81.5 16.6 81.1 16.2 80.2 16.1C79.2 16.1 78.4 16.8 78.2 17.8C78 18.7 78.1 19.7 78.1 20.7C78.1 21.3 78.1 21.9 78.1 22.5C78 23.4 77.4 23.9 76.6 23.7C76.2 23.6 75.9 23.3 75.9 22.9C75.9 22.7 75.8 22.4 75.8 22.2C75.8 19.1 75.8 15.9 75.8 12.8C75.8 12.6 75.8 12.4 75.8 12.1C75.9 11.5 76.3 11.2 76.8 11.1C77.4 11.1 77.8 11.4 78 12C78.1 12.5 78 13.1 78.1 13.6C78 14.2 78 14.9 78 15.7Z" fill="#262563"/>
<path d="M46.5999 15.6C46.7999 15.6 46.8 15.4 46.9 15.4C47.9 14.5 48.9999 14.2 50.2999 14.5C51.4999 14.8 52.3 15.8 52.4 17.3C52.5 19 52.4 20.8 52.4 22.5C52.4 23.2 52 23.6 51.4 23.7C50.7 23.8 50.1999 23.4 50.0999 22.7C50.0999 22 50.0999 21.2 50.0999 20.5C50.0999 19.6 50.0999 18.8 50.0999 17.9C49.9999 16.7 49.5999 16.2 48.5999 16.2C47.5999 16.2 46.7999 16.9 46.5999 17.9C46.4999 18.8 46.5 19.8 46.5 20.7C46.5 21.3 46.5 21.9 46.5 22.5C46.5 23.4 45.8999 23.8 45.0999 23.7C44.5999 23.6 44.3 23.3 44.2 22.8C44.2 22.6 44.2 22.3 44.2 22.1C44.2 19 44.2 15.8 44.2 12.7C44.2 12.5 44.2 12.3 44.2 12C44.3 11.4 44.7 11.1 45.2 11C45.8 11 46.2 11.3 46.4 11.9C46.5 12.4 46.4 12.9 46.5 13.4C46.6 14.2 46.5999 14.9 46.5999 15.6Z" fill="#262563"/>
<path d="M70.7 23.6C67.5 23.6 65.8 21.9 65.8 19.2C65.8 17.7 66.2 16.3 67.4 15.3C69 14 71.7 14.1 73.3 15.4C73.7 15.8 74.1 16.2 74.2 16.8C74.3 17.3 74.1 17.7 73.7 17.9C73.3 18.1 72.9 18 72.5 17.6C72.3 17.3 72.1 17 71.8 16.7C70.8 15.7 69.2 15.9 68.5 17.1C67.9 18.3 67.9 19.6 68.5 20.8C69.2 22.1 71 22.2 72 21.1C72.2 20.8 72.4 20.5 72.6 20.3C72.9 19.8 73.4 19.7 73.8 19.9C74.2 20.1 74.5 20.6 74.4 21.2C74.3 21.7 74.1 22 73.7 22.4C72.7 23.3 71.5 23.6 70.7 23.6Z" fill="#252462"/>
<path d="M56.7 15.7C56.8 15.5 56.9 15.4 56.9 15.3C57.7 14.2 59.2 14 60.3 14.8C60.7 15.1 60.8 15.6 60.6 16C60.4 16.4 60 16.6 59.5 16.5C59.3 16.4 59 16.4 58.8 16.3C57.9 16.1 57.4 16.4 57.1 17.3C56.8 18.1 56.8 19 56.8 19.8C56.8 20.7 56.8 21.6 56.8 22.5C56.8 23.3 56.3 23.7 55.6 23.7C55 23.7 54.6 23.2 54.6 22.5C54.6 21.5 54.6 20.6 54.6 19.6C54.6 18.4 54.6 17.2 54.6 16C54.6 15.8 54.6 15.6 54.7 15.3C54.8 14.6 55.2 14.3 55.8 14.4C56.4 14.4 56.7 14.7 56.8 15.4C56.7 15.4 56.7 15.5 56.7 15.7Z" fill="#242362"/>
<path d="M31.8 19C31.8 20 31.8 21 31.8 22C31.8 22.3 31.8 22.6 31.7 22.9C31.5 23.4 31.1 23.7 30.6 23.7C30.1 23.7 29.8 23.4 29.6 22.9C29.5 22.7 29.5 22.4 29.5 22.2C29.5 20.1 29.5 18 29.5 15.9C29.5 15.7 29.5 15.5 29.6 15.3C29.7 14.7 30.2 14.4 30.8 14.4C31.4 14.4 31.8 14.8 31.8 15.4C31.8 15.9 31.8 16.5 31.8 17C31.8 17.7 31.8 18.3 31.8 19Z" fill="#272664"/>
<path d="M64.1 19C64.1 20 64.1 21 64.1 22.1C64.1 22.4 64.1 22.7 64 23C63.8 23.5 63.4001 23.7 62.9001 23.7C62.4001 23.7 62.0001 23.4 61.9001 22.9C61.8001 22.7 61.8 22.4 61.8 22.2C61.8 20.1 61.8 17.9 61.8 15.8C61.8 15.6 61.8 15.5 61.8 15.3C61.9 14.7 62.3001 14.3 62.9001 14.3C63.5001 14.3 63.9 14.7 64 15.4C64 15.9 64 16.5 64 17C64.1 17.7 64.1 18.3 64.1 19Z" fill="#272664"/>
<path d="M50.3 27.1C50.3 27.9 50 28.6 49.3 29C48.6 29.4 47.9 29.4 47.2 28.9C46.3 28.3 46 26.9 46.6 25.8C47.1 24.9 48.2 24.5 49.2 25C50 25.5 50.2 26.2 50.3 27.1ZM49.7 27.1C49.7 26.1 49.2 25.4 48.3 25.4C47.5 25.4 47 25.8 46.8 26.6C46.6 27.7 47 28.5 47.8 28.8C48.8 29.1 49.7 28.3 49.7 27.1Z" fill="#2A2966"/>
<path d="M66.4 29.3C65.5 29.3 64.8999 28.9 64.6999 28.1C64.6999 28 64.5 27.8 64.8 27.8C64.9 27.8 65.0999 27.7 65.1999 28C65.4999 28.8 66.2999 29.1 67.0999 28.7C67.3999 28.6 67.4999 28.4 67.4999 28.1C67.4999 27.8 67.2999 27.6 66.9999 27.6C66.5999 27.5 66.0999 27.4 65.6999 27.2C64.8999 26.9 64.5999 26.3 64.9999 25.6C65.2999 25.1 65.9999 24.9 66.6999 25C67.2999 25.1 67.7 25.3 67.9 25.9C67.9 26 68 26.2 67.9 26.2C67.8 26.2 67.6 26.3 67.4 26.1C67.1 25.5 66.5 25.3 65.8 25.6C65.6 25.7 65.4 25.9 65.4 26.1C65.4 26.4 65.6 26.5 65.8 26.6C66.2 26.7 66.5 26.8 66.9 26.9C67.7 27.1 68.0999 27.6 67.9999 28.2C67.8999 28.9 67.2999 29.3 66.4999 29.3C66.4999 29.3 66.5 29.3 66.4 29.3Z" fill="#2A2966"/>
<path d="M75.7 29C75.7 29.4 75.7 29.8 75.7 30.2C75.7 30.4 75.7 30.5 75.5 30.5C75.3 30.5 75.2 30.5 75.2 30.2C75.2 29 75.2 27.8 75.2 26.6C75.2 26.5 75.1 26.2 75.4 26.2C75.6 26.2 75.8 26.2 75.7 26.7C76.2 26.2 76.6 26 77.1 26.3C77.6 26.5 77.8 27 77.9 27.5C78 28.1 77.9 28.6 77.5 29C76.9 29.4 76.4 29.4 75.7 29ZM77.3 27.7C77.3 27.6 77.3 27.5 77.3 27.4C77.2 26.9 76.9 26.6 76.5 26.6C76.1 26.6 75.8 26.9 75.7 27.3C75.6 27.6 75.6 27.8 75.7 28.1C75.8 28.6 76.1 28.8 76.5 28.8C76.9 28.8 77.2 28.5 77.3 28C77.3 27.9 77.3 27.8 77.3 27.7Z" fill="#272664"/>
<path d="M78.9 29C78.9 29.4 78.9 29.8 78.9 30.2C78.9 30.4 78.9 30.5 78.7 30.5C78.5 30.5 78.4 30.5 78.4 30.2C78.4 29 78.4 27.8 78.4 26.6C78.4 26.5 78.3 26.2 78.6 26.2C78.8 26.2 79 26.2 78.9 26.7C79.4 26.2 79.8 26 80.3 26.3C80.8 26.5 81 27 81.1 27.5C81.2 28.1 81.1 28.6 80.7 29C80.1 29.4 79.6 29.4 78.9 29ZM80.5 27.7C80.5 27.6 80.5 27.5 80.5 27.4C80.4 26.9 80.1 26.6 79.7 26.6C79.3 26.6 79 26.9 78.9 27.3C78.8 27.6 78.8 27.8 78.9 28.1C79 28.6 79.3 28.8 79.7 28.8C80.1 28.8 80.4 28.5 80.5 28C80.5 27.9 80.5 27.8 80.5 27.7Z" fill="#272664"/>
<path d="M61.3 27.8C61 27.8 60.7 27.8 60.5 27.8C60.3 27.8 60.2 27.8 60.3 28.1C60.4 28.4 60.6 28.7 61 28.8C61.4 28.9 61.7 28.8 61.9 28.5C62.1 28.2 62.3 28.3 62.5 28.4C62.6 28.5 62.5 28.7 62.4 28.8C62.1 29.3 61.6 29.4 61 29.3C60.5 29.2 60.1 29 59.9 28.4C59.7 28 59.7 27.5 59.9 27.1C60.1 26.4 60.8 26 61.5 26.1C62.2 26.2 62.7 26.9 62.6 27.6C62.6 27.8 62.5 27.8 62.4 27.8C62 27.8 61.7 27.8 61.3 27.8ZM61.9 27.3C61.8 26.8 61.6 26.6 61.1 26.6C60.6 26.6 60.3 26.8 60.3 27.3C60.8 27.3 61.4 27.3 61.9 27.3Z" fill="#272664"/>
<path d="M82 27.8C82 28.3 82.2 28.6 82.6 28.7C83 28.8 83.4 28.8 83.6 28.4C83.8 28.2 84 28.3 84.1 28.4C84.3 28.5 84.1 28.7 84 28.8C83.7 29.3 83.2 29.4 82.6 29.3C82.1 29.2 81.6 29 81.5 28.4C81.3 27.9 81.3 27.5 81.5 27C81.7 26.3 82.4 25.9 83.1 26.1C83.8 26.2 84.3 26.9 84.2 27.6C84.2 27.8 84.1 27.8 83.9 27.8C83.3 27.8 82.7 27.8 82 27.8ZM82.9 27.3C83.1 27.3 83.3 27.3 83.5 27.3C83.8 27.3 83.8 27.2 83.7 27C83.6 26.7 83.3 26.6 83.1 26.5C82.8 26.5 82.5 26.6 82.3 26.8C82.2 26.9 82.1 27 82.2 27.2C82.2 27.3 82.4 27.2 82.5 27.2C82.5 27.3 82.7 27.3 82.9 27.3Z" fill="#272664"/>
<path d="M69.2 26.5C69.5 26.2 69.9 26 70.2 26.1C70.7 26.1 71 26.4 71.1 27C71.2 27.7 71.1 28.4 71.1 29.1C71.1 29.3 71 29.3 70.8 29.3C70.6 29.3 70.5 29.3 70.5 29C70.5 28.5 70.5 27.9 70.5 27.4C70.5 26.8 70.3 26.6 69.9 26.6C69.4 26.6 69.1 26.9 69.1 27.4C69.1 27.9 69.1 28.5 69.1 29C69.1 29.2 69.1 29.3 68.9 29.3C68.7 29.3 68.6 29.3 68.6 29C68.6 27.8 68.6 26.5 68.6 25.3C68.6 25.1 68.7 25.1 68.9 25.1C69.1 25.1 69.2 25.1 69.2 25.3C69.2 25.6 69.2 26 69.2 26.5Z" fill="#2A2966"/>
<path d="M74.6 27.7C74.6 28.6 74.2 29.1 73.5 29.3C72.7 29.5 71.9 29 71.8 28.2C71.7 27.3 71.9 26.6 72.4 26.3C72.9 26 73.4 26 73.9 26.3C74.4 26.5 74.6 27.1 74.6 27.7ZM72.3 27.7C72.3 28.3 72.6 28.8 73 28.8C73.4 28.9 73.7 28.7 73.9 28.4C74.2 27.9 74.2 27.4 73.9 26.9C73.7 26.6 73.4 26.5 73 26.5C72.5 26.7 72.3 27 72.3 27.7Z" fill="#2A2966"/>
<path d="M56.6 27.6C56.6 27.2 56.6 26.8 56.6 26.4C56.6 26.3 56.5 26.2 56.7 26.2C56.8 26.2 57 26.1 57 26.3C57.1 26.6 57.2 26.5 57.3 26.4C57.7 26.1 58.1 26.1 58.6 26.3C59 26.5 59.1 26.9 59.1 27.3C59.1 27.9 59.1 28.5 59.1 29.1C59.1 29.3 59 29.3 58.8 29.3C58.6 29.3 58.5 29.3 58.5 29.1C58.5 28.5 58.5 28 58.5 27.4C58.5 26.9 58.3 26.7 57.9 26.6C57.4 26.6 57.1 26.8 57.1 27.3C57.1 27.8 57.1 28.3 57.1 28.8C57.1 29 57.2 29.2 56.8 29.2C56.5 29.2 56.5 29 56.5 28.8C56.6 28.5 56.6 28 56.6 27.6Z" fill="#2A2966"/>
<path d="M51.4 26.5C51.8 26.1 52.3 26 52.8 26.2C53.1 26.3 53.3 26.5 53.4 26.9C53.5 27.6 53.4 28.4 53.4 29.1C53.4 29.3 53.2 29.3 53.1 29.3C52.9 29.3 52.8 29.3 52.8 29.1C52.8 28.5 52.8 28 52.8 27.4C52.8 26.9 52.6 26.6 52.2 26.6C51.7 26.6 51.4 26.9 51.4 27.3C51.4 27.8 51.4 28.3 51.4 28.8C51.4 29 51.5 29.2 51.2 29.2C50.8 29.2 50.9 29 50.9 28.8C50.9 28 50.9 27.3 50.9 26.5C50.9 26.4 50.8 26.2 51 26.1C51.3 26.1 51.4 26.2 51.4 26.5Z" fill="#2A2966"/>
<path d="M30.7 13.3C30 13.3 29.5 12.9 29.5 12.2C29.5 11.6 30 11.1 30.6 11.1C31.3 11.1 31.8 11.5 31.8 12.2C31.8 12.8 31.3 13.3 30.7 13.3Z" fill="#272664"/>
<path d="M62.9 13.3C62.2 13.3 61.7 12.8 61.8 12.2C61.8 11.6 62.3 11.1 63 11.1C63.7 11.1 64.1 11.5 64.1 12.2C64.1 12.8 63.6 13.3 62.9 13.3Z" fill="#272664"/>
<path d="M54.1 27.1C54.1 26.5 54.1 25.9 54.1 25.3C54.1 25.1 54.1 25 54.4 25C54.6 25 54.7 25.1 54.7 25.3C54.7 26.5 54.7 27.8 54.7 29C54.7 29.2 54.6 29.3 54.4 29.3C54.2 29.3 54.1 29.2 54.1 29C54.1 28.3 54.1 27.7 54.1 27.1Z" fill="#2A2966"/>
<path d="M55.9001 27.7C55.9001 28.1 55.9001 28.6 55.9001 29C55.9001 29.2 55.8 29.3 55.6 29.3C55.4 29.3 55.3 29.3 55.3 29.1C55.3 28.2 55.3 27.4 55.3 26.5C55.3 26.3 55.4 26.3 55.6 26.3C55.8 26.3 55.8 26.3 55.8 26.5C55.9 26.8 55.9001 27.3 55.9001 27.7Z" fill="#242362"/>
<path d="M55.7 25C55.9 25 56 25 56 25.2C56 25.4 56 25.5 55.8 25.5C55.6 25.5 55.5 25.5 55.5 25.2C55.4 25 55.5 25 55.7 25Z" fill="#242362"/>
<path d="M6.2 3.2C6 2.8 5.7 2.7 5.4 2.7C4.6 2.7 3.8 2.7 3 2.7C2.5 2.7 2 2.7 1.6 2.7C1 2.7 0.6 2.4 0.5 1.8C0.3 1.3 0.2 0.8 0 0.3C0 0 0 0 0.2 0C1.8 0 3.3 0 4.9 0C5.5 0 5.9 0.4 6 1C6.8 4.3 7.6 7.6 8.4 11C8.8 12.8 9.3 14.7 9.7 16.5C9.8 16.8 9.9 16.8 10.2 16.8C14.5 16.8 18.9 16.8 23.2 16.8C23.5 16.8 23.7 16.7 23.8 16.3C24 15.4 24.2 14.5 24.4 13.6C24.5 13.2 24.4 13.1 23.9 13C23.4 13 23.3 12.9 23.4 12.4C23.4 12.3 23.4 12.3 23.5 12.2C23.6 11.9 23.5 11.4 23.8 11.2C24.1 11 24.5 11.1 24.8 11.1C25.6 11.1 26.4 11.1 27.2 11.1C27.7 11.1 27.8 11.3 27.7 11.7C26.8 15.5 25.9 19.2 25.1 23C24.9 23.9 24.6 24.1 23.7 24.1C23 24.1 22.2 24.1 21.5 24.1C21.2 24.1 21.1 24.1 21.2 23.7C21.4 23.2 21.5 22.6 21.6 22.1C21.7 21.9 21.7 21.8 22 21.8C22.3 21.8 22.5 21.7 22.6 21.3C22.8 20.5 22.9 19.8 23.1 19.1C23.2 18.8 23.1 18.6 22.7 18.6C18.7 18.6 14.7 18.6 10.7 18.6C10.4 18.6 10.3 18.7 10.3 19.1C10.5 19.8 10.7 20.6 10.8 21.3C10.9 21.7 11.1 21.9 11.5 21.8C11.8 21.8 11.9 21.9 11.9 22.1C12 22.6 12.1 23.2 12.2 23.7C12.3 23.9 12.2 24.1 11.9 24C11.1 24 10.4 24 9.6 24C8.9 24 8.6 23.7 8.4 23C6.7 16.3 5.1 9.6 3.4 3C3.5 3 3.5 2.9 3.9 2.9C4.4 2.9 4.9 2.9 5.4 2.9C5.7 2.9 5.9 3 6.2 3.2Z" fill="#F37B23"/>
<path d="M24.6 26.3C24.6 27.3 23.8 28.1 22.8 28.1C21.9 28.1 21 27.3 21 26.3C21 25.3 21.8 24.5 22.8 24.5C23.8 24.5 24.6 25.3 24.6 26.3Z" fill="#F37B23"/>
<path d="M12.5 26.3C12.5 27.3 11.7 28.1 10.7 28.1C9.80002 28.1 8.90002 27.3 8.90002 26.3C8.90002 25.3 9.70002 24.5 10.7 24.5C11.7 24.5 12.5 25.3 12.5 26.3Z" fill="#F37B23"/>
<path d="M6.09995 26.6C6.79995 26.6 7.39995 26.6 8.09995 26.6C8.29995 26.6 8.49995 26.6 8.49995 26.8C8.49995 27.1 8.29995 27 8.09995 27C6.79995 27 5.39995 27 4.09995 27C3.89995 27 3.69995 27 3.69995 26.8C3.69995 26.5 3.89995 26.6 4.09995 26.6C4.69995 26.6 5.39995 26.6 6.09995 26.6Z" fill="#F37B23"/>
<path d="M6.90001 26.3C6.50001 26.3 6.10001 26.3 5.70001 26.3C5.50001 26.3 5.30001 26.3 5.40001 26.1C5.40001 25.9 5.60001 25.9 5.70001 25.9C6.50001 25.9 7.30001 25.9 8.10001 25.9C8.30001 25.9 8.50001 25.9 8.40001 26.1C8.40001 26.3 8.20001 26.3 8.10001 26.3C7.60001 26.3 7.30001 26.3 6.90001 26.3Z" fill="#F37B23"/>
<path d="M16.6 9C16.6 9.1 16.5 9.2 16.4 9.2H14.1C14 9.2 13.9 9.1 13.9 9V8.1C14.1 8 14.1 8 14.2 8H16.5C16.6 8 16.7 8.1 16.7 8.2V9H16.6Z" fill="#F37B23"/>
<path d="M19.6 9C19.6 9.1 19.5 9.2 19.4 9.2H17.1C17 9.2 16.9 9.1 16.9 9V8.1C17.1 8 17.1 8 17.2 8H19.5C19.6 8 19.7 8.1 19.7 8.2V9H19.6Z" fill="#F37B23"/>
<path d="M18.9 7C18.9 6.9 18.8 6.8 18.8 6.8C18.7 6.7 18.7 6.7 18.6 6.6C18.5 6.6 18.5 6.5 18.4 6.5C18.3 6.5 18.3 6.5 18.2 6.5C18 6.5 17.9 6.6 17.8 6.7C17.7 6.8 17.6 6.9 17.5 7C17.4 7.1 17.3 7.2 17.3 7.3C17.2 7.4 17.2 7.4 17.1 7.5L17 7.6C17 7.6 17 7.6 16.9 7.5L16.5 8H18.2C18.6 8 19 7.7 19 7.2C18.9 7.1 18.9 7 18.9 7ZM18.1 7.7H17.2C17.3 7.6 17.4 7.5 17.4 7.4C17.6 7.2 17.8 7 18 6.9C18.1 6.8 18.3 6.9 18.4 6.9L18.5 7L18.6 7.1C18.6 7.2 18.6 7.2 18.6 7.2C18.6 7.5 18.4 7.7 18.1 7.7Z" fill="#F37B23"/>
<path d="M15 7.20002C15 7.60002 15.3 8.00002 15.8 8.00002H17.5L17.1 7.40002L17 7.50002L16.9 7.40002C16.8 7.30002 16.8 7.20002 16.7 7.20002C16.6 7.10002 16.5 7.00002 16.5 6.90002C16.4 6.80002 16.3 6.70002 16.2 6.60002C16.1 6.50002 15.9 6.40002 15.8 6.40002C15.7 6.40002 15.7 6.40002 15.6 6.40002C15.5 6.40002 15.4 6.40002 15.4 6.50002C15.3 6.50002 15.3 6.60002 15.2 6.70002C15.1 6.80002 15.1 6.90002 15 7.00002C15 7.00002 15 7.10002 15 7.20002ZM15.3 7.30002C15.3 7.20002 15.3 7.20002 15.3 7.20002C15.3 7.10002 15.3 7.10002 15.4 7.10002L15.5 7.00002C15.6 6.90002 15.8 6.90002 15.9 7.00002C16.1 7.10002 16.3 7.30002 16.4 7.50002C16.5 7.60002 16.6 7.70002 16.6 7.80002H15.7C15.6 7.70002 15.3 7.50002 15.3 7.30002Z" fill="#F37B23"/>
<path d="M16.5 9.30005H14.5C14.4 9.30005 14.3 9.40005 14.3 9.50005V11.9C14.3 12 14.4 12.1 14.5 12.1H16.5C16.6 12.1 16.7 12 16.7 11.9V9.50005C16.6 9.40005 16.6 9.30005 16.5 9.30005ZM15.5 11.4C15.2 11.4 14.9 11.1 14.9 10.8C14.9 10.5 15.2 10.2 15.5 10.2C15.8 10.2 16.1 10.5 16.1 10.8C16.1 11.1 15.8 11.4 15.5 11.4Z" fill="#F37B23"/>
<path d="M19.2 9.30005H17.2C17.1 9.30005 17 9.40005 17 9.50005V11.9C17 12 17.1 12.1 17.2 12.1H19.2C19.3 12.1 19.4 12 19.4 11.9V9.50005C19.4 9.40005 19.3 9.30005 19.2 9.30005ZM18.2 11.4C17.9 11.4 17.6 11.1 17.6 10.8C17.6 10.5 17.9 10.2 18.2 10.2C18.5 10.2 18.8 10.5 18.8 10.8C18.8 11.1 18.6 11.4 18.2 11.4Z" fill="#F37B23"/>
<path d="M16.7 13.9C16.7 13.9 16.7 14 16.7 13.9L15.6 14C15.6 14 15.5 14 15.5 13.9V13.4C15.5 13.4 15.5 13.3 15.6 13.3H16.7C16.7 13.3 16.8 13.3 16.8 13.4V13.9H16.7Z" fill="#F37B23"/>
<path d="M18.2 13.9C18.2 13.9 18.2 14 18.2 13.9L17.1 14C17.1 14 17 14 17 13.9V13.4C17 13.4 17 13.3 17.1 13.3H18.2C18.2 13.3 18.3 13.3 18.3 13.4V13.9H18.2Z" fill="#F37B23"/>
<path d="M17.9 12.9C17.9 12.9 17.9 12.8 17.8 12.8L17.7001 12.7H17.6H17.5C17.4 12.7 17.3 12.7 17.3 12.8L17.2001 12.9L17.1 13L17 13.1C17 13.1 17 13.1 17 13.2C17 13.2 17 13.2 17 13.1L16.8 13.4H17.6C17.7 13.3 17.9 13.2 17.9 12.9ZM17.5 13.2H17.1C17.1 13.2 17.2001 13.1 17.2001 13C17.3001 12.9 17.3 12.8 17.5 12.7C17.6 12.7 17.6001 12.7 17.7001 12.7C17.7001 12.7 17.7 12.7 17.8 12.8C17.8 12.8 17.8 12.8 17.8 12.9C17.8 12.9 17.8 12.9 17.8 13C17.7 13.1 17.6 13.2 17.5 13.2Z" fill="#F37B23"/>
<path d="M15.9 13C15.9 13.2 16.1 13.4 16.3 13.4H17.1L17 13.1V13.2L16.9 13.1L16.8 13L16.7 12.9C16.6 12.8 16.6 12.8 16.5 12.8H16.4H16.3L16.2 12.9L16.1 13C15.9 12.9 15.9 12.9 15.9 13ZM16.1 13C16.1 12.9 16.1 12.9 16.2 12.9C16.2 12.9 16.2 12.9 16.3 12.8C16.4 12.8 16.4 12.8 16.5 12.8C16.6 12.9 16.7 13 16.8 13.1C16.8 13.2 16.9 13.3 16.9 13.3H16.5C16.2 13.2 16.1 13.1 16.1 13Z" fill="#F37B23"/>
<path d="M16.7 14.1L15.6 14C15.6 14 15.5 14 15.5 14.1V15.3C15.5 15.3 15.5 15.4 15.6 15.4H16.6C16.6 15.4 16.7 15.4 16.7 15.3V14.1ZM16.2 15.1C16 15.1 15.9 15 15.9 14.8C15.9 14.6 16 14.5 16.2 14.5C16.4 14.5 16.5 14.6 16.5 14.8C16.5 15 16.3 15.1 16.2 15.1Z" fill="#F37B23"/>
<path d="M18.1 14.1L17 14C17 14 16.9 14 16.9 14.1V15.3C16.9 15.3 16.9 15.4 17 15.4H18C18 15.4 18.1 15.4 18.1 15.3V14.1ZM17.5 15.1C17.3 15.1 17.2 15 17.2 14.8C17.2 14.6 17.3 14.5 17.5 14.5C17.7 14.5 17.8 14.6 17.8 14.8C17.9 15 17.7 15.1 17.5 15.1Z" fill="#F37B23"/>
<path d="M12.1 14.3L11.1 14.7C11.1 14.7 11 14.7 11 14.6L10.9 14.2C10.9 14.2 10.9 14.1 11 14.1L11.9 13.8C11.9 13.8 12 13.8 12 13.9L12.1 14.3Z" fill="#F37B23"/>
<path d="M13.4001 13.9L12.4001 14.3C12.4001 14.3 12.3001 14.3 12.3001 14.2L12.2001 13.8C12.2001 13.8 12.2001 13.7 12.3001 13.7L13.2001 13.4C13.2001 13.4 13.3001 13.4 13.3001 13.5L13.4001 13.9Z" fill="#F37B23"/>
<path d="M12.8 13.1C12.8 13 12.8 13 12.8 13.1C12.7 13 12.7 13 12.6 13H12.5H12.4C12.3 13 12.3 13.1 12.2 13.1L12.1 13.2C12.1 13.3 12.1 13.3 12 13.4C12 13.4 12 13.5 11.9 13.5C11.9 13.5 11.9 13.5 11.9 13.6C11.9 13.6 11.9 13.6 11.8 13.6L11.7 13.9L12.4 13.7C12.8 13.5 12.9 13.3 12.8 13.1ZM12.6 13.5L12.2 13.6C12.2 13.6 12.2 13.5 12.3 13.4C12.3 13.3 12.4 13.2 12.5 13.1C12.5 13.1 12.6 13 12.7 13.1C12.7 13.1 12.7 13.1 12.8 13.1C12.8 13.1 12.8 13.1 12.9 13.1C12.8 13.3 12.7 13.4 12.6 13.5Z" fill="#F37B23"/>
<path d="M11.1 13.7C11.2 13.9 11.3 14 11.5 13.9L12.2 13.7L12 13.5V13.6C12 13.6 11.9 13.6 11.9 13.5L11.8 13.4L11.7 13.3C11.6 13.3 11.6 13.3 11.5 13.3H11.4C11.4 13.3 11.3 13.3 11.3 13.4C11.3 13.4 11.3 13.5 11.2 13.5V13.6C11.1 13.6 11.1 13.6 11.1 13.7ZM11.3 13.7C11.3 13.6 11.3 13.6 11.3 13.7C11.3 13.6 11.3 13.6 11.3 13.6C11.3 13.6 11.3 13.6 11.3 13.5C11.3 13.5 11.4 13.4 11.5 13.4C11.6 13.4 11.7 13.5 11.8 13.6L11.9 13.7L11.5 13.8C11.4 13.8 11.3 13.8 11.3 13.7Z" fill="#F37B23"/>
<path d="M12.1 14.5C12.1 14.4 12.1 14.4 12.1 14.5L11.1 14.7L11 14.8L11.3 15.8L11.4 15.9L12.3 15.6L12.4 15.5L12.1 14.5ZM11.9 15.5C11.8 15.5 11.6 15.5 11.5 15.3C11.5 15.2 11.5 15 11.7 14.9C11.8 14.9 12 14.9 12.1 15.1C12.2 15.3 12.1 15.4 11.9 15.5Z" fill="#F37B23"/>
<path d="M13.4 14.1C13.4 14.1 13.3 14 13.4 14.1L12.4 14.3L12.3 14.4L12.6 15.4L12.7 15.5L13.6 15.2L13.7 15.1L13.4 14.1ZM13.1 15.1C13 15.1 12.8 15.1 12.7 14.9C12.7 14.8 12.7 14.6 12.9 14.5C13 14.5 13.2 14.5 13.3 14.7C13.3 14.9 13.3 15.1 13.1 15.1Z" fill="#F37B23"/>
<path d="M21.6 14.3L22.6 14.7C22.6 14.7 22.7 14.7 22.7 14.6L22.8 14.2C22.8 14.2 22.8 14.1 22.7 14.1L21.8 13.8C21.8 13.8 21.7 13.8 21.7 13.9L21.6 14.3Z" fill="#F37B23"/>
<path d="M20.3 13.9L21.3 14.3C21.3 14.3 21.4 14.3 21.4 14.2L21.5 13.8C21.5 13.8 21.5 13.7 21.4 13.7L20.5 13.4C20.5 13.4 20.4 13.4 20.4 13.5L20.3 13.9Z" fill="#F37B23"/>
<path d="M20.7999 13.1C20.6999 13.3 20.9 13.4 21 13.5L21.7 13.7L21.6 13.4H21.5C21.5 13.4 21.5 13.4 21.5 13.3C21.5 13.3 21.5 13.2 21.4 13.2C21.4 13.1 21.3999 13.1 21.2999 13L21.2 12.9C21.2 12.8 21.1 12.8 21 12.8H20.9H20.7999H20.7C20.9 13 20.8999 13 20.7999 13.1ZM20.9 13.2C21 13.1 21 13.1 20.9 13.2C21 13.1 21 13.1 21 13.1C21.1 13.1 21.1 13.1 21.2 13.1C21.3 13.2 21.3 13.3 21.4 13.4C21.4 13.5 21.4 13.6 21.5 13.6L21.1 13.5C21 13.4 20.9 13.3 20.9 13.2Z" fill="#F37B23"/>
<path d="M22.5 13.6C22.5 13.5 22.5 13.5 22.5 13.6C22.5 13.5 22.4 13.4 22.4 13.4L22.3 13.3C22.3 13.3 22.3 13.3 22.2 13.3C22.1 13.3 22.1 13.3 22 13.3C21.9 13.3 21.9 13.3 21.9 13.4L21.8 13.5C21.8 13.5 21.7 13.5 21.7 13.6C21.7 13.6 21.7 13.6 21.7 13.5L21.5 13.7L22.2 13.9C22.4 14 22.6 13.9 22.6 13.7C22.5 13.6 22.5 13.6 22.5 13.6ZM22.1 13.8L21.7 13.7L21.8 13.6C21.9 13.5 22 13.5 22.1 13.4C22.2 13.4 22.2 13.4 22.3 13.5C22.3 13.5 22.3 13.5 22.3 13.6C22.3 13.6 22.3 13.6 22.3 13.7C22.3 13.7 22.3 13.7 22.3 13.8C22.3 13.8 22.2 13.8 22.1 13.8Z" fill="#F37B23"/>
<path d="M21.2 15.5C21.2 15.5 21.2 15.6 21.2 15.5L22.1 15.9C22.1 15.9 22.2 15.9 22.2 15.8L22.5 14.8C22.5 14.8 22.5 14.7 22.4 14.7L21.5 14.4C21.5 14.4 21.4 14.4 21.4 14.5L21.2 15.5ZM21.5 15.1C21.5 15 21.7 14.9 21.9 14.9C22 14.9 22.1 15.1 22.1 15.3C22.1 15.4 21.9 15.5 21.7 15.5C21.6 15.4 21.5 15.3 21.5 15.1Z" fill="#F37B23"/>
<path d="M20 15.1001C20 15.1001 20 15.2001 20 15.1001L20.9 15.5001C20.9 15.5001 21 15.5001 21 15.4001L21.3 14.4001C21.3 14.4001 21.3 14.3001 21.2 14.3001L20.4 14.0001C20.4 14.0001 20.3 14.0001 20.3 14.1001L20 15.1001ZM20.3 14.7001C20.3 14.6001 20.5 14.5001 20.7 14.5001C20.8 14.5001 20.9 14.7001 20.9 14.9001C20.9 15.0001 20.7 15.1001 20.5 15.1001C20.4 15.1001 20.3 14.9001 20.3 14.7001Z" fill="#F37B23"/>
<path d="M21.2001 10.8001C21.2001 10.8001 21.1001 10.9001 21.2001 10.8001L20.3 10.4001V10.3001L20.4 10.0001H20.5L21.3 10.4001V10.5001L21.2001 10.8001Z" fill="#F37B23"/>
<path d="M22.1001 11.3001L21.2001 10.9001V10.8001L21.3001 10.5001H21.4001L22.2001 10.9001V11.0001L22.1001 11.3001Z" fill="#F37B23"/>
<path d="M22.2001 10.5C22.2001 10.5 22.2001 10.4 22.2001 10.5C22.2001 10.4 22.2001 10.3 22.2001 10.3C22.2001 10.3 22.2 10.2 22.1 10.2C22.1 10.2 22.1 10.2 22 10.2C21.9 10.2 21.9 10.2 21.8 10.2H21.7001H21.6H21.5L21.3 10.3L21.9 10.6C22 10.7 22.2 10.6 22.3 10.5C22.2 10.6 22.2001 10.5 22.2001 10.5ZM21.8 10.7L21.5 10.6C21.6 10.5 21.6 10.5 21.6 10.5C21.7 10.5 21.8 10.4 21.9 10.4C21.9 10.4 22 10.4 22 10.5C22 10.5 22 10.5 22 10.6C22 10.6 22 10.6 22 10.7C22 10.7 22 10.7 22 10.8C22 10.7 21.9 10.7 21.8 10.7Z" fill="#F37B23"/>
<path d="M20.9001 10C20.8001 10.1 20.9001 10.3 21.0001 10.4L21.6001 10.7V10.4C21.6001 10.4 21.6001 10.4 21.6001 10.3V10.2V10.1V10C21.6001 9.90004 21.5001 9.90004 21.5001 9.90004C21.5001 9.90004 21.5001 9.90004 21.4001 9.90004H21.3001H21.2001C21.0001 9.80004 21.0001 9.80004 20.9001 10C20.9001 9.90004 20.9001 9.90004 20.9001 10ZM21.0001 10C21.1001 10 21.1001 10 21.0001 10C21.1001 9.90004 21.1001 9.90004 21.1001 9.90004C21.1001 9.90004 21.2001 9.90004 21.2001 10C21.3001 10.1 21.3001 10.2 21.3001 10.3C21.3001 10.3 21.3001 10.4 21.3001 10.5L21.0001 10.4C21.0001 10.2 21.0001 10.1 21.0001 10Z" fill="#F37B23"/>
<path d="M21.1 11C21.1 11 21.1 10.9 21.1 11L20.4 10.6H20.3L19.9 11.4V11.5L20.6 11.8H20.7L21.1 11ZM20.4 11.4C20.3 11.3 20.2 11.2 20.3 11.1C20.4 11 20.5 10.9 20.6 11C20.7 11.1 20.8 11.2 20.7 11.3C20.6 11.4 20.5 11.5 20.4 11.4Z" fill="#F37B23"/>
<path d="M22 11.4001L21.3 11.0001H21.2001L20.8 11.8001V11.9001L21.5 12.2001H21.6L22 11.4001ZM21.3 11.9001C21.2 11.8001 21.1001 11.7001 21.2001 11.6001C21.3001 11.5001 21.4 11.4001 21.5 11.5001C21.6 11.6001 21.7 11.7001 21.6 11.8001C21.5 11.9001 21.4 11.9001 21.3 11.9001Z" fill="#F37B23"/>
<path d="M12.5 10.8001C12.5 10.8001 12.5 10.9001 12.5 10.8001L13.4 10.4001V10.3001L13.3 10.0001H13.2L12.4 10.4001V10.5001L12.5 10.8001Z" fill="#F37B23"/>
<path d="M11.5 11.3001C11.5 11.3001 11.6 11.3001 11.5 11.3001L12.4 10.9001V10.8001L12.3 10.5001H12.2L11.4 11.0001V11.1001L11.5 11.3001Z" fill="#F37B23"/>
<path d="M11.5 10.6C11.6 10.7 11.7 10.8 11.9 10.7L12.5 10.4L12.3 10.3H12.2H12.1H12C11.9 10.3 11.9 10.3 11.8 10.3C11.8 10.3 11.8 10.3 11.7 10.3C11.7 10.3 11.7 10.3 11.6 10.4V10.5V10.6C11.4 10.5 11.4 10.6 11.5 10.6ZM11.6 10.6C11.6 10.6 11.6 10.5 11.6 10.6C11.6 10.5 11.6 10.5 11.6 10.5C11.6 10.5 11.6 10.5 11.6 10.4L11.7 10.3C11.8 10.3 11.9 10.4 12 10.4C12 10.4 12.1 10.4 12.1 10.5L11.8 10.6C11.7 10.7 11.6 10.7 11.6 10.6Z" fill="#F37B23"/>
<path d="M12.7 9.90005C12.7 9.80005 12.6 9.80005 12.7 9.90005C12.6 9.80005 12.6 9.80005 12.5 9.80005H12.4C12.4 9.80005 12.4 9.80005 12.3 9.80005C12.2 9.80005 12.2 9.90005 12.2 9.90005V10V10.1V10.2C12.2 10.2 12.2 10.2 12.2 10.3V10.6L12.8 10.3C12.8 10.3 12.8 10.1 12.7 9.90005ZM12.6 10.3L12.3 10.4C12.3 10.3 12.3 10.3 12.3 10.2C12.3 10.1 12.3 10 12.4 9.90005L12.5 9.80005C12.5 9.80005 12.5 9.80005 12.6 9.80005C12.6 9.80005 12.6 9.80005 12.7 9.80005C12.7 10.1 12.7 10.2 12.6 10.3Z" fill="#F37B23"/>
<path d="M13 11.8L13.8 11.5V11.4L13.4 10.6H13.3L12.6 10.9V11L13 11.8ZM13 11.3C12.9 11.2 13 11 13.1 11C13.2 10.9 13.4 11 13.4 11.1C13.5 11.2 13.4 11.3 13.3 11.4C13.2 11.5 13 11.4 13 11.3Z" fill="#F37B23"/>
<path d="M12.1001 12.2001L12.9001 11.9001V11.8001L12.5001 11.0001H12.4001L11.7001 11.3001V11.4001L12.1001 12.2001ZM12.1001 11.8001C12.0001 11.7001 12.1001 11.6001 12.2001 11.5001C12.3001 11.4001 12.4001 11.5001 12.5001 11.6001C12.6001 11.7001 12.5001 11.8001 12.4001 11.9001C12.3001 11.9001 12.1001 11.9001 12.1001 11.8001Z" fill="#F37B23"/>
</svg>
