<svg width="105" height="107" viewBox="0 0 105 107" fill="none" xmlns="http://www.w3.org/2000/svg">
<path d="M23.57 13.12C23.4532 12.4861 23.1051 11.9183 22.5933 11.5266C22.0814 11.1348 21.4424 10.9472 20.8 11C17.8 10.93 14.73 10.94 11.7 10.92C9.88998 10.92 8.08998 10.92 6.28998 10.92C5.30155 10.9857 4.32287 10.6904 3.53571 10.089C2.74855 9.48758 2.20641 8.62094 2.00998 7.64999C1.49998 5.76999 1.10999 3.85001 0.57999 1.98001C0.33999 1.14001 0.579989 0.980011 1.35999 0.980011C7.16999 0.980011 12.99 0.980011 18.8 0.980011C21.03 0.980011 22.52 2.41001 23.08 4.73001C26.08 17.1033 29.08 29.48 32.08 41.86C33.73 48.69 35.41 55.53 37.02 62.37C37.0363 62.5701 37.0944 62.7646 37.1903 62.941C37.2863 63.1173 37.4181 63.2717 37.5772 63.3941C37.7364 63.5165 37.9193 63.6043 38.1144 63.6518C38.3095 63.6993 38.5124 63.7055 38.71 63.67C54.9233 63.67 71.1267 63.67 87.32 63.67C87.5722 63.7064 87.8291 63.6905 88.075 63.6234C88.3208 63.5563 88.5502 63.4395 88.7489 63.2801C88.9477 63.1207 89.1116 62.9222 89.2305 62.6968C89.3494 62.4714 89.4207 62.2241 89.44 61.97C90.17 58.56 90.99 55.16 91.74 51.75C92.08 50.2 91.67 49.75 90.04 49.67C88.17 49.6 87.97 49.36 88.35 47.57C88.35 47.32 88.47 47.08 88.54 46.83C88.87 45.55 88.64 43.76 89.61 43.13C90.58 42.5 92.19 42.92 93.52 42.91H102.62C104.37 42.91 104.77 43.5 104.37 45.2C101.037 59.3 97.7367 73.4 94.47 87.5C93.7 90.78 92.47 91.78 89.11 91.78C86.33 91.78 83.55 91.78 80.78 91.78C79.72 91.78 79.29 91.66 79.67 90.44C80.31 88.44 80.79 86.38 81.28 84.34C81.48 83.51 81.82 83.08 82.73 83.2C84.03 83.36 84.73 82.76 84.95 81.44C85.52 78.63 86.17 75.82 86.88 73.04C87.22 71.74 86.88 71.21 85.53 71.21C70.6233 71.21 55.7067 71.21 40.78 71.21C39.55 71.21 39.12 71.61 39.46 72.9C40.2 75.68 40.85 78.48 41.46 81.29C41.76 82.66 42.46 83.43 43.9 83.21C44.9 83.06 45.24 83.49 45.39 84.44C45.71 86.44 46.13 88.44 46.57 90.49C46.76 91.38 46.67 91.81 45.57 91.78C42.69 91.72 39.81 91.78 36.93 91.78C34.44 91.73 33.06 90.57 32.46 88.12C26.2333 63.1733 20.0033 38.2167 13.77 13.25C13.46 12 13.77 11.74 14.94 11.81C16.83 11.93 18.74 11.92 20.64 11.94C21.182 11.9343 21.7198 12.0356 22.2226 12.2381C22.7254 12.4406 23.1832 12.7402 23.57 13.12Z" fill="#F37B23"/>
<path d="M92.32 99.27C92.3645 100.157 92.2296 101.044 91.9236 101.878C91.6175 102.712 91.1465 103.476 90.5387 104.124C89.9309 104.771 89.1987 105.29 88.386 105.649C87.5732 106.007 86.6966 106.198 85.8083 106.21C84.9201 106.222 84.0386 106.055 83.2163 105.719C82.3941 105.383 81.6481 104.884 81.0229 104.253C80.3976 103.622 79.906 102.872 79.5773 102.046C79.2487 101.221 79.0897 100.338 79.11 99.45C79.0655 98.5628 79.2004 97.6757 79.5064 96.8418C79.8125 96.0079 80.2835 95.2442 80.8913 94.5964C81.4991 93.9486 82.2313 93.43 83.044 93.0715C83.8568 92.713 84.7334 92.522 85.6217 92.5099C86.5099 92.4978 87.3914 92.6648 88.2136 93.001C89.0359 93.3373 89.7819 93.8358 90.4071 94.4668C91.0323 95.0978 91.524 95.8483 91.8526 96.6736C92.1813 97.4989 92.3403 98.3819 92.32 99.27Z" fill="#F37B23"/>
<path d="M47.25 99.28C47.2169 101.022 46.5115 102.684 45.2814 103.917C44.0513 105.151 42.3918 105.862 40.65 105.9C38.909 105.837 37.2569 105.116 36.0278 103.881C34.7988 102.647 34.0847 100.991 34.03 99.25C34.03 97.4969 34.7264 95.8156 35.966 94.576C37.2056 93.3364 38.8869 92.64 40.64 92.64C42.3931 92.64 44.0744 93.3364 45.314 94.576C46.5536 95.8156 47.25 97.4969 47.25 99.25V99.28Z" fill="#F37B23"/>
<path d="M23.16 100.39H30.54C31.21 100.39 32.06 100.3 32.06 101.23C32.06 102.16 31.2 102.07 30.54 102.07H15.63C15.02 102.07 14.25 102.15 14.2 101.3C14.15 100.45 14.96 100.39 15.63 100.39H23.16Z" fill="#F37B23"/>
<path d="M26.1 99.33H21.65C21 99.33 20.32 99.26 20.36 98.41C20.4 97.56 21 97.59 21.6 97.59H30.51C31.16 97.59 31.83 97.67 31.8 98.51C31.77 99.35 31.15 99.32 30.55 99.32L26.1 99.33Z" fill="#F37B23"/>
<path d="M62.68 34.49C62.6774 34.6553 62.6099 34.813 62.492 34.929C62.3741 35.045 62.2154 35.11 62.05 35.11H53.63C53.4656 35.11 53.3079 35.0447 53.1916 34.9284C53.0753 34.8121 53.01 34.6544 53.01 34.49V31.37C53.01 31.2056 53.0753 31.0479 53.1916 30.9316C53.3079 30.8153 53.4656 30.75 53.63 30.75H62.05C62.2154 30.75 62.3741 30.815 62.492 30.931C62.6099 31.047 62.6774 31.2046 62.68 31.37V34.49Z" fill="#F37B23"/>
<path d="M73.91 34.49C73.9074 34.6553 73.8398 34.813 73.722 34.929C73.6041 35.045 73.4454 35.11 73.28 35.11H64.86C64.6956 35.11 64.5379 35.0447 64.4216 34.9284C64.3053 34.8121 64.24 34.6544 64.24 34.49V31.37C64.24 31.2056 64.3053 31.0479 64.4216 30.9316C64.5379 30.8153 64.6956 30.75 64.86 30.75H73.28C73.4454 30.75 73.6041 30.815 73.722 30.931C73.8398 31.047 73.9074 31.2046 73.91 31.37V34.49Z" fill="#F37B23"/>
<path d="M71.08 27C70.9751 26.7031 70.8157 26.4284 70.61 26.19C70.4132 25.9528 70.1843 25.7441 69.93 25.57C69.6716 25.3913 69.3787 25.2686 69.07 25.21C68.85 25.1616 68.6252 25.1381 68.4 25.14C67.7861 25.1346 67.1917 25.3553 66.73 25.76C66.4 26.07 66.06 26.37 65.73 26.7C65.4 27.03 65.11 27.38 64.8 27.7L64.1 28.54L63.78 28.93L63.49 28.65L62.15 30.73H68.38C69.1288 30.7327 69.8482 30.4384 70.3805 29.9117C70.9128 29.385 71.2147 28.6689 71.22 27.92C71.2215 27.6079 71.1742 27.2975 71.08 27ZM68.2 29.81H65C65.29 29.41 65.57 29 65.85 28.6C66.2901 27.7733 66.9469 27.0819 67.75 26.6C67.9878 26.4981 68.247 26.4557 68.5049 26.4766C68.7628 26.4976 69.0117 26.5811 69.23 26.72C69.3966 26.8216 69.5453 26.95 69.67 27.1C69.8028 27.2331 69.9052 27.3935 69.97 27.57C70.0376 27.728 70.0717 27.8982 70.07 28.07C70.0769 28.3117 70.0322 28.552 69.9389 28.775C69.8455 28.998 69.7057 29.1985 69.5287 29.3632C69.3518 29.5278 69.1417 29.6529 68.9126 29.7299C68.6834 29.807 68.4405 29.8343 68.2 29.81Z" fill="#F37B23"/>
<path d="M56.56 27.94C56.5613 28.3103 56.6356 28.6768 56.7785 29.0184C56.9214 29.36 57.1302 29.6702 57.393 29.9311C57.6558 30.1921 57.9674 30.3987 58.3101 30.5392C58.6527 30.6797 59.0197 30.7513 59.39 30.75H65.62L64.29 28.67L63.99 28.95L63.67 28.56L62.97 27.72C62.67 27.38 62.36 27.03 62.05 26.72C61.74 26.41 61.39 26.09 61.05 25.78C60.5884 25.3753 59.9939 25.1546 59.38 25.16C59.1548 25.1585 58.9301 25.182 58.71 25.23C58.4051 25.2908 58.1158 25.4133 57.86 25.59C57.6005 25.7612 57.3679 25.9702 57.17 26.21C56.9643 26.4484 56.8049 26.7231 56.7 27.02C56.6058 27.3175 56.5585 27.6279 56.56 27.94ZM57.77 28.12C57.7733 27.9487 57.8072 27.7794 57.87 27.62C57.9348 27.4435 58.0372 27.2831 58.17 27.15C58.2947 26.9999 58.4434 26.8715 58.61 26.77C58.8302 26.631 59.0807 26.5475 59.3402 26.5266C59.5997 26.5057 59.8605 26.548 60.1 26.65C60.8979 27.1352 61.5506 27.826 61.99 28.65L62.84 29.86H59.6C59.3627 29.8783 59.1241 29.8465 58.8998 29.7668C58.6756 29.687 58.4705 29.561 58.298 29.397C58.1255 29.233 57.9893 29.0346 57.8984 28.8146C57.8074 28.5946 57.7637 28.358 57.77 28.12Z" fill="#F37B23"/>
<path d="M62.05 35.74H54.57C54.4046 35.74 54.2459 35.805 54.128 35.921C54.0102 36.037 53.9426 36.1946 53.94 36.36V45.41C53.9426 45.5754 54.0102 45.733 54.128 45.849C54.2459 45.965 54.4046 46.03 54.57 46.03H62.05C62.2154 46.03 62.3741 45.965 62.492 45.849C62.6098 45.733 62.6774 45.5754 62.68 45.41V36.36C62.6774 36.1946 62.6098 36.037 62.492 35.921C62.3741 35.805 62.2154 35.74 62.05 35.74ZM58.43 43.74C57.9751 43.74 57.5304 43.6051 57.1522 43.3524C56.774 43.0997 56.4792 42.7404 56.3051 42.3202C56.131 41.8999 56.0854 41.4375 56.1742 40.9913C56.2629 40.5451 56.482 40.1353 56.8036 39.8137C57.1253 39.492 57.5351 39.273 57.9813 39.1842C58.4274 39.0955 58.8899 39.141 59.3102 39.3151C59.7304 39.4891 60.0896 39.784 60.3424 40.1622C60.5951 40.5404 60.73 40.9851 60.73 41.44C60.73 41.742 60.6705 42.0411 60.5549 42.3202C60.4393 42.5992 60.2699 42.8528 60.0564 43.0663C59.8428 43.2799 59.5892 43.4493 59.3102 43.5649C59.0311 43.6805 58.732 43.74 58.43 43.74Z" fill="#F37B23"/>
<path d="M72.35 35.74H64.86C64.6956 35.74 64.5379 35.8053 64.4216 35.9216C64.3053 36.0379 64.24 36.1956 64.24 36.36V45.41C64.24 45.5744 64.3053 45.7321 64.4216 45.8484C64.5379 45.9647 64.6956 46.03 64.86 46.03H72.35C72.5144 46.03 72.6721 45.9647 72.7884 45.8484C72.9047 45.7321 72.97 45.5744 72.97 45.41V36.36C72.97 36.1956 72.9047 36.0379 72.7884 35.9216C72.6721 35.8053 72.5144 35.74 72.35 35.74ZM68.6 43.74C68.1451 43.74 67.7004 43.6051 67.3222 43.3524C66.9439 43.0997 66.6491 42.7404 66.4751 42.3202C66.301 41.8999 66.2554 41.4375 66.3442 40.9913C66.4329 40.5451 66.652 40.1353 66.9736 39.8137C67.2953 39.492 67.7051 39.273 68.1513 39.1842C68.5974 39.0955 69.0599 39.141 69.4802 39.3151C69.9004 39.4891 70.2596 39.784 70.5124 40.1622C70.7651 40.5404 70.9 40.9851 70.9 41.44C70.9 42.05 70.6577 42.635 70.2263 43.0663C69.795 43.4977 69.21 43.74 68.6 43.74Z" fill="#F37B23"/>
<path d="M63 52.89C63 52.9749 62.9663 53.0563 62.9063 53.1163C62.8462 53.1763 62.7648 53.21 62.68 53.21H58.68C58.6384 53.21 58.5973 53.2017 58.559 53.1855C58.5207 53.1693 58.4861 53.1455 58.4572 53.1157C58.4282 53.0858 58.4056 53.0505 58.3906 53.0117C58.3757 52.9729 58.3686 52.9316 58.37 52.89V51C58.3686 50.9585 58.3757 50.9171 58.3906 50.8783C58.4056 50.8395 58.4282 50.8041 58.4572 50.7743C58.4861 50.7444 58.5207 50.7207 58.559 50.7045C58.5973 50.6883 58.6384 50.68 58.68 50.68H62.68C62.7648 50.68 62.8462 50.7137 62.9063 50.7737C62.9663 50.8337 63 50.9151 63 51V52.89Z" fill="#F37B23"/>
<path d="M68.6 52.89C68.6013 52.9316 68.5943 52.9729 68.5793 53.0117C68.5644 53.0505 68.5417 53.0858 68.5128 53.1157C68.4839 53.1455 68.4493 53.1693 68.411 53.1855C68.3727 53.2017 68.3316 53.21 68.29 53.21H64.29C64.2051 53.21 64.1237 53.1763 64.0637 53.1163C64.0037 53.0563 63.97 52.9749 63.97 52.89V51C63.97 50.9151 64.0037 50.8337 64.0637 50.7737C64.1237 50.7137 64.2051 50.68 64.29 50.68H68.29C68.3316 50.68 68.3727 50.6883 68.411 50.7045C68.4493 50.7207 68.4839 50.7444 68.5128 50.7743C68.5417 50.8041 68.5644 50.8395 68.5793 50.8783C68.5943 50.9171 68.6013 50.9585 68.6 51V52.89Z" fill="#F37B23"/>
<path d="M67.3 49C67.2472 48.8513 67.1694 48.7126 67.07 48.59C66.9652 48.4739 66.8478 48.37 66.72 48.28C66.5903 48.1915 66.444 48.1303 66.29 48.1C66.1772 48.0848 66.0628 48.0848 65.95 48.1C65.6413 48.0961 65.3421 48.2065 65.11 48.41L64.61 48.88C64.45 49.05 64.3 49.23 64.15 49.4C64 49.57 63.91 49.68 63.79 49.82L63.63 50.02C63.5951 49.9284 63.5444 49.8438 63.48 49.77L62.81 50.71H66C66.1809 50.7222 66.3624 50.6976 66.5335 50.6376C66.7046 50.5777 66.8617 50.4836 66.9954 50.3611C67.1291 50.2386 67.2366 50.0903 67.3113 49.9251C67.386 49.7599 67.4263 49.5812 67.43 49.4C67.4155 49.2589 67.3712 49.1226 67.3 49ZM65.85 50.37H64.21C64.36 50.37 64.5 49.99 64.64 49.78C64.8745 49.3607 65.2207 49.0145 65.64 48.78C65.7597 48.725 65.8915 48.7016 66.0228 48.7121C66.1541 48.7226 66.2806 48.7667 66.39 48.84C66.4704 48.8985 66.5441 48.9655 66.61 49.04C66.6748 49.1097 66.7257 49.1912 66.76 49.28C66.7907 49.3494 66.8076 49.4241 66.81 49.5C66.8224 49.6265 66.8055 49.7543 66.7607 49.8733C66.7159 49.9923 66.6444 50.0994 66.5516 50.1864C66.4588 50.2734 66.3473 50.3379 66.2257 50.3749C66.104 50.4119 65.9755 50.4205 65.85 50.4V50.37Z" fill="#F37B23"/>
<path d="M60 49.4C60.0037 49.5813 60.0441 49.7599 60.1188 49.9251C60.1935 50.0903 60.3009 50.2387 60.4346 50.3611C60.5683 50.4836 60.7254 50.5777 60.8965 50.6376C61.0676 50.6976 61.2491 50.7222 61.43 50.71H64.58L63.9 49.77C63.843 49.8288 63.7957 49.8963 63.76 49.97C63.76 49.9 63.65 49.86 63.6 49.8C63.55 49.74 63.36 49.52 63.24 49.39C63.12 49.26 62.94 49.05 62.78 48.88C62.62 48.71 62.44 48.56 62.28 48.4C62.0425 48.199 61.7412 48.0891 61.43 48.09C61.3202 48.0802 61.2098 48.0802 61.1 48.09C60.9429 48.1203 60.7933 48.1815 60.66 48.27C60.5374 48.3627 60.4236 48.4664 60.32 48.58C60.2171 48.6819 60.1357 48.8035 60.0808 48.9375C60.0258 49.0715 59.9983 49.2152 60 49.36V49.4ZM60.62 49.57C60.6061 49.494 60.6061 49.416 60.62 49.34C60.6529 49.2505 60.704 49.1688 60.77 49.1C60.8337 49.0263 60.9078 48.9623 60.99 48.91C61.1014 48.8409 61.228 48.8002 61.3588 48.7915C61.4896 48.7827 61.6205 48.8063 61.74 48.86C62.1537 49.0796 62.4995 49.4081 62.74 49.81C62.88 50.02 63.02 50.4 63.17 50.4H61.53C61.4122 50.4158 61.2923 50.406 61.1785 50.3714C61.0648 50.3368 60.9598 50.2782 60.8706 50.1995C60.7815 50.1208 60.7103 50.0239 60.6619 49.9153C60.6135 49.8067 60.589 49.6889 60.59 49.57H60.62Z" fill="#F37B23"/>
<path d="M63 53.83C63 53.7884 62.9917 53.7473 62.9755 53.709C62.9593 53.6707 62.9356 53.6361 62.9057 53.6072C62.8758 53.5783 62.8405 53.5556 62.8017 53.5407C62.7629 53.5257 62.7215 53.5187 62.68 53.52H58.95C58.9085 53.5187 58.8671 53.5257 58.8283 53.5407C58.7895 53.5556 58.7542 53.5783 58.7243 53.6072C58.6945 53.6361 58.6707 53.6707 58.6545 53.709C58.6383 53.7473 58.63 53.7884 58.63 53.83V58.19C58.63 58.2749 58.6637 58.3563 58.7237 58.4163C58.7837 58.4763 58.8651 58.51 58.95 58.51H62.68C62.7649 58.51 62.8463 58.4763 62.9063 58.4163C62.9663 58.3563 63 58.2749 63 58.19V53.83ZM60.93 57.48C60.7006 57.48 60.4763 57.412 60.2855 57.2845C60.0948 57.1571 59.9461 56.9759 59.8583 56.7639C59.7705 56.552 59.7475 56.3187 59.7923 56.0937C59.837 55.8687 59.9475 55.662 60.1098 55.4998C60.272 55.3375 60.4787 55.227 60.7037 55.1823C60.9287 55.1375 61.162 55.1605 61.3739 55.2483C61.5859 55.3361 61.767 55.4848 61.8945 55.6755C62.022 55.8663 62.09 56.0906 62.09 56.32C62.0914 56.4736 62.062 56.6259 62.0035 56.7679C61.9451 56.9099 61.8588 57.0387 61.7497 57.1468C61.6407 57.2549 61.5111 57.3401 61.3686 57.3973C61.2261 57.4546 61.0735 57.4827 60.92 57.48H60.93Z" fill="#F37B23"/>
<path d="M68.29 53.83C68.29 53.7478 68.2573 53.6689 68.1992 53.6108C68.1411 53.5527 68.0622 53.52 67.98 53.52H64.24C64.1568 53.5199 64.0769 53.5523 64.0172 53.6102C63.9574 53.668 63.9226 53.7469 63.92 53.83V58.19C63.92 58.2749 63.9537 58.3562 64.0137 58.4163C64.0737 58.4763 64.1551 58.51 64.24 58.51H68C68.0415 58.51 68.0827 58.5017 68.121 58.4855C68.1592 58.4693 68.1939 58.4456 68.2228 58.4157C68.2517 58.3859 68.2743 58.3505 68.2893 58.3117C68.3043 58.2729 68.3113 58.2315 68.31 58.19L68.29 53.83ZM66.05 57.48C65.821 57.478 65.5977 57.4083 65.4083 57.2797C65.2188 57.151 65.0717 56.9691 64.9854 56.757C64.8992 56.5449 64.8776 56.312 64.9235 56.0876C64.9694 55.8633 65.0807 55.6575 65.2433 55.4963C65.4059 55.335 65.6126 55.2256 65.8373 55.1816C66.0621 55.1377 66.2948 55.1612 66.5062 55.2493C66.7176 55.3374 66.8981 55.4861 67.0252 55.6766C67.1522 55.8671 67.22 56.091 67.22 56.32C67.2213 56.4736 67.1919 56.6258 67.1335 56.7679C67.075 56.9099 66.9888 57.0387 66.8797 57.1468C66.7706 57.2549 66.6411 57.3401 66.4986 57.3973C66.356 57.4546 66.2035 57.4827 66.05 57.48Z" fill="#F37B23"/>
<path d="M45.61 54.23C45.6319 54.303 45.6243 54.3816 45.5888 54.449C45.5532 54.5163 45.4926 54.567 45.42 54.59L41.92 55.66C41.8484 55.679 41.7723 55.6699 41.7072 55.6346C41.6421 55.5993 41.5931 55.5404 41.57 55.47L41.08 53.85C41.0678 53.8146 41.0631 53.777 41.0662 53.7397C41.0693 53.7024 41.0801 53.6661 41.098 53.6332C41.1158 53.6003 41.1403 53.5714 41.17 53.5485C41.1996 53.5256 41.2337 53.5091 41.27 53.5L44.77 52.43C44.8054 52.4178 44.843 52.4131 44.8803 52.4162C44.9176 52.4193 44.9539 52.4301 44.9868 52.448C45.0197 52.4658 45.0486 52.4904 45.0715 52.52C45.0944 52.5496 45.1109 52.5837 45.12 52.62L45.61 54.23Z" fill="#F37B23"/>
<path d="M50.47 52.75C50.4807 52.7855 50.4843 52.8227 50.4805 52.8595C50.4768 52.8964 50.4657 52.9321 50.4481 52.9647C50.4304 52.9972 50.4064 53.0259 50.3776 53.0492C50.3487 53.0724 50.3156 53.0897 50.28 53.1L46.78 54.17C46.7439 54.1823 46.7057 54.1871 46.6677 54.1841C46.6297 54.1811 46.5928 54.1704 46.5591 54.1526C46.5254 54.1348 46.4956 54.1103 46.4717 54.0806C46.4478 54.051 46.4302 54.0167 46.42 53.98L45.93 52.37C45.9178 52.3346 45.9131 52.297 45.9162 52.2597C45.9193 52.2224 45.9301 52.1861 45.948 52.1532C45.9658 52.1203 45.9903 52.0914 46.02 52.0685C46.0496 52.0456 46.0836 52.029 46.12 52.02L49.62 50.95C49.6554 50.9378 49.693 50.9331 49.7303 50.9362C49.7676 50.9393 49.8039 50.9501 49.8368 50.968C49.8697 50.9858 49.8986 51.0104 49.9215 51.04C49.9444 51.0696 49.9609 51.1037 49.97 51.14L50.47 52.75Z" fill="#F37B23"/>
<path d="M48.32 49.76C48.2386 49.6423 48.1329 49.5434 48.01 49.47C47.8937 49.3902 47.7654 49.3295 47.63 49.29C47.4952 49.2436 47.352 49.2265 47.21 49.24C47.1083 49.2503 47.0078 49.2704 46.91 49.3C46.6397 49.382 46.4086 49.5598 46.26 49.8C46.16 49.97 46.05 50.15 45.96 50.34C45.87 50.53 45.78 50.72 45.69 50.91C45.6 51.1 45.56 51.21 45.5 51.37C45.4658 51.4381 45.4357 51.5082 45.41 51.58C45.3568 51.5101 45.2927 51.4493 45.22 51.4L44.88 52.4L47.6 51.57C47.7604 51.5343 47.9117 51.4659 48.0446 51.3692C48.1775 51.2726 48.2892 51.1497 48.3726 51.0081C48.456 50.8665 48.5095 50.7093 48.5297 50.5462C48.5499 50.3832 48.5364 50.2177 48.49 50.06C48.4585 49.9477 48.4001 49.8448 48.32 49.76ZM47.43 51.32L46.01 51.75C46.14 51.75 46.16 51.35 46.23 51.14C46.313 50.7301 46.5107 50.3521 46.8 50.05C46.8913 49.9727 46.9999 49.9187 47.1165 49.8926C47.2332 49.8665 47.3545 49.869 47.47 49.9C47.5555 49.9278 47.6365 49.9682 47.71 50.02C47.7838 50.0595 47.8485 50.114 47.9 50.18C47.9493 50.2313 47.9868 50.2927 48.01 50.36C48.0398 50.4612 48.0482 50.5675 48.0347 50.6722C48.0212 50.7768 47.986 50.8775 47.9315 50.9678C47.8769 51.0581 47.8041 51.136 47.7178 51.1967C47.6315 51.2573 47.5335 51.2993 47.43 51.32Z" fill="#F37B23"/>
<path d="M42.09 52C42.1401 52.156 42.2217 52.3001 42.3297 52.4234C42.4377 52.5466 42.5698 52.6464 42.7178 52.7167C42.8658 52.787 43.0267 52.8262 43.1904 52.8319C43.3542 52.8376 43.5174 52.8098 43.67 52.75L46.39 51.92L45.55 51.29C45.518 51.3568 45.4945 51.4274 45.48 51.5C45.42 51.45 45.36 51.44 45.3 51.39L44.88 51.13L44.34 50.82L43.79 50.54C43.5353 50.4246 43.247 50.4067 42.98 50.49C42.8819 50.5177 42.7877 50.5581 42.7 50.61C42.5733 50.6774 42.4611 50.7692 42.37 50.88C42.2837 50.9916 42.2099 51.1123 42.15 51.24C42.0951 51.3572 42.058 51.4819 42.04 51.61C42.0356 51.7418 42.0525 51.8735 42.09 52ZM42.66 52C42.6457 51.9274 42.6457 51.8526 42.66 51.78C42.6681 51.6963 42.6918 51.6149 42.73 51.54C42.7684 51.4617 42.8153 51.388 42.87 51.32C42.9474 51.2283 43.0465 51.1574 43.1582 51.1138C43.27 51.0701 43.3909 51.0551 43.51 51.07C43.9146 51.1597 44.2876 51.3566 44.59 51.64C44.76 51.78 44.99 52.07 45.11 52.04L43.7 52.47C43.6014 52.5129 43.4949 52.5346 43.3874 52.5339C43.2799 52.5331 43.1738 52.5099 43.0758 52.4656C42.9778 52.4213 42.8902 52.357 42.8186 52.2768C42.747 52.1966 42.693 52.1023 42.66 52Z" fill="#F37B23"/>
<path d="M45.86 55.05C45.851 55.0137 45.8344 54.9796 45.8115 54.95C45.7886 54.9204 45.7597 54.8958 45.7268 54.878C45.6939 54.8601 45.6576 54.8493 45.6203 54.8462C45.583 54.8431 45.5454 54.8478 45.51 54.86L42.28 55.86C42.2074 55.883 42.1468 55.9337 42.1112 56.0011C42.0757 56.0684 42.0681 56.1471 42.09 56.22L43.24 59.99C43.2503 60.0256 43.2676 60.0587 43.2908 60.0876C43.3141 60.1164 43.3428 60.1404 43.3753 60.1581C43.4079 60.1758 43.4436 60.1868 43.4805 60.1906C43.5173 60.1943 43.5545 60.1907 43.59 60.18L46.82 59.18C46.8556 59.1697 46.8888 59.1524 46.9176 59.1292C46.9465 59.106 46.9704 59.0772 46.9881 59.0447C47.0058 59.0121 47.0168 58.9764 47.0206 58.9396C47.0243 58.9027 47.0207 58.8654 47.01 58.83L45.86 55.05ZM45.04 58.75C44.8416 58.8122 44.6292 58.814 44.4297 58.7553C44.2302 58.6965 44.0527 58.5799 43.9196 58.4202C43.7865 58.2605 43.7038 58.0648 43.682 57.858C43.6602 57.6513 43.7003 57.4426 43.7972 57.2587C43.8941 57.0747 44.0434 56.9237 44.2263 56.8247C44.4091 56.7257 44.6172 56.6832 44.8243 56.7026C45.0313 56.722 45.2279 56.8025 45.3891 56.9338C45.5504 57.065 45.669 57.2412 45.73 57.44C45.7772 57.5738 45.7955 57.716 45.7835 57.8573C45.7715 57.9987 45.7296 58.1358 45.6606 58.2597C45.5915 58.3836 45.4969 58.4914 45.383 58.5759C45.2692 58.6605 45.1386 58.7198 45 58.75H45.04Z" fill="#F37B23"/>
<path d="M50.45 53.65C50.4398 53.6133 50.4222 53.5791 50.3983 53.5494C50.3744 53.5197 50.3447 53.4952 50.311 53.4774C50.2773 53.4596 50.2403 53.4489 50.2023 53.4459C50.1643 53.4429 50.1261 53.4477 50.09 53.46L46.86 54.46C46.7874 54.483 46.7268 54.5337 46.6912 54.6011C46.6557 54.6684 46.6481 54.7471 46.67 54.82L47.82 58.59C47.8452 58.6611 47.8961 58.7202 47.9629 58.7554C48.0296 58.7906 48.1071 58.7994 48.18 58.78L51.41 57.78C51.4826 57.757 51.5433 57.7063 51.5788 57.639C51.6144 57.5716 51.622 57.493 51.6 57.42L50.45 53.65ZM49.45 57.39C49.3183 57.4375 49.1781 57.4569 49.0385 57.4468C48.8988 57.4367 48.7628 57.3973 48.6393 57.3313C48.5159 57.2654 48.4076 57.1742 48.3216 57.0637C48.2356 56.9532 48.1737 56.8259 48.14 56.69C48.0935 56.5023 48.1024 56.3051 48.1656 56.1224C48.2288 55.9396 48.3437 55.7791 48.4963 55.6603C48.6489 55.5415 48.8327 55.4695 49.0253 55.453C49.218 55.4365 49.4114 55.4763 49.5819 55.5674C49.7525 55.6585 49.893 55.7972 49.9863 55.9665C50.0797 56.1359 50.122 56.3287 50.108 56.5216C50.0941 56.7144 50.0245 56.8991 49.9077 57.0533C49.7909 57.2074 49.6319 57.3244 49.45 57.39Z" fill="#F37B23"/>
<path d="M81.06 54.23C81.0406 54.3029 81.0494 54.3804 81.0846 54.4471C81.1198 54.5139 81.1789 54.5649 81.25 54.59L84.75 55.66C84.8229 55.6794 84.9004 55.6706 84.9672 55.6354C85.0339 55.6002 85.0849 55.5411 85.11 55.47L85.6 53.85C85.6122 53.8146 85.6169 53.777 85.6138 53.7397C85.6107 53.7024 85.5999 53.6661 85.582 53.6332C85.5642 53.6003 85.5397 53.5714 85.51 53.5485C85.4804 53.5256 85.4464 53.5091 85.41 53.5L81.91 52.43C81.8746 52.4178 81.837 52.4131 81.7997 52.4162C81.7624 52.4193 81.7261 52.4301 81.6932 52.448C81.6603 52.4658 81.6314 52.4904 81.6085 52.52C81.5856 52.5496 81.5691 52.5837 81.56 52.62L81.06 54.23Z" fill="#F37B23"/>
<path d="M76.21 52.75C76.1993 52.7855 76.1957 52.8227 76.1994 52.8595C76.2032 52.8964 76.2142 52.9321 76.2319 52.9647C76.2496 52.9972 76.2735 53.0259 76.3024 53.0492C76.3312 53.0724 76.3644 53.0897 76.4 53.1L79.9 54.17C79.9361 54.1823 79.9743 54.1871 80.0123 54.1841C80.0503 54.1811 80.0872 54.1704 80.1209 54.1526C80.1546 54.1348 80.1844 54.1103 80.2083 54.0806C80.2322 54.051 80.2498 54.0167 80.26 53.98L80.75 52.37C80.7607 52.3346 80.7643 52.2973 80.7605 52.2605C80.7568 52.2236 80.7457 52.1879 80.7281 52.1553C80.7104 52.1228 80.6864 52.0941 80.6576 52.0708C80.6287 52.0476 80.5956 52.0303 80.56 52.02L77.06 50.95C76.9871 50.9281 76.9084 50.9357 76.8411 50.9712C76.7737 51.0068 76.723 51.0674 76.7 51.14L76.21 52.75Z" fill="#F37B23"/>
<path d="M78.19 50.05C78.1436 50.2076 78.1301 50.3731 78.1503 50.5362C78.1705 50.6993 78.2239 50.8565 78.3074 50.9981C78.3908 51.1396 78.5025 51.2626 78.6354 51.3592C78.7683 51.4559 78.9196 51.5242 79.08 51.56L81.8 52.39L81.46 51.39C81.3873 51.4393 81.3231 51.5001 81.27 51.57L81.18 51.36C81.12 51.2 81.05 51.05 80.99 50.9L80.72 50.33C80.6286 50.1434 80.525 49.963 80.41 49.79C80.2653 49.5504 80.0375 49.3724 79.77 49.29C79.6722 49.2604 79.5717 49.2403 79.47 49.23C79.328 49.2165 79.1848 49.2336 79.05 49.28C78.9138 49.3173 78.7852 49.3783 78.67 49.46C78.5452 49.5346 78.4364 49.6331 78.35 49.75C78.2765 49.8379 78.222 49.94 78.19 50.05ZM78.67 50.36C78.6934 50.295 78.7272 50.2342 78.77 50.18C78.8274 50.116 78.895 50.0619 78.97 50.02C79.0423 49.9662 79.1236 49.9256 79.21 49.9C79.3255 49.869 79.4467 49.8664 79.5634 49.8926C79.6801 49.9187 79.7887 49.9727 79.88 50.05C80.1658 50.3545 80.3629 50.7315 80.45 51.14C80.52 51.35 80.54 51.72 80.67 51.75L79.25 51.32C79.1458 51.3007 79.0468 51.2596 78.9597 51.1994C78.8725 51.1391 78.7991 51.061 78.7443 50.9703C78.6895 50.8796 78.6545 50.7783 78.6417 50.6731C78.6289 50.5679 78.6385 50.4612 78.67 50.36Z" fill="#F37B23"/>
<path d="M84.63 51.62C84.6215 51.49 84.5839 51.3635 84.52 51.25C84.4674 51.1206 84.3967 50.9994 84.31 50.89C84.2188 50.7792 84.1067 50.6874 83.98 50.62C83.8913 50.5699 83.7974 50.5296 83.7 50.5C83.4331 50.4158 83.1445 50.4336 82.89 50.55L82.33 50.83L81.8 51.14L81.38 51.4C81.32 51.45 81.26 51.46 81.2 51.51C81.1846 51.4362 81.1576 51.3653 81.12 51.3L80.29 51.93L83.01 52.76C83.1626 52.8198 83.3258 52.8477 83.4895 52.8419C83.6533 52.8362 83.8142 52.797 83.9622 52.7267C84.1102 52.6565 84.2423 52.5566 84.3503 52.4333C84.4582 52.3101 84.5398 52.166 84.59 52.01C84.6289 51.8839 84.6425 51.7514 84.63 51.62ZM83 52.47L81.59 52.04C81.71 52.04 81.93 51.78 82.11 51.64C82.4112 51.3549 82.7847 51.1578 83.19 51.07C83.3076 51.0549 83.4271 51.07 83.5373 51.1137C83.6475 51.1574 83.7447 51.2284 83.82 51.32C83.8813 51.383 83.9289 51.4579 83.96 51.54C84.0029 51.613 84.0269 51.6954 84.03 51.78C84.0448 51.8526 84.0448 51.9274 84.03 52C83.9968 52.1011 83.9431 52.1942 83.8722 52.2735C83.8013 52.3528 83.7147 52.4165 83.618 52.4607C83.5212 52.5048 83.4163 52.5285 83.31 52.5301C83.2036 52.5317 83.098 52.5112 83 52.47Z" fill="#F37B23"/>
<path d="M79.66 58.82C79.641 58.8916 79.6501 58.9677 79.6854 59.0328C79.7208 59.0979 79.7796 59.147 79.85 59.17L83.08 60.17C83.1529 60.1894 83.2304 60.1806 83.2972 60.1454C83.3639 60.1102 83.4149 60.0511 83.44 59.98L84.59 56.21C84.612 56.1371 84.6043 56.0584 84.5688 55.9911C84.5332 55.9237 84.4726 55.873 84.4 55.85L81.17 54.85C81.1346 54.8378 81.097 54.8331 81.0597 54.8362C81.0224 54.8393 80.9861 54.8501 80.9532 54.868C80.9203 54.8858 80.8914 54.9104 80.8685 54.94C80.8456 54.9696 80.8291 55.0037 80.82 55.04L79.66 58.82ZM80.94 57.44C81.0004 57.2413 81.1183 57.065 81.2788 56.9333C81.4394 56.8016 81.6354 56.7205 81.842 56.7002C82.0487 56.6799 82.2567 56.7213 82.4398 56.8193C82.6229 56.9172 82.7729 57.0672 82.8708 57.2503C82.9686 57.4335 83.01 57.6415 82.9896 57.8482C82.9692 58.0548 82.8881 58.2508 82.7563 58.4113C82.6246 58.5718 82.4483 58.6897 82.2495 58.7499C82.0508 58.8102 81.8387 58.8103 81.64 58.75C81.5041 58.7163 81.3768 58.6544 81.2663 58.5684C81.1558 58.4824 81.0647 58.3742 80.9987 58.2507C80.9327 58.1272 80.8934 57.9912 80.8833 57.8516C80.8732 57.7119 80.8925 57.5717 80.94 57.44Z" fill="#F37B23"/>
<path d="M75.08 57.41C75.058 57.483 75.0657 57.5616 75.1012 57.629C75.1368 57.6963 75.1974 57.747 75.27 57.77L78.5 58.77C78.5354 58.7807 78.5727 58.7843 78.6095 58.7806C78.6464 58.7768 78.6821 58.7658 78.7147 58.7481C78.7472 58.7304 78.7759 58.7065 78.7992 58.6776C78.8224 58.6488 78.8397 58.6156 78.85 58.58L80 54.8C80.0194 54.7271 80.0106 54.6496 79.9754 54.5829C79.9402 54.5162 79.8811 54.4651 79.81 54.44L76.58 53.44C76.5439 53.4277 76.5057 53.423 76.4677 53.4259C76.4297 53.4289 76.3927 53.4397 76.359 53.4574C76.3253 53.4752 76.2956 53.4997 76.2717 53.5294C76.2478 53.559 76.2302 53.5933 76.22 53.63L75.08 57.41ZM76.5 56.08C76.5831 55.8149 76.7669 55.5931 77.0119 55.4622C77.2569 55.3313 77.5435 55.3018 77.81 55.38C78.0087 55.4404 78.185 55.5583 78.3167 55.7188C78.4484 55.8794 78.5295 56.0754 78.5498 56.282C78.5701 56.4887 78.5287 56.6967 78.4307 56.8798C78.3328 57.0629 78.1828 57.2129 77.9997 57.3108C77.8165 57.4086 77.6085 57.45 77.4018 57.4296C77.1952 57.4092 76.9992 57.3281 76.8387 57.1963C76.6782 57.0646 76.5603 56.8883 76.5001 56.6896C76.4398 56.4909 76.4397 56.2787 76.5 56.08Z" fill="#F37B23"/>
<path d="M79.67 41.39C79.6562 41.417 79.6373 41.4409 79.6143 41.4605C79.5912 41.4802 79.5645 41.495 79.5358 41.5043C79.507 41.5136 79.4766 41.5171 79.4464 41.5147C79.4163 41.5122 79.3869 41.5038 79.36 41.49L76.5 40.05C76.4721 40.0373 76.4471 40.019 76.4267 39.9961C76.4062 39.9732 76.3908 39.9463 76.3814 39.9171C76.372 39.888 76.3688 39.8571 76.372 39.8266C76.3752 39.7961 76.3847 39.7666 76.4 39.74L76.88 38.74C76.8938 38.713 76.9127 38.6891 76.9357 38.6695C76.9588 38.6498 76.9855 38.635 77.0143 38.6257C77.043 38.6164 77.0734 38.6129 77.1035 38.6153C77.1337 38.6178 77.1631 38.6262 77.19 38.64L80.05 40.09C80.0778 40.1029 80.1028 40.1212 80.1234 40.1438C80.1441 40.1664 80.16 40.193 80.1702 40.2219C80.1805 40.2507 80.1849 40.2814 80.1831 40.3119C80.1813 40.3425 80.1735 40.3725 80.16 40.4L79.67 41.39Z" fill="#F37B23"/>
<path d="M83.23 43.18C83.2162 43.2069 83.1973 43.2309 83.1743 43.2505C83.1512 43.2702 83.1245 43.2851 83.0957 43.2943C83.0669 43.3036 83.0366 43.3071 83.0065 43.3047C82.9763 43.3022 82.9469 43.2938 82.92 43.28L80.05 41.84C80.023 41.8262 79.9991 41.8073 79.9795 41.7843C79.9598 41.7612 79.945 41.7345 79.9357 41.7057C79.9264 41.6769 79.9229 41.6466 79.9253 41.6165C79.9278 41.5863 79.9362 41.5569 79.95 41.53L80.43 40.53C80.4437 40.503 80.4627 40.4791 80.4857 40.4595C80.5088 40.4399 80.5355 40.425 80.5643 40.4157C80.5931 40.4064 80.6234 40.4029 80.6535 40.4053C80.6837 40.4078 80.7131 40.4162 80.74 40.43L83.6 41.87C83.6544 41.8979 83.696 41.9456 83.7165 42.0032C83.7369 42.0608 83.7346 42.124 83.71 42.18L83.23 43.18Z" fill="#F37B23"/>
<path d="M83.59 40.23C83.615 40.1181 83.615 40.002 83.59 39.89C83.5439 39.6616 83.4245 39.4544 83.25 39.3L83.04 39.17C82.8369 39.0634 82.6009 39.0384 82.38 39.1C82.2169 39.1394 82.0565 39.1895 81.9 39.25L81.42 39.43L81.05 39.59L80.88 39.67C80.88 39.67 80.83 39.67 80.8 39.57L79.99 40.08L82.05 41.08C82.3067 41.1983 82.5993 41.2123 82.866 41.119C83.1328 41.0257 83.353 40.8325 83.48 40.58C83.5367 40.4706 83.5739 40.3522 83.59 40.23ZM82.1 40.82L81.03 40.27C81.1759 40.129 81.3496 40.0201 81.54 39.95C81.8367 39.7458 82.1812 39.6218 82.54 39.59C82.638 39.5891 82.7346 39.6134 82.8204 39.6607C82.9062 39.708 82.9784 39.7767 83.03 39.86C83.0644 39.9198 83.0912 39.9836 83.11 40.05C83.13 40.1151 83.13 40.1848 83.11 40.25C83.1001 40.3346 83.0729 40.4163 83.03 40.49C82.9914 40.5734 82.9365 40.6483 82.8686 40.7103C82.8007 40.7722 82.7211 40.82 82.6344 40.8507C82.5478 40.8814 82.4559 40.8946 82.3641 40.8893C82.2723 40.884 82.1825 40.8605 82.1 40.82Z" fill="#F37B23"/>
<path d="M78.6 38.17C78.4718 38.4228 78.447 38.7155 78.531 38.9862C78.615 39.2569 78.8012 39.4842 79.05 39.62L81.11 40.62L81.04 39.62C80.9974 39.631 80.9526 39.631 80.91 39.62C80.9147 39.5567 80.9147 39.4932 80.91 39.43C80.91 39.29 80.86 39.16 80.82 39.03C80.78 38.9 80.74 38.69 80.69 38.53C80.64 38.37 80.58 38.21 80.52 38.05C80.4582 37.9091 80.3646 37.7843 80.2467 37.6855C80.1287 37.5866 79.9896 37.5163 79.84 37.48C79.7275 37.4606 79.6125 37.4606 79.5 37.48C79.3856 37.4966 79.2743 37.5303 79.17 37.58C79.055 37.631 78.9501 37.7022 78.86 37.79C78.7521 37.9007 78.6641 38.0293 78.6 38.17ZM78.97 38.45C78.998 38.3803 79.0426 38.3185 79.1 38.27C79.1491 38.2156 79.2109 38.1744 79.28 38.15L79.5 38.08C79.5955 38.0725 79.6915 38.0876 79.7801 38.1241C79.8687 38.1605 79.9475 38.2174 80.01 38.29C80.1862 38.5938 80.2794 38.9387 80.28 39.29C80.3376 39.4879 80.3546 39.6954 80.33 39.9L79.25 39.36C79.1005 39.2684 78.9915 39.1234 78.9451 38.9544C78.8987 38.7854 78.9183 38.6051 79 38.45H78.97Z" fill="#F37B23"/>
<path d="M79.33 42.08C79.3584 42.0241 79.3638 41.9594 79.3451 41.8997C79.3265 41.8399 79.2851 41.7897 79.23 41.76L76.63 40.46C76.6031 40.4462 76.5737 40.4378 76.5435 40.4353C76.5134 40.4329 76.483 40.4364 76.4543 40.4457C76.4255 40.455 76.3988 40.4699 76.3757 40.4895C76.3527 40.5091 76.3338 40.533 76.32 40.56L74.88 43.43C74.8662 43.4569 74.8578 43.4863 74.8553 43.5164C74.8529 43.5466 74.8564 43.5769 74.8657 43.6057C74.8749 43.6345 74.8898 43.6612 74.9095 43.6843C74.9291 43.7073 74.953 43.7262 74.98 43.74L77.58 45.04C77.6069 45.0538 77.6363 45.0622 77.6664 45.0647C77.6966 45.0671 77.727 45.0636 77.7558 45.0543C77.7845 45.045 77.8112 45.0301 77.8343 45.0105C77.8573 44.9909 77.8762 44.967 77.89 44.94L79.33 42.08ZM76.61 43.67C76.4575 43.594 76.3309 43.4745 76.2465 43.3265C76.162 43.1785 76.1234 43.0087 76.1356 42.8388C76.1478 42.6688 76.2102 42.5063 76.3148 42.3719C76.4195 42.2374 76.5618 42.1371 76.7236 42.0836C76.8854 42.0302 77.0594 42.026 77.2236 42.0716C77.3878 42.1172 77.5347 42.2105 77.6457 42.3398C77.7568 42.469 77.8269 42.6283 77.8473 42.7975C77.8676 42.9667 77.8372 43.1381 77.76 43.29C77.6572 43.4922 77.4786 43.6456 77.2632 43.7168C77.0478 43.7879 76.8131 43.7711 76.61 43.67Z" fill="#F37B23"/>
<path d="M82.61 43.73C82.6238 43.7031 82.6322 43.6737 82.6347 43.6436C82.6371 43.6134 82.6336 43.5831 82.6243 43.5543C82.615 43.5255 82.6002 43.4988 82.5805 43.4757C82.5609 43.4527 82.5369 43.4338 82.51 43.42L79.91 42.11C79.8831 42.0962 79.8537 42.0878 79.8235 42.0853C79.7934 42.0829 79.763 42.0864 79.7342 42.0957C79.7055 42.105 79.6788 42.1198 79.6557 42.1395C79.6327 42.1591 79.6138 42.183 79.6 42.21L78.16 45.08C78.1462 45.1069 78.1378 45.1363 78.1353 45.1664C78.1329 45.1966 78.1364 45.2269 78.1457 45.2557C78.155 45.2845 78.1698 45.3112 78.1894 45.3343C78.2091 45.3573 78.233 45.3763 78.26 45.39L80.85 46.69C80.8766 46.7053 80.9061 46.7148 80.9366 46.718C80.9671 46.7213 80.9979 46.718 81.0271 46.7086C81.0563 46.6992 81.0832 46.6838 81.1061 46.6634C81.129 46.6429 81.1473 46.6179 81.16 46.59L82.61 43.73ZM80 45.37C79.8475 45.294 79.7209 45.1745 79.6365 45.0265C79.552 44.8785 79.5134 44.7087 79.5256 44.5388C79.5378 44.3688 79.6002 44.2063 79.7048 44.0718C79.8095 43.9374 79.9518 43.8371 80.1136 43.7836C80.2754 43.7302 80.4494 43.726 80.6136 43.7716C80.7778 43.8172 80.9247 43.9105 81.0357 44.0398C81.1468 44.169 81.2169 44.3283 81.2373 44.4975C81.2576 44.6667 81.2272 44.8381 81.15 44.99C81.0472 45.1922 80.8686 45.3456 80.6532 45.4168C80.4378 45.4879 80.2031 45.4711 80 45.37Z" fill="#F37B23"/>
<path d="M47.09 41.39C47.1037 41.417 47.1227 41.4409 47.1457 41.4605C47.1688 41.4802 47.1954 41.495 47.2242 41.5043C47.253 41.5136 47.2834 41.5171 47.3136 41.5147C47.3437 41.5122 47.3731 41.5038 47.4 41.49L50.27 40.05C50.297 40.0362 50.3209 40.0173 50.3405 39.9943C50.3602 39.9712 50.375 39.9445 50.3843 39.9157C50.3936 39.8869 50.3971 39.8566 50.3947 39.8264C50.3922 39.7963 50.3838 39.7669 50.37 39.74L49.89 38.74C49.8762 38.713 49.8573 38.6891 49.8343 38.6695C49.8112 38.6498 49.7845 38.635 49.7557 38.6257C49.727 38.6164 49.6966 38.6129 49.6664 38.6153C49.6363 38.6178 49.6069 38.6262 49.58 38.64L46.72 40.09C46.6922 40.1029 46.6672 40.1212 46.6466 40.1438C46.6259 40.1664 46.61 40.193 46.5998 40.2219C46.5895 40.2507 46.5851 40.2814 46.5869 40.3119C46.5887 40.3425 46.5965 40.3725 46.61 40.4L47.09 41.39Z" fill="#F37B23"/>
<path d="M43.54 43.18C43.5537 43.2069 43.5727 43.2309 43.5957 43.2505C43.6188 43.2702 43.6454 43.2851 43.6742 43.2943C43.703 43.3036 43.7334 43.3071 43.7635 43.3047C43.7937 43.3022 43.8231 43.2938 43.85 43.28L46.72 41.84C46.7469 41.8262 46.7709 41.8073 46.7905 41.7843C46.8101 41.7612 46.825 41.7345 46.8343 41.7057C46.8436 41.6769 46.8471 41.6466 46.8447 41.6165C46.8422 41.5863 46.8338 41.5569 46.82 41.53L46.34 40.53C46.3262 40.503 46.3073 40.4791 46.2843 40.4595C46.2612 40.4399 46.2345 40.425 46.2057 40.4157C46.1769 40.4064 46.1466 40.4029 46.1164 40.4053C46.0863 40.4078 46.0569 40.4162 46.03 40.43L43.16 41.87C43.133 41.8837 43.1091 41.9027 43.0894 41.9257C43.0698 41.9488 43.0549 41.9754 43.0457 42.0042C43.0364 42.033 43.0328 42.0634 43.0353 42.0936C43.0378 42.1237 43.0461 42.1531 43.06 42.18L43.54 43.18Z" fill="#F37B23"/>
<path d="M43.3 40.62C43.4289 40.8707 43.6491 41.0624 43.9152 41.1554C44.1813 41.2485 44.473 41.2358 44.73 41.12L46.8 40.12L45.98 39.61C45.98 39.7 45.91 39.7 45.91 39.7L45.74 39.63L45.37 39.47L44.89 39.28L44.41 39.14C44.1892 39.0774 43.9527 39.1024 43.75 39.21L43.54 39.34C43.4482 39.4132 43.3732 39.5053 43.32 39.61C43.2605 39.7094 43.2167 39.8173 43.19 39.93C43.1751 40.0429 43.1751 40.1572 43.19 40.27C43.2134 40.3904 43.2503 40.5079 43.3 40.62ZM43.74 40.49C43.7059 40.4127 43.6791 40.3323 43.66 40.25C43.6446 40.1842 43.6446 40.1158 43.66 40.05C43.6742 39.9821 43.7014 39.9176 43.74 39.86C43.79 39.7775 43.8604 39.7092 43.9445 39.6619C44.0286 39.6146 44.1235 39.5898 44.22 39.59C44.5797 39.6176 44.9252 39.742 45.22 39.95C45.4137 40.0194 45.5908 40.1284 45.74 40.27L44.66 40.82C44.4939 40.8959 44.3047 40.9038 44.1329 40.8422C43.961 40.7805 43.82 40.6541 43.74 40.49Z" fill="#F37B23"/>
<path d="M47.94 37.86C47.8555 37.7702 47.7533 37.6987 47.64 37.65C47.5357 37.6003 47.4244 37.5665 47.31 37.55C47.1975 37.5306 47.0825 37.5306 46.97 37.55C46.8896 37.5695 46.8123 37.5998 46.74 37.64C46.5336 37.7358 46.3723 37.9078 46.29 38.12C46.23 38.28 46.17 38.44 46.12 38.6C46.07 38.76 46.03 38.93 45.98 39.1L45.89 39.5V39.69C45.8474 39.701 45.8026 39.701 45.76 39.69L45.69 40.69L47.75 39.69C47.8976 39.603 48.0233 39.4833 48.1173 39.3401C48.2114 39.1969 48.2714 39.0341 48.2926 38.8641C48.3139 38.6941 48.2958 38.5215 48.2399 38.3595C48.184 38.1976 48.0916 38.0506 47.97 37.93L47.94 37.86ZM47.51 39.38L46.44 39.92C46.4001 39.7186 46.4001 39.5114 46.44 39.31C46.4486 38.9585 46.5448 38.6148 46.72 38.31C46.7825 38.2374 46.8613 38.1806 46.9499 38.1441C47.0385 38.1076 47.1345 38.0925 47.23 38.1L47.44 38.17C47.5121 38.1941 47.5773 38.2352 47.63 38.29C47.6843 38.3412 47.7284 38.4023 47.76 38.47C47.8442 38.6246 47.8652 38.8057 47.8186 38.9754C47.7719 39.1451 47.6613 39.2902 47.51 39.38Z" fill="#F37B23"/>
<path d="M48.88 44.94C48.8938 44.967 48.9127 44.9909 48.9357 45.0105C48.9588 45.0301 48.9855 45.045 49.0143 45.0543C49.043 45.0636 49.0734 45.0671 49.1035 45.0647C49.1337 45.0622 49.1631 45.0538 49.19 45.04L51.79 43.74C51.8426 43.7104 51.8821 43.662 51.9006 43.6046C51.9192 43.5471 51.9154 43.4848 51.89 43.43L50.44 40.56C50.4262 40.533 50.4073 40.5091 50.3843 40.4895C50.3612 40.4699 50.3346 40.455 50.3058 40.4457C50.277 40.4364 50.2466 40.4329 50.2164 40.4353C50.1863 40.4378 50.1569 40.4462 50.13 40.46L47.54 41.76C47.4849 41.7897 47.4436 41.8399 47.4249 41.8997C47.4062 41.9594 47.4116 42.0241 47.44 42.08L48.88 44.94ZM49.01 43.29C48.9328 43.1381 48.9024 42.9667 48.9227 42.7975C48.9431 42.6283 49.0132 42.469 49.1243 42.3398C49.2353 42.2105 49.3822 42.1172 49.5464 42.0716C49.7106 42.026 49.8846 42.0302 50.0464 42.0836C50.2082 42.1371 50.3505 42.2374 50.4552 42.3719C50.5598 42.5063 50.6222 42.6688 50.6344 42.8388C50.6466 43.0087 50.608 43.1785 50.5235 43.3265C50.439 43.4745 50.3125 43.594 50.16 43.67C50.059 43.7216 49.9487 43.7528 49.8356 43.7616C49.7225 43.7704 49.6087 43.7568 49.5009 43.7215C49.3931 43.6862 49.2933 43.6298 49.2073 43.5558C49.1214 43.4817 49.0509 43.3914 49 43.29H49.01Z" fill="#F37B23"/>
<path d="M45.6 46.59C45.6127 46.6179 45.631 46.6429 45.6539 46.6634C45.6768 46.6838 45.7037 46.6992 45.7329 46.7086C45.7621 46.718 45.7929 46.7213 45.8234 46.718C45.8539 46.7148 45.8834 46.7053 45.91 46.69L48.51 45.39C48.5369 45.3763 48.5609 45.3573 48.5805 45.3343C48.6002 45.3112 48.615 45.2845 48.6243 45.2557C48.6336 45.2269 48.6371 45.1966 48.6347 45.1664C48.6322 45.1363 48.6238 45.1069 48.61 45.08L47.16 42.21C47.1462 42.183 47.1273 42.1591 47.1043 42.1395C47.0812 42.1198 47.0546 42.105 47.0258 42.0957C46.997 42.0864 46.9666 42.0829 46.9364 42.0853C46.9063 42.0878 46.8769 42.0962 46.85 42.11L44.26 43.42C44.233 43.4338 44.2091 43.4527 44.1894 43.4757C44.1698 43.4988 44.155 43.5255 44.1457 43.5543C44.1364 43.5831 44.1329 43.6134 44.1353 43.6436C44.1378 43.6737 44.1462 43.7031 44.16 43.73L45.6 46.59ZM45.6 44.99C45.5228 44.8381 45.4924 44.6667 45.5127 44.4975C45.5331 44.3283 45.6032 44.169 45.7143 44.0398C45.8253 43.9105 45.9722 43.8172 46.1364 43.7716C46.3006 43.726 46.4746 43.7302 46.6364 43.7836C46.7982 43.8371 46.9405 43.9374 47.0451 44.0718C47.1498 44.2063 47.2122 44.3688 47.2244 44.5388C47.2366 44.7087 47.198 44.8785 47.1135 45.0265C47.029 45.1745 46.9025 45.294 46.75 45.37C46.5524 45.4597 46.3282 45.4715 46.1224 45.4029C45.9165 45.3342 45.7442 45.1903 45.64 45L45.6 44.99Z" fill="#F37B23"/>
</svg>
