<svg width="324" height="140" viewBox="0 0 324 140" fill="none" xmlns="http://www.w3.org/2000/svg">
<path d="M175.9 138.3H323.6" stroke="#999999" stroke-width="0.5" stroke-miterlimit="10"/>
<path d="M0 138.3H156.3" stroke="#999999" stroke-width="0.5" stroke-miterlimit="10"/>
<path d="M139.8 23C139.7 23 139.7 23 139.6 23C138.2 10.1 127.2 0 113.9 0C99.6002 0 88.0002 11.6 88.0002 25.9C88.0002 28.3 88.4002 30.7 89.0002 32.9C88.4002 32.8 87.8002 32.7 87.2002 32.7C81.9002 32.7 77.7002 37 77.7002 42.2C77.7002 46.7 80.9002 50.5 85.1002 51.5V51.7H139.8C147.7 51.7 154.2 45.3 154.2 37.3C154.2 29.3 147.7 23 139.8 23Z" fill="#F2F2F2"/>
<path d="M133.9 63.5L125.1 73.2L133.9 82.8H165.8V63.5H133.9Z" fill="#E89674"/>
<path d="M197.7 78.1H165.8V97.5H197.7L206.5 87.8L197.7 78.1Z" fill="#FFA580"/>
<path d="M197.7 78.1H165.8V97.5H197.7L206.5 87.8L197.7 78.1Z" fill="#FFA580"/>
<path d="M168.2 58.4H163.4V139.7H168.2V58.4Z" fill="#35454D"/>
<path d="M168.2 58.4H165.8V139.7H168.2V58.4Z" fill="#455A64"/>
<path d="M195.4 57.2C195 57.6 194.4 57.6 194.1 57.2L192.1 55.2C191.7 54.8 191.7 54.2 192.1 53.9C192.5 53.5 193.1 53.5 193.4 53.9L195.4 55.9C195.8 56.2 195.8 56.8 195.4 57.2Z" fill="#FF3F2E"/>
<path d="M201.3 63C200.9 63.4 200.3 63.4 200 63L198 61C197.6 60.6 197.6 60 198 59.7C198.4 59.3 199 59.3 199.3 59.7L201.3 61.7C201.6 62 201.6 62.6 201.3 63Z" fill="#FF3F2E"/>
<path d="M197.9 57.2C198.3 57.6 198.9 57.6 199.2 57.2L201.2 55.2C201.6 54.8 201.6 54.2 201.2 53.9C200.8 53.5 200.2 53.5 199.9 53.9L197.9 55.9C197.5 56.2 197.5 56.8 197.9 57.2Z" fill="#FF3F2E"/>
<path d="M192.1 63C192.5 63.4 193.1 63.4 193.4 63L195.4 61C195.8 60.6 195.8 60 195.4 59.7C195 59.3 194.4 59.3 194.1 59.7L192.1 61.7C191.7 62 191.7 62.6 192.1 63Z" fill="#FF3F2E"/>
</svg>
