<svg width="324" height="89" viewBox="0 0 324 89" fill="none" xmlns="http://www.w3.org/2000/svg">
<path d="M205 66.7H323.6" stroke="#999999" stroke-width="0.5" stroke-miterlimit="10"/>
<path d="M0 66.7H118.4" stroke="#999999" stroke-width="0.5" stroke-miterlimit="10"/>
<path d="M161.8 75.4C152.7 75.4 145.3 68 145.3 58.9H126.5V87.1H197.1V58.9H178.3C178.3 68 170.9 75.4 161.8 75.4Z" fill="#FFA580"/>
<path d="M198.2 58.5L188.8 33.8C188.6 33.3 188.2 33 187.7 33H136C135.5 33 135.1 33.3 134.9 33.8L125.5 58.5C125.5 58.6 125.4 58.7 125.4 58.9V87.1C125.4 87.7 125.9 88.3 126.6 88.3H197.2C197.8 88.3 198.4 87.8 198.4 87.1V58.9C198.3 58.7 198.2 58.6 198.2 58.5ZM136.8 35.4H186.9L195.4 57.7H178.3C177.7 57.7 177.1 58.2 177.1 58.9C177.1 67.3 170.3 74.2 161.8 74.2C153.4 74.2 146.5 67.4 146.5 58.9C146.5 58.3 146 57.7 145.3 57.7H128.2L136.8 35.4ZM195.9 86H127.7V60.1H144.2C144.8 69.4 152.5 76.6 161.8 76.6C171.1 76.6 178.8 69.4 179.4 60.1H195.9V86Z" fill="#455A64"/>
<path d="M133.6 81.3H132.4V77.8C132.4 77.2 131.9 76.6 131.2 76.6C130.6 76.6 130 77.1 130 77.8V82.5C130 83.1 130.5 83.7 131.2 83.7H133.6C134.2 83.7 134.8 83.2 134.8 82.5C134.8 81.8 134.2 81.3 133.6 81.3Z" fill="#455A64"/>
<path d="M140.701 81.3H138.301C137.701 81.3 137.101 81.8 137.101 82.5C137.101 83.2 137.601 83.7 138.301 83.7H140.701C141.301 83.7 141.901 83.2 141.901 82.5C141.901 81.8 141.301 81.3 140.701 81.3Z" fill="#455A64"/>
<path d="M162.1 6.7C161.8 6.7 161.5 6.4 161.5 6.1V0.599998C161.5 0.299998 161.8 0 162.1 0C162.4 0 162.7 0.299998 162.7 0.599998V6.1C162.7 6.5 162.4 6.7 162.1 6.7Z" fill="#455A64"/>
<path d="M154.101 8.90002C153.801 9.10002 153.501 9.00002 153.301 8.70002L150.501 3.90002C150.301 3.60002 150.401 3.30002 150.701 3.10002C151.001 2.90002 151.301 3.00002 151.501 3.30002L154.301 8.10002C154.501 8.30002 154.401 8.70002 154.101 8.90002Z" fill="#455A64"/>
<path d="M148.2 14.7C148 15 147.7 15.1 147.4 14.9L142.6 12.1C142.3 11.9 142.2 11.6 142.4 11.3C142.6 11 142.9 10.9 143.2 11.1L148 13.9C148.3 14.1 148.4 14.4 148.2 14.7Z" fill="#455A64"/>
<path d="M146.1 22.7C146.1 23 145.8 23.3 145.5 23.3H140C139.7 23.3 139.4 23 139.4 22.7C139.4 22.4 139.7 22.1 140 22.1H145.5C145.8 22.1 146.1 22.4 146.1 22.7Z" fill="#455A64"/>
<path d="M178 22.7C178 22.4 178.3 22.1 178.6 22.1H184.1C184.4 22.1 184.7 22.4 184.7 22.7C184.7 23 184.4 23.3 184.1 23.3H178.6C178.3 23.3 178 23 178 22.7Z" fill="#455A64"/>
<path d="M175.9 14.7C175.7 14.4 175.8 14.1 176.1 13.9L180.9 11.1C181.2 10.9 181.5 11 181.7 11.3C181.9 11.6 181.8 11.9 181.5 12.1L176.7 14.9C176.4 15.1 176.1 15 175.9 14.7Z" fill="#455A64"/>
<path d="M170.1 8.90002C169.8 8.70002 169.7 8.40002 169.9 8.10002L172.7 3.30002C172.9 3.00002 173.2 2.90002 173.5 3.10002C173.8 3.30002 173.9 3.60002 173.7 3.90002L170.9 8.70002C170.7 8.90002 170.3 9.00002 170.1 8.90002Z" fill="#455A64"/>
</svg>
