<svg width="71" height="71" viewBox="0 0 71 71" fill="none" xmlns="http://www.w3.org/2000/svg">
<path d="M17.4797 5.10005H2.52284C1.11726 5.10005 0 3.97075 0 2.55003C0 1.1293 1.11726 0 2.52284 0H17.4797C18.8853 0 20.0025 1.1293 20.0025 2.55003C20.0025 3.97075 18.8853 5.10005 17.4797 5.10005Z" fill="#D0D0D0"/>
<path d="M61.8097 60.727H34.4548C33.0493 60.727 31.932 59.5977 31.932 58.177C31.932 56.7563 33.0493 55.627 34.4548 55.627H61.8097C63.2153 55.627 64.3325 56.7563 64.3325 58.177C64.3325 59.5613 63.2153 60.727 61.8097 60.727Z" fill="#D0D0D0"/>
<path d="M68.1168 21.3838H22.5254C21.1198 21.3838 20.0026 20.2545 20.0026 18.8338C20.0026 17.4131 21.1198 16.2838 22.5254 16.2838H68.1168C69.5224 16.2838 70.6396 17.4131 70.6396 18.8338C70.6396 20.2181 69.5224 21.3838 68.1168 21.3838Z" fill="#D0D0D0"/>
<path d="M60.2959 49.1062H32.1842C30.7786 49.1062 29.6614 47.9769 29.6614 46.5562C29.6614 45.1355 30.7786 44.0062 32.1842 44.0062H60.2959C61.7015 44.0062 62.8187 45.1355 62.8187 46.5562C62.8187 47.9769 61.6654 49.1062 60.2959 49.1062Z" fill="#D0D0D0"/>
<path d="M31.5356 58.942L15.1371 3.2786C14.7406 1.93073 15.4975 0.510005 16.831 0.109286C18.1645 -0.291432 19.5701 0.473575 19.9665 1.82145L36.365 57.4849C36.7614 58.8327 36.0046 60.2535 34.6711 60.6542C33.3376 61.0549 31.932 60.2899 31.5356 58.942Z" fill="#D0D0D0"/>
<path d="M62.8548 46.7748L70.8919 19.5624C71.2883 18.2145 70.5315 16.7938 69.198 16.393C67.8645 15.9923 66.4589 16.7573 66.0624 18.1052L58.0254 45.3176C57.6289 46.6655 58.3858 48.0862 59.7193 48.4869C61.0528 48.8877 62.4584 48.1226 62.8548 46.7748Z" fill="#D0D0D0"/>
<path d="M65.702 26.7753H26.2375V30.3817H65.702V26.7753Z" fill="#D0D0D0"/>
<path d="M64.3325 35.4089H26.4899V39.0154H64.3325V35.4089Z" fill="#D0D0D0"/>
<path d="M52.9824 47.4611L52.9824 19.8844H49.4144L49.4144 47.4611H52.9824Z" fill="#D0D0D0"/>
<path d="M42.261 47.6378L42.261 20.0611H38.693L38.693 47.6378H42.261Z" fill="#D0D0D0"/>
<path d="M55.5026 71C57.9708 71 59.9716 68.9776 59.9716 66.4828C59.9716 63.988 57.9708 61.9656 55.5026 61.9656C53.0344 61.9656 51.0336 63.988 51.0336 66.4828C51.0336 68.9776 53.0344 71 55.5026 71Z" fill="#D0D0D0"/>
<path d="M38.7076 71C41.1757 71 43.1766 68.9776 43.1766 66.4828C43.1766 63.988 41.1757 61.9656 38.7076 61.9656C36.2394 61.9656 34.2385 63.988 34.2385 66.4828C34.2385 68.9776 36.2394 71 38.7076 71Z" fill="#D0D0D0"/>
</svg>
