<svg width="324" height="161" viewBox="0 0 324 161" fill="none" xmlns="http://www.w3.org/2000/svg">
<path d="M188.5 117.1C188.2 116.7 187.7 116.5 187.2 116.5H146C145.5 116.5 145 116.7 144.7 117.2C144.4 117.6 144.3 118.2 144.4 118.7L149.8 139C150 139.7 150.7 140.3 151.4 140.3H151.5L183.9 138.7C184.7 138.7 185.3 138.1 185.5 137.3L188.9 118.6C189 118 188.9 117.5 188.5 117.1Z" fill="#FFA580"/>
<path d="M177.1 133.5C176.2 133.5 175.4 132.7 175.4 131.8V125C175.4 124.1 176.2 123.3 177.1 123.3C178 123.3 178.8 124.1 178.8 125V131.8C178.8 132.7 178 133.5 177.1 133.5Z" fill="#FAFAFA"/>
<path d="M166.9 133.5C166 133.5 165.2 132.7 165.2 131.8V125C165.2 124.1 166 123.3 166.9 123.3C167.8 123.3 168.6 124.1 168.6 125V131.8C168.6 132.7 167.8 133.5 166.9 133.5Z" fill="#FAFAFA"/>
<path d="M156.7 133.5C155.8 133.5 155 132.7 155 131.8V125C155 124.1 155.8 123.3 156.7 123.3C157.6 123.3 158.4 124.1 158.4 125V131.8C158.4 132.7 157.6 133.5 156.7 133.5Z" fill="#FAFAFA"/>
<path d="M156.7 160.6C159.516 160.6 161.8 158.317 161.8 155.5C161.8 152.683 159.516 150.4 156.7 150.4C153.883 150.4 151.6 152.683 151.6 155.5C151.6 158.317 153.883 160.6 156.7 160.6Z" fill="#455A64"/>
<path d="M177.1 160.6C179.917 160.6 182.2 158.317 182.2 155.5C182.2 152.683 179.917 150.4 177.1 150.4C174.283 150.4 172 152.683 172 155.5C172 158.317 174.283 160.6 177.1 160.6Z" fill="#455A64"/>
<path d="M180.5 147H153.4C152.6 147 152 146.5 151.8 145.7L143.1 113H136.5C135.6 113 134.8 112.2 134.8 111.3C134.8 110.4 135.6 109.6 136.5 109.6H144.4C145.2 109.6 145.8 110.1 146 110.9L154.7 143.6H180.5C181.4 143.6 182.2 144.4 182.2 145.3C182.2 146.2 181.4 147 180.5 147Z" fill="#455A64"/>
<path d="M188.9 159H323.6" stroke="#999999" stroke-width="0.5" stroke-miterlimit="10"/>
<path d="M0 159H144.4" stroke="#999999" stroke-width="0.5" stroke-miterlimit="10"/>
<path d="M171.3 110.5C171.3 110.5 171.3 109.3 171.5 107.5" stroke="#999999" stroke-width="0.5" stroke-miterlimit="10"/>
<path d="M172.399 101.9C174.399 92.8 180.399 80 197.999 83C213.699 85.6 222.599 83.3 227.299 81" stroke="#999999" stroke-width="0.5" stroke-miterlimit="10" stroke-dasharray="5.72 5.72"/>
<path d="M229.8 79.5C231.4 78.4 232 77.5 232 77.5" stroke="#999999" stroke-width="0.5" stroke-miterlimit="10"/>
<path d="M237.4 74.4C237.3 74.6 237.2 74.7 237.1 74.9C237 74.8 236.9 74.8001 236.8 74.7001C237 74.5001 237.1 74.2 237.1 73.9C237.1 73.9 237 73.9001 237 74.0001C236.7 74.2001 236.4 74.3 236 74.4C235.9 74.4 235.8 74.4 235.6 74.4C235.4 74.4 235.2 74.2001 235.2 74.0001C235.2 73.8001 235.2 73.6001 235.3 73.5001C235.4 73.2001 235.5 73.0001 235.7 72.7001C235.7 72.7001 235.7 72.6001 235.8 72.6001C235.5 72.6001 235.3 72.7 235 72.9C234.9 72.8 234.9 72.7001 234.8 72.6001C235 72.5001 235.1 72.4 235.3 72.3H235.2C235 72.3 234.8 72.2001 234.6 72.0001C234.3 71.8001 234.2 71.5001 234.4 71.2001C234.5 71.0001 234.6 70.9 234.8 70.8C235.2 70.5 235.7 70.4 236.2 70.3C236.6 70.2 237 70.2 237.4 70.3C237.4 70.3 237.4 70.3 237.5 70.3C237.4 70 237.4 69.7 237.5 69.3C237.6 69.3 237.7 69.3 237.8 69.4C237.8 69.6 237.8 69.8001 237.8 70.0001V69.9C237.9 69.6 238.2 69.4 238.4 69.4C238.7 69.4 239 69.6 239.1 69.8L239.2 69.9C239.4 70 239.6 70.2 239.7 70.4L239.8 70.5001C240.1 70.6001 240.2 70.9001 240.2 71.2001C240.2 71.5001 240 71.7 239.7 71.8C239.7 71.8 239.7 71.8 239.6 71.8C239.8 71.8 240 71.8 240.2 71.8C240.2 71.9 240.2 72.0001 240.3 72.1001C240 72.2001 239.7 72.1001 239.3 72.1001C239.3 72.2001 239.3 72.3 239.3 72.4C239.3 73.1 239.2 73.8001 238.9 74.5001C238.8 74.7001 238.7 74.9001 238.5 75.0001C238.4 75.1001 238.4 75.1001 238.3 75.1001C238.1 75.2001 237.8 75.2001 237.6 75.0001C237.4 74.8001 237.3 74.6 237.3 74.3C237.4 74.5 237.4 74.4 237.4 74.4ZM236.8 70.6001C236.7 70.6001 236.5 70.6001 236.3 70.7001C236.1 70.7001 236 70.8 235.8 70.8C235.5 70.9 235.3 71.0001 235 71.2001C234.9 71.3001 234.8 71.4001 234.7 71.5001C234.6 71.6001 234.6 71.7 234.7 71.8C234.8 71.9 234.9 72.0001 235 72.0001C235.2 72.1001 235.3 72.1001 235.5 72.1001C235.9 72.2001 236.2 72.1001 236.6 72.1001C237 72.0001 237.5 71.9001 237.8 71.6001C237.9 71.5001 238 71.4 238.1 71.3C238.2 71.2 238.2 71 238 70.9C237.9 70.8 237.8 70.7001 237.6 70.7001C237.5 70.6001 237.2 70.6001 236.8 70.6001ZM237.7 73.8C237.7 73.9 237.7 74.1001 237.7 74.2001C237.7 74.4001 237.8 74.7 238 74.9C238.1 75 238.2 75.1001 238.4 75.0001C238.5 75.0001 238.5 74.9 238.6 74.9C238.7 74.8 238.8 74.7001 238.9 74.5001C239.2 74.0001 239.3 73.5 239.3 72.9C239.3 72.6 239.3 72.3001 239.2 72.0001C239.2 71.9001 239.1 71.8001 239 71.7001C238.9 71.5001 238.7 71.5001 238.6 71.6001C238.5 71.6001 238.5 71.7001 238.4 71.7001C238.3 71.8001 238.2 72.0001 238.1 72.1001C237.8 72.7001 237.7 73.2 237.7 73.8Z" fill="#999999"/>
<path d="M236.8 70.6001C237.2 70.6001 237.5 70.6001 237.8 70.7001C237.9 70.7001 238.1 70.8001 238.2 70.9001C238.3 71.0001 238.3 71.1001 238.3 71.3001C238.2 71.4001 238.1 71.5001 238 71.6001C237.6 71.9001 237.2 72.0001 236.8 72.1001C236.4 72.2001 236.1 72.2001 235.7 72.1001C235.5 72.1001 235.4 72.0001 235.2 72.0001C235.1 72.0001 235 71.9001 234.9 71.8001C234.8 71.7001 234.8 71.6001 234.9 71.5001C235 71.4001 235.1 71.3001 235.2 71.2001C235.4 71.0001 235.7 70.9001 236 70.8001C236.2 70.8001 236.3 70.7001 236.5 70.7001C236.5 70.6001 236.7 70.6001 236.8 70.6001Z" fill="white"/>
<path d="M237.7 73.8001C237.7 73.2001 237.8 72.6001 238.1 72.1001C238.2 72.0001 238.3 71.8001 238.4 71.7001C238.4 71.6001 238.5 71.6001 238.6 71.6001C238.8 71.5001 238.9 71.5001 239 71.7001C239.1 71.8001 239.1 71.9001 239.2 72.0001C239.3 72.3001 239.3 72.6001 239.3 72.9001C239.3 73.5001 239.2 74.0001 238.9 74.5001C238.8 74.6001 238.7 74.8001 238.6 74.9001C238.6 75.0001 238.5 75.0001 238.4 75.0001C238.2 75.1001 238.1 75.1001 238 74.9001C237.8 74.7001 237.8 74.5001 237.7 74.2001C237.7 74.1001 237.7 73.9001 237.7 73.8001Z" fill="white"/>
<path d="M107.8 23.7H107.7C106.9 16 100.4 10.1 92.4996 10.1C83.9996 10.1 77.1996 17 77.1996 25.4C77.1996 26.8 77.3996 28.2 77.7996 29.5C77.4996 29.4 77.0996 29.4 76.6996 29.4C73.5996 29.4 71.0996 31.9 71.0996 35C71.0996 37.7 72.9996 39.9 75.4996 40.5V40.6H107.9C112.6 40.6 116.4 36.8 116.4 32.1C116.4 27.4 112.5 23.7 107.8 23.7Z" fill="#F2F2F2"/>
<path d="M277.5 20.5C277.4 20.5 277.4 20.5 277.3 20.5C276 9 266.3 0 254.4 0C241.7 0 231.4 10.3 231.4 23C231.4 25.2 231.7 27.2 232.3 29.2C231.8 29.1 231.2 29 230.7 29C226 29 222.2 32.8 222.2 37.5C222.2 41.5 225 44.9 228.8 45.8V46H277.5C284.6 46 290.3 40.3 290.3 33.2C290.3 26.1 284.6 20.5 277.5 20.5Z" fill="#F2F2F2"/>
</svg>
