<svg width="12" height="9" viewBox="0 0 12 9" fill="none" xmlns="http://www.w3.org/2000/svg">
<path d="M10.4 0H1.3C0.599995 0 0 0.599999 0 1.3V6.8C0 7.5 0.599995 8.1 1.3 8.1H10.4C11.1 8.1 11.7 7.5 11.7 6.8V1.3C11.7 0.599999 11.1 0 10.4 0ZM1.3 0.699997H10.4C10.7 0.699997 10.9 0.899997 10.9 1.2V1.9H0.799995V1.2C0.799995 0.999997 0.999995 0.699997 1.3 0.699997ZM10.4 7.3H1.3C0.999995 7.3 0.799995 7.1 0.799995 6.8V2.8H11V6.8C11 7.1 10.7 7.3 10.4 7.3Z" fill="#808080"/>
<path d="M2.59981 6.2H2.19981C1.99981 6.2 1.7998 6 1.7998 5.8V5.4C1.7998 5.2 1.99981 5 2.19981 5H2.59981C2.79981 5 2.99981 5.2 2.99981 5.4V5.8C2.99981 6.1 2.79981 6.2 2.59981 6.2Z" fill="#808080"/>
</svg>
