<svg width="15" height="15" viewBox="0 0 15 15" fill="none" xmlns="http://www.w3.org/2000/svg">
<path d="M10.5 15C9.8 14.9 9.2 14.8 8.7 14.6C7.3 14.1 6.1 13.3 5 12.4C3.5 11.2 2.2 9.7 1.3 8.1C0.7 7.2 0.3 6.2 0.1 5.1C0 4.9 0 4.8 0 4.6C0 4.4 0 4.3 0.1 4.1C0.5 3.4 1 2.8 1.6 2.2C1.9 1.9 2.3 1.5 2.6 1.2C3.1 0.800004 3.6 0.900004 3.9 1.4C4.5 2.2 5.1 3.1 5.5 4C5.6 4.2 5.7 4.4 5.7 4.6C5.8 4.9 5.7 5.1 5.5 5.3C5.5 5.6 5.3 5.8 5.1 5.9C5 6.1 4.9 6.2 4.7 6.3C4.6 6.3 4.6 6.4 4.7 6.5C5.2 8.1 6.3 9.3 7.7 10C8 10.2 8.3 10.3 8.5 10.4C8.6 10.4 8.6 10.4 8.7 10.3C8.9 10.1 9 9.9 9.2 9.7C9.3 9.6 9.4 9.4 9.6 9.3C9.8 9.1 10 9.1 10.3 9.2C10.8 9.3 11.3 9.6 11.8 9.9C12.4 10.3 13 10.7 13.6 11C13.8 11.1 14 11.3 14.1 11.6C14.2 11.8 14.2 12 14.1 12.2C14 12.3 13.9 12.5 13.8 12.6C13 13.5 12.1 14.3 11 14.9C10.8 15 10.6 15 10.5 15ZM3.2 2C3.1 2 3.1 2 3.2 2C2.3 2.7 1.7 3.5 1.1 4.3C1 4.5 0.9 4.7 1 4.9C1.2 5.8 1.5 6.7 2 7.5C3.4 9.9 5.2 11.7 7.6 13.1C8.5 13.6 9.4 14 10.4 14.1C10.5 14.1 10.6 14.1 10.6 14C11.4 13.5 12.1 12.9 12.8 12.2C12.9 12.1 13 12 13.1 11.9C13 11.9 13 11.8 13 11.8C12.2 11.2 11.3 10.7 10.4 10.2C10.3 10.1 10.2 10.1 10.1 10.3C9.8 10.6 9.5 11 9.2 11.3C9.1 11.5 8.9 11.5 8.7 11.4C7.6 11.1 6.7 10.6 5.8 9.8C4.8 8.9 4.1 7.8 3.7 6.4C3.6 6.2 3.6 6 3.8 5.9C3.8 5.8 3.9 5.8 4 5.7C4.2 5.5 4.5 5.2 4.8 5C4.9 4.9 4.9 4.9 4.8 4.8C4.4 3.9 4 3.1 3.4 2.4C3.4 2.2 3.3 2.1 3.2 2Z" fill="black"/>
<path d="M13.6001 7.49997C13.3001 7.49997 13.0001 7.49997 12.7001 7.49997C12.7001 6.09997 12.2001 4.89997 11.2001 3.89997C10.2001 2.89997 9.0001 2.39997 7.6001 2.39997C7.6001 2.09997 7.6001 1.79997 7.6001 1.49997C10.7001 1.39997 13.6001 4.19997 13.6001 7.49997Z" fill="black"/>
<path d="M7.5 3.79999C9.6 3.79999 11.3 5.59999 11.2 7.49999C10.9 7.49999 10.6 7.49999 10.3 7.49999C10.3 5.99999 9 4.69999 7.5 4.69999C7.5 4.39999 7.5 4.09999 7.5 3.79999Z" fill="black"/>
</svg>
