<svg width="253" height="268" viewBox="0 0 253 268" fill="none" xmlns="http://www.w3.org/2000/svg">
<path d="M231 14C235.4 14 239 17.6 239 22V166C239 170.4 235.4 174 231 174H22C17.6 174 14 170.4 14 166V22C14 17.6 17.6 14 22 14H231ZM231 0H22C9.8 0 0 9.8 0 22V166C0 178.2 9.8 188 22 188H231C243.2 188 253 178.2 253 166V22C253 9.8 243.2 0 231 0Z" fill="#B5B4B4"/>
<path d="M127 143C100 143 78 121 78 94C78 67 100 45 127 45C154 45 176 67 176 94C176 121 154 143 127 143ZM127 59C107.7 59 92 74.7 92 94C92 113.3 107.7 129 127 129C146.3 129 162 113.3 162 94C162 74.7 146.3 59 127 59Z" fill="#B5B4B4"/>
<path d="M151.746 59.3446L92.3495 118.741L102.249 128.64L161.645 69.244L151.746 59.3446Z" fill="#B5B4B4"/>
<path d="M23.4 222.1C24.6 222.6 25.5 223.4 26.1 224.4C26.7 225.4 27.1 226.5 27.1 227.9C27.1 229.2 26.8 230.4 26.1 231.4C25.5 232.4 24.6 233.2 23.4 233.7C22.2 234.2 20.8 234.5 19.2 234.5H15.5V239.5H11.3V221.4H19.1C20.8 221.3 22.2 221.5 23.4 222.1ZM21.8 230.2C22.5 229.7 22.8 228.9 22.8 227.9C22.8 226.9 22.5 226.1 21.8 225.6C21.1 225.1 20.2 224.8 18.9 224.8H15.5V231.1H19C20.2 231 21.2 230.7 21.8 230.2Z" fill="#B5B4B4"/>
<path d="M41.6 239.4L38.1 234.4H37.9H34.2V239.4H30V221.3H37.8C39.4 221.3 40.8 221.6 42 222.1C43.2 222.6 44.1 223.4 44.7 224.4C45.3 225.4 45.7 226.5 45.7 227.9C45.7 229.2 45.4 230.4 44.7 231.4C44.1 232.4 43.1 233.1 41.9 233.6L46 239.4H41.6ZM40.5 225.5C39.8 225 38.9 224.7 37.6 224.7H34.2V231H37.6C38.9 231 39.8 230.7 40.5 230.2C41.2 229.6 41.5 228.9 41.5 227.9C41.5 226.8 41.2 226 40.5 225.5Z" fill="#B5B4B4"/>
<path d="M52.8 238.5C51.3 237.7 50.1 236.6 49.3 235.1C48.4 233.7 48 232.1 48 230.3C48 228.5 48.4 226.9 49.3 225.5C50.2 224.1 51.3 223 52.8 222.1C54.3 221.3 56 220.9 57.9 220.9C59.8 220.9 61.5 221.3 63 222.1C64.5 222.9 65.7 224 66.5 225.5C67.4 226.9 67.8 228.5 67.8 230.3C67.8 232.1 67.4 233.7 66.5 235.1C65.6 236.5 64.5 237.6 63 238.5C61.5 239.3 59.8 239.7 57.9 239.7C56 239.7 54.3 239.3 52.8 238.5ZM60.7 235.4C61.6 234.9 62.2 234.2 62.7 233.3C63.2 232.4 63.4 231.4 63.4 230.3C63.4 229.2 63.2 228.2 62.7 227.3C62.2 226.4 61.5 225.7 60.7 225.2C59.8 224.7 58.9 224.5 57.8 224.5C56.7 224.5 55.8 224.7 54.9 225.2C54 225.7 53.4 226.4 52.9 227.3C52.4 228.2 52.2 229.2 52.2 230.3C52.2 231.4 52.4 232.4 52.9 233.3C53.4 234.2 54.1 234.9 54.9 235.4C55.8 235.9 56.7 236.1 57.8 236.1C58.9 236.1 59.9 235.9 60.7 235.4Z" fill="#B5B4B4"/>
<path d="M70.9 221.3H79.1C81.1 221.3 82.8 221.7 84.3 222.4C85.8 223.2 87 224.2 87.8 225.6C88.6 227 89.1 228.6 89.1 230.4C89.1 232.2 88.7 233.8 87.8 235.2C87 236.6 85.8 237.6 84.3 238.4C82.8 239.2 81.1 239.5 79.1 239.5H70.9V221.3ZM78.9 235.9C80.7 235.9 82.2 235.4 83.2 234.4C84.3 233.4 84.8 232 84.8 230.3C84.8 228.6 84.3 227.2 83.2 226.2C82.1 225.2 80.7 224.7 78.9 224.7H75.1V235.9H78.9Z" fill="#B5B4B4"/>
<path d="M94.3 237.5C92.9 236.1 92.1 234 92.1 231.4V221.3H96.3V231.3C96.3 234.5 97.6 236.2 100.3 236.2C101.6 236.2 102.6 235.8 103.3 235C104 234.2 104.3 233 104.3 231.3V221.3H108.4V231.4C108.4 234.1 107.7 236.1 106.2 237.5C104.8 238.9 102.7 239.6 100.2 239.6C97.7 239.6 95.8 239 94.3 237.5Z" fill="#B5B4B4"/>
<path d="M116.4 238.5C114.9 237.7 113.7 236.6 112.9 235.2C112 233.8 111.6 232.2 111.6 230.4C111.6 228.6 112 227 112.9 225.6C113.8 224.2 114.9 223.1 116.4 222.3C117.9 221.5 119.6 221.1 121.4 221.1C123 221.1 124.4 221.4 125.7 221.9C127 222.5 128 223.2 128.9 224.3L126.2 226.8C125 225.4 123.5 224.7 121.6 224.7C120.5 224.7 119.5 224.9 118.6 225.4C117.7 225.9 117 226.6 116.5 227.5C116 228.4 115.8 229.4 115.8 230.5C115.8 231.6 116 232.6 116.5 233.5C117 234.4 117.7 235.1 118.6 235.6C119.5 236.1 120.5 236.3 121.6 236.3C123.4 236.3 124.9 235.6 126.2 234.2L128.9 236.7C128 237.8 127 238.6 125.7 239.1C124.4 239.7 123 239.9 121.4 239.9C119.5 239.7 117.9 239.3 116.4 238.5Z" fill="#B5B4B4"/>
<path d="M135.3 224.7H129.5V221.3H145.3V224.7H139.5V239.4H135.3V224.7Z" fill="#B5B4B4"/>
<path d="M154.8 221.3H159V239.4H154.8V221.3Z" fill="#B5B4B4"/>
<path d="M179.8 239.4V228.5L174.5 237.5H172.6L167.3 228.8V239.4H163.4V221.3H166.9L173.7 232.6L180.4 221.3H183.8L183.9 239.4H179.8Z" fill="#B5B4B4"/>
<path d="M200 235.5H191.6L190 239.4H185.7L193.8 221.3H197.9L206 239.4H201.6L200 235.5ZM198.7 232.3L195.8 225.4L192.9 232.3H198.7Z" fill="#B5B4B4"/>
<path d="M219.9 230H223.7V237.4C222.7 238.1 221.6 238.7 220.3 239.1C219 239.5 217.7 239.7 216.4 239.7C214.5 239.7 212.8 239.3 211.3 238.5C209.8 237.7 208.6 236.6 207.8 235.2C206.9 233.8 206.5 232.2 206.5 230.4C206.5 228.6 206.9 227 207.8 225.6C208.7 224.2 209.8 223.1 211.4 222.3C212.9 221.5 214.6 221.1 216.5 221.1C218.1 221.1 219.5 221.4 220.8 221.9C222.1 222.4 223.2 223.2 224.1 224.2L221.4 226.7C220.1 225.3 218.5 224.7 216.7 224.7C215.5 224.7 214.5 224.9 213.6 225.4C212.7 225.9 212 226.6 211.5 227.4C211 228.3 210.7 229.3 210.7 230.4C210.7 231.5 211 232.5 211.5 233.4C212 234.3 212.7 235 213.6 235.5C214.5 236 215.5 236.2 216.6 236.2C217.8 236.2 218.9 235.9 219.9 235.4V230Z" fill="#B5B4B4"/>
<path d="M241.6 236V239.4H227.6V221.3H241.3V224.7H231.8V228.6H240.2V231.9H231.8V236.1H241.6V236Z" fill="#B5B4B4"/>
<path d="M32.5 265.5C31.1 264.1 30.3 262 30.3 259.4V249.3H34.5V259.3C34.5 262.5 35.8 264.2 38.5 264.2C39.8 264.2 40.8 263.8 41.5 263C42.2 262.2 42.5 261 42.5 259.3V249.3H46.6V259.4C46.6 262.1 45.9 264.1 44.4 265.5C43 266.9 40.9 267.6 38.4 267.6C35.9 267.6 34 267 32.5 265.5Z" fill="#B5B4B4"/>
<path d="M67.5 249.3V267.4H64.1L55.1 256.4V267.4H51V249.3H54.5L63.5 260.3V249.3H67.5Z" fill="#B5B4B4"/>
<path d="M83.8 263.5H75.4L73.8 267.4H69.5L77.6 249.3H81.7L89.8 267.4H85.4L83.8 263.5ZM82.5 260.3L79.6 253.4L76.7 260.3H82.5Z" fill="#B5B4B4"/>
<path d="M108.1 249.3L100.3 267.4H96.2L88.4 249.3H92.9L98.4 262.2L104 249.3H108.1Z" fill="#B5B4B4"/>
<path d="M121 263.5H112.6L111 267.4H106.7L114.8 249.3H118.9L127 267.4H122.6L121 263.5ZM119.6 260.3L116.7 253.4L113.8 260.3H119.6Z" fill="#B5B4B4"/>
<path d="M128.8 249.3H133V267.4H128.8V249.3Z" fill="#B5B4B4"/>
<path d="M137.3 249.3H141.5V264H150.6V267.4H137.3V249.3Z" fill="#B5B4B4"/>
<path d="M165.1 263.5H156.7L155.1 267.4H150.8L158.9 249.3H163L171.1 267.4H166.7L165.1 263.5ZM163.7 260.3L160.8 253.4L157.9 260.3H163.7Z" fill="#B5B4B4"/>
<path d="M188.7 259.6C189.3 260.4 189.6 261.3 189.6 262.4C189.6 264 189 265.2 187.7 266.1C186.5 267 184.7 267.4 182.3 267.4H173V249.3H181.9C184.1 249.3 185.8 249.7 187 250.6C188.2 251.4 188.8 252.6 188.8 254C188.8 254.9 188.6 255.7 188.2 256.4C187.8 257.1 187.2 257.6 186.4 258C187.3 258.3 188.1 258.8 188.7 259.6ZM177.1 252.4V256.7H181.3C182.3 256.7 183.1 256.5 183.7 256.2C184.2 255.8 184.5 255.3 184.5 254.6C184.5 253.9 184.2 253.4 183.7 253C183.2 252.6 182.4 252.5 181.3 252.5H177.1V252.4ZM184.5 263.7C185.1 263.3 185.3 262.8 185.3 262C185.3 260.5 184.2 259.7 182 259.7H177.1V264.2H182C183.1 264.2 184 264 184.5 263.7Z" fill="#B5B4B4"/>
<path d="M192.8 249.3H197V264H206.1V267.4H192.8V249.3Z" fill="#B5B4B4"/>
<path d="M222.4 264V267.4H208.4V249.3H222.1V252.7H212.6V256.6H221V259.9H212.6V264.1H222.4V264Z" fill="#B5B4B4"/>
</svg>
