<svg width="21" height="25" viewBox="0 0 21 25" fill="none" xmlns="http://www.w3.org/2000/svg">
<path d="M10.2999 11.8C11.8999 11.8 13.2999 11.2 14.4999 10.1C15.5999 9 16.1999 7.5 16.1999 5.9C16.1999 4.3 15.5999 2.9 14.4999 1.7C13.3999 0.6 11.8999 0 10.2999 0C8.6999 0 7.29991 0.6 6.09991 1.7C4.89991 2.8 4.3999 4.3 4.3999 5.9C4.3999 7.5 4.99991 8.9 6.09991 10.1C7.19991 11.2 8.6999 11.8 10.2999 11.8ZM7.09991 2.7C7.99991 1.8 8.9999 1.4 10.2999 1.4C11.4999 1.4 12.5999 1.8 13.4999 2.7C14.3999 3.6 14.7999 4.6 14.7999 5.9C14.7999 7.1 14.3999 8.2 13.4999 9.1C12.5999 10 11.5999 10.4 10.2999 10.4C9.0999 10.4 7.99991 10 7.09991 9.1C6.19991 8.2 5.7999 7.2 5.7999 5.9C5.7999 4.7 6.19991 3.6 7.09991 2.7Z" fill="#FF5B15"/>
<path d="M20.6 18.8C20.6 18.3 20.5 17.8 20.4 17.3C20.3 16.7 20.2 16.2 20 15.7C19.8 15.2 19.6 14.7 19.4 14.2C19.1 13.7 18.8 13.3 18.4 12.9C18 12.5 17.6 12.2 17 12C16.5 11.8 15.9 11.7 15.2 11.7C14.9 11.7 14.7 11.8 14.2 12.1C13.9 12.3 13.6 12.5 13.2 12.7C12.9 12.9 12.4 13.1 11.9 13.3C11.4 13.5 10.8 13.6 10.3 13.6C9.79999 13.6 9.20001 13.5 8.70001 13.3C8.20001 13.1 7.69999 12.9 7.39999 12.7C6.99999 12.5 6.69999 12.2 6.39999 12.1C5.89999 11.8 5.69999 11.7 5.39999 11.7C4.79999 11.7 4.20001 11.8 3.60001 12C3.10001 12.2 2.60001 12.5 2.20001 12.9C1.80001 13.2 1.50001 13.7 1.20001 14.2C0.900012 14.7 0.700006 15.2 0.600006 15.7C0.400006 16.2 0.300012 16.7 0.200012 17.3C0.100012 17.8 0 18.4 0 18.8C0 19.3 0 19.8 0 20.2C0 21.5 0.400012 22.5 1.20001 23.3C2.00001 24.1 2.99999 24.4 4.29999 24.4H16.1C17.4 24.4 18.4 24 19.2 23.3C20 22.5 20.4 21.5 20.4 20.2C20.6 19.8 20.6 19.3 20.6 18.8ZM18.5 22.3C18 22.8 17.3 23 16.4 23H4.5C3.6 23 2.89999 22.8 2.39999 22.3C1.89999 21.8 1.60001 21.1 1.60001 20.3C1.60001 19.8 1.60001 19.4 1.60001 19C1.60001 18.6 1.69999 18.1 1.79999 17.6C1.89999 17.1 2.00001 16.6 2.10001 16.2C2.20001 15.8 2.40001 15.4 2.60001 15C2.80001 14.6 2.99999 14.3 3.29999 14.1C3.49999 13.9 3.90001 13.7 4.20001 13.5C4.50001 13.4 4.89999 13.3 5.29999 13.3C5.39999 13.3 5.40001 13.4 5.60001 13.5C5.90001 13.7 6.20001 13.9 6.60001 14.2C7.00001 14.5 7.60001 14.7 8.20001 14.9C8.90001 15.1 9.50001 15.2 10.2 15.2C10.9 15.2 11.6 15.1 12.2 14.9C12.9 14.7 13.4 14.4 13.8 14.2C14.2 14 14.5 13.7 14.8 13.5C14.9 13.4 15 13.4 15.1 13.3C15.5 13.3 15.9 13.4 16.2 13.5C16.6 13.6 16.9 13.8 17.1 14.1C17.4 14.4 17.6 14.7 17.8 15C18 15.4 18.2 15.8 18.3 16.2C18.4 16.6 18.5 17.1 18.6 17.6C18.7 18.1 18.7 18.6 18.8 19C18.8 19.4 18.8 19.9 18.8 20.3C19.2 21.2 19 21.8 18.5 22.3Z" fill="#FF5B15"/>
</svg>
