<svg width="11" height="11" viewBox="0 0 11 11" fill="none" xmlns="http://www.w3.org/2000/svg">
<path d="M5.3 10.6C8.22711 10.6 10.6 8.22711 10.6 5.3C10.6 2.37289 8.22711 0 5.3 0C2.37289 0 0 2.37289 0 5.3C0 8.22711 2.37289 10.6 5.3 10.6Z" fill="#C1272D"/>
<path d="M7.3001 3.10003C7.1001 2.90003 6.9001 3.00003 6.7001 3.10003L4.3001 5.80003L3.6001 6.60003L3.3001 6.90003C3.2001 7.10003 3.2001 7.30003 3.3001 7.40003C3.3001 7.40003 3.3001 7.40003 3.3001 7.50003C3.4001 7.60003 3.5001 7.60003 3.6001 7.60003C3.7001 7.60003 3.7001 7.60003 3.8001 7.60003C3.8001 7.60003 3.9001 7.60003 3.9001 7.50003L4.7001 6.60003L7.3001 3.70003C7.5001 3.50003 7.5001 3.20003 7.3001 3.10003Z" fill="white"/>
<path d="M3.2999 3.10003C3.4999 2.90003 3.6999 3.00003 3.8999 3.10003L6.2999 5.80003L6.9999 6.60003L7.2999 6.90003C7.3999 7.10003 7.3999 7.30003 7.2999 7.40003C7.2999 7.40003 7.2999 7.40003 7.2999 7.50003C7.1999 7.60003 7.0999 7.60003 6.9999 7.60003C6.8999 7.60003 6.8999 7.60003 6.7999 7.60003C6.7999 7.60003 6.6999 7.60003 6.6999 7.50003L5.8999 6.60003L3.2999 3.70003C3.0999 3.50003 3.0999 3.20003 3.2999 3.10003Z" fill="white"/>
</svg>
