<svg width="13" height="13" viewBox="0 0 13 13" fill="none" xmlns="http://www.w3.org/2000/svg">
<path d="M0.4 9.70001H5.6C5.8 9.70001 6 9.50001 6 9.30001V8.90001C6 8.70001 5.8 8.50001 5.6 8.50001H0.4C0.2 8.40001 0 8.60001 0 8.90001V9.30001C0 9.50001 0.2 9.70001 0.4 9.70001Z" fill="#333333"/>
<path d="M0.4 7.00001H4.8C5 7.00001 5.2 6.80001 5.2 6.60001V6.10001C5.2 5.90001 5 5.70001 4.8 5.70001H0.4C0.2 5.70001 0 5.90001 0 6.10001V6.50001C0 6.80001 0.2 7.00001 0.4 7.00001Z" fill="#333333"/>
<path d="M0.4 4.00001H4C4.2 4.00001 4.4 3.80001 4.4 3.60001V3.10001C4.4 2.90001 4.2 2.70001 4 2.70001H0.4C0.2 2.70001 0 2.90001 0 3.10001V3.50001C0 3.80001 0.2 4.00001 0.4 4.00001Z" fill="#333333"/>
<path d="M0.4 1.3H3.2C3.4 1.3 3.6 1.1 3.6 0.9V0.4C3.6 0.2 3.4 0 3.2 0H0.4C0.2 0 0 0.2 0 0.4V0.8C0 1.1 0.2 1.3 0.4 1.3Z" fill="#333333"/>
<path d="M6.4 11.1H0.4C0.2 11.1 0 11.3 0 11.5V11.9C0 12.1 0.2 12.3 0.4 12.3H6.4C6.6 12.3 6.8 12.1 6.8 11.9V11.5C6.9 11.3 6.7 11.1 6.4 11.1Z" fill="#333333"/>
<path d="M12.8999 9.20001L12.5999 8.90001C12.4999 8.80001 12.3999 8.80001 12.2999 8.80001C12.1999 8.80001 12.0999 8.80001 11.9999 8.90001L10.4999 10.4V0.600012C10.4999 0.400012 10.2999 0.200012 10.0999 0.200012H9.5999C9.3999 0.200012 9.1999 0.400012 9.1999 0.600012V10.3L7.6999 8.90001C7.5999 8.80001 7.4999 8.70001 7.3999 8.70001C7.2999 8.70001 7.1999 8.70001 7.0999 8.80001L6.7999 9.20001C6.5999 9.40001 6.5999 9.60001 6.7999 9.80001L9.4999 12.5C9.5999 12.6 9.6999 12.6 9.7999 12.6C9.8999 12.6 9.9999 12.6 10.0999 12.5L12.7999 9.80001C12.9999 9.60001 12.9999 9.30001 12.8999 9.20001Z" fill="#333333"/>
</svg>
