<svg width="93" height="69" viewBox="0 0 93 69" fill="none" xmlns="http://www.w3.org/2000/svg">
<path d="M91.8215 42.7C91.6215 44 91.4215 45.4 91.1215 46.7C88.5215 58.2 79.2215 66.7 67.6215 68.1C65.4215 68.4 63.2215 68.3 61.0215 68.3C50.0215 68.3 38.9215 68.3 27.9215 68.3C14.6215 68.3 3.52153 59.4 0.62153 46.4C-2.57847 32.1 6.92153 17 21.2215 13.9C23.4215 13.4 25.7215 13.2 28.0215 13.2C37.0215 13.1 46.0215 13.2 54.9215 13.2C55.2215 13.2 55.5215 13.2 55.9215 13.2C53.6215 10.9 51.3215 8.7 49.2215 6.5C51.5215 4.2 53.6215 2.1 55.6215 0C61.5215 5.9 67.4215 11.8 73.3215 17.7C67.4215 23.6 61.5215 29.5 55.6215 35.4C53.6215 33.4 51.5215 31.3 49.3215 29C51.5215 26.8 53.7215 24.6 56.0215 22.3C55.6215 22.3 55.4215 22.3 55.1215 22.3C46.1215 22.3 37.0215 22.3 28.0215 22.3C18.7215 22.3 11.2215 28.5 9.52153 37.7C7.72153 47.3 14.5215 57.1 24.2215 58.8C25.5215 59 26.9215 59.1 28.2215 59.2C40.1215 59.2 52.0215 59.2 64.0215 59.2C73.5215 59.2 81.0215 53 82.7215 43.7C83.7215 38.3 82.0215 33.5 78.7215 29.3C78.2215 28.7 77.6215 28.1 77.1215 27.4C79.2215 25.1 81.3215 22.9 83.5215 20.6C87.6215 24.4 90.2215 29.1 91.5215 34.5C91.8215 36 92.0215 37.4 92.3215 38.9C91.8215 40.2 91.8215 41.5 91.8215 42.7Z" fill="#8CC63F"/>
</svg>
